<svg id="menu" xmlns="http://www.w3.org/2000/svg" width="33.774" height="24.393" viewBox="0 0 33.774 24.393">
  <path id="Path_617" data-name="Path 617" d="M32.367,125.483H1.407a1.407,1.407,0,1,1,0-2.815h30.96a1.407,1.407,0,1,1,0,2.815Zm0,0" transform="translate(0 -111.879)" fill="#fff"/>
  <path id="Path_618" data-name="Path 618" d="M32.367,2.815H1.407A1.407,1.407,0,0,1,1.407,0h30.96a1.407,1.407,0,0,1,0,2.815Zm0,0" fill="#fff"/>
  <path id="Path_619" data-name="Path 619" d="M32.367,248.147H1.407a1.407,1.407,0,0,1,0-2.815h30.96a1.407,1.407,0,0,1,0,2.815Zm0,0" transform="translate(0 -223.754)" fill="#fff"/>
</svg>
