<svg xmlns="http://www.w3.org/2000/svg" width="2026.257" height="978" viewBox="0 0 2026.257 978">
  <g id="about-us-section" transform="translate(117 -1103)">
    <g id="Group_2" data-name="Group 2" transform="translate(453.192 -1101.227)">
      <path id="Path_5" data-name="Path 5" d="M287.615,2782.743l516.107,306.224,540.192-75.7L972.26,2332.01Z" transform="translate(0 -11.321)" fill="none" stroke="#fff" stroke-width="0.5" opacity="0.2"/>
      <path id="Path_6" data-name="Path 6" d="M427,2975.208l426.593-711.963,455.233,791.364Z" transform="translate(-15.993 -3.431)" fill="none" stroke="#fff" stroke-width="0.5" opacity="0.2"/>
      <path id="Path_7" data-name="Path 7" d="M663.387,2357.743l225.225,767.544,573.041-559.952L639.567,3098.82l502.874-865.472-52.934,931.64L549.579,2392.15l762.251,772.837,15.88-786.071L337.842,2548.305l1095.735,576.981L888.612,2283.635,372.25,2974.424l976.634-442-799.3,505.52L771.9,2283.635l206.121,881.352Z" transform="translate(-5.763)" fill="none" stroke="#fff" stroke-width="0.5" opacity="0.2"/>
      <circle id="Ellipse_2" data-name="Ellipse 2" cx="15" cy="15" r="15" transform="translate(958.808 3152.227)" fill="#fff"/>
      <circle id="Ellipse_3" data-name="Ellipse 3" cx="6.5" cy="6.5" r="6.5" transform="translate(1077.808 3161.227)" fill="#989898"/>
      <circle id="Ellipse_4" data-name="Ellipse 4" cx="29" cy="29" r="29" transform="translate(973.808 2828.227)" fill="#484848"/>
      <circle id="Ellipse_5" data-name="Ellipse 5" cx="29" cy="29" r="29" transform="translate(1105.808 2204.227)" fill="#484848"/>
      <circle id="Ellipse_6" data-name="Ellipse 6" cx="29" cy="29" r="29" transform="translate(778.808 2444.227)" fill="#484848"/>
      <circle id="Ellipse_7" data-name="Ellipse 7" cx="29" cy="29" r="29" transform="translate(302.808 2518.227)" fill="#141414"/>
      <circle id="Ellipse_8" data-name="Ellipse 8" cx="16.5" cy="16.5" r="16.5" transform="translate(270.808 2754.227)" fill="#ababab"/>
      <circle id="Ellipse_9" data-name="Ellipse 9" cx="15" cy="15" r="15" transform="translate(1334.808 2517.227)" fill="#fff"/>
      <circle id="Ellipse_10" data-name="Ellipse 10" cx="15" cy="15" r="15" transform="translate(729.808 2894.227)" fill="#fff"/>
      <circle id="Ellipse_11" data-name="Ellipse 11" cx="15" cy="15" r="15" transform="translate(1011.808 2410.227)" fill="#fff"/>
      <circle id="Ellipse_12" data-name="Ellipse 12" cx="15" cy="15" r="15" transform="matrix(0.996, 0.087, -0.087, 0.996, 873.172, 2268.976)" fill="#fff"/>
      <circle id="Ellipse_13" data-name="Ellipse 13" cx="15" cy="15" r="15" transform="translate(1096.808 2619.227)" fill="#fff"/>
      <circle id="Ellipse_14" data-name="Ellipse 14" cx="6.5" cy="6.5" r="6.5" transform="translate(973.808 2496.227)" fill="#989898"/>
      <circle id="Ellipse_15" data-name="Ellipse 15" cx="6.5" cy="6.5" r="6.5" transform="translate(1090.808 2943.227)" fill="#989898"/>
      <circle id="Ellipse_16" data-name="Ellipse 16" cx="6.5" cy="6.5" r="6.5" transform="translate(1174.808 2738.227)" fill="#989898"/>
      <circle id="Ellipse_17" data-name="Ellipse 17" cx="6.5" cy="6.5" r="6.5" transform="translate(1314.808 2371.227)" fill="#989898"/>
      <circle id="Ellipse_18" data-name="Ellipse 18" cx="6.5" cy="6.5" r="6.5" transform="translate(1308.808 2696.227)" fill="#989898"/>
      <circle id="Ellipse_19" data-name="Ellipse 19" cx="6.5" cy="6.5" r="6.5" transform="translate(1146.808 2646.227)" fill="#989898"/>
      <circle id="Ellipse_20" data-name="Ellipse 20" cx="3.5" cy="3.5" r="3.5" transform="translate(939.808 2439.227)" fill="#989898"/>
      <circle id="Ellipse_21" data-name="Ellipse 21" cx="6.5" cy="6.5" r="6.5" transform="translate(856.808 2696.227)" fill="#989898"/>
      <circle id="Ellipse_22" data-name="Ellipse 22" cx="6.5" cy="6.5" r="6.5" transform="translate(794.808 2425.227)" fill="#989898"/>
      <circle id="Ellipse_23" data-name="Ellipse 23" cx="6.5" cy="6.5" r="6.5" transform="translate(709.808 2502.227)" fill="#989898"/>
      <circle id="Ellipse_24" data-name="Ellipse 24" cx="6.5" cy="6.5" r="6.5" transform="translate(746.808 2599.227)" fill="#989898"/>
      <circle id="Ellipse_25" data-name="Ellipse 25" cx="3.5" cy="3.5" r="3.5" transform="translate(939.808 2439.227)" fill="#989898"/>
      <circle id="Ellipse_26" data-name="Ellipse 26" cx="3.5" cy="3.5" r="3.5" transform="translate(879.808 2933.227)" fill="#989898"/>
      <circle id="Ellipse_27" data-name="Ellipse 27" cx="29" cy="29" r="29" transform="translate(624.808 2324.227)" fill="#484848"/>
      <circle id="Ellipse_28" data-name="Ellipse 28" cx="15" cy="15" r="15" transform="matrix(0.996, 0.087, -0.087, 0.996, 630.172, 2517.976)" fill="#fff"/>
      <circle id="Ellipse_29" data-name="Ellipse 29" cx="29" cy="29" r="29" transform="translate(569.808 2836.227)" fill="#484848"/>
      <circle id="Ellipse_30" data-name="Ellipse 30" cx="29" cy="29" r="29" transform="translate(607.808 2686.227)" fill="#484848"/>
      <circle id="Ellipse_31" data-name="Ellipse 31" cx="15" cy="15" r="15" transform="translate(856.808 2733.227)" fill="#fff"/>
      <circle id="Ellipse_32" data-name="Ellipse 32" cx="15" cy="15" r="15" transform="translate(763.808 2771.227)" fill="#fff"/>
      <circle id="Ellipse_33" data-name="Ellipse 33" cx="15" cy="15" r="15" transform="translate(764.808 2985.227)" fill="#fff"/>
      <circle id="Ellipse_34" data-name="Ellipse 34" cx="6.5" cy="6.5" r="6.5" transform="translate(1077.808 3161.227)" fill="#989898"/>
      <circle id="Ellipse_35" data-name="Ellipse 35" cx="6.5" cy="6.5" r="6.5" transform="translate(858.808 3062.227)" fill="#989898"/>
      <circle id="Ellipse_36" data-name="Ellipse 36" cx="6.5" cy="6.5" r="6.5" transform="translate(829.808 2959.227)" fill="#989898"/>
      <circle id="Ellipse_37" data-name="Ellipse 37" cx="3.5" cy="3.5" r="3.5" transform="translate(752.808 2693.227)" fill="#989898"/>
      <circle id="Ellipse_38" data-name="Ellipse 38" cx="15" cy="15" r="15" transform="translate(1255.808 3000.227)" fill="#fff"/>
      <circle id="Ellipse_39" data-name="Ellipse 39" cx="29" cy="29" r="29" transform="translate(1315.808 2966.227)" fill="#484848"/>
    </g>
    <rect id="Rectangle_4" data-name="Rectangle 4" width="1510" height="660" transform="translate(-117 1286)" fill="#232323" opacity="0.8"/>
  </g>
</svg>
