<svg xmlns="http://www.w3.org/2000/svg" width="27" height="28" viewBox="0 0 27 28">
  <g id="calendar-icon" transform="translate(-1360 -450)">
    <path id="Subtraction_4" data-name="Subtraction 4" d="M24,24H3a3,3,0,0,1-3-3V3A3,3,0,0,1,3,0H5V2A1,1,0,0,0,6,3H8A1,1,0,0,0,9,2V0h9V2a1,1,0,0,0,1,1h2a1,1,0,0,0,1-1V0h2a3,3,0,0,1,3,3V21A3,3,0,0,1,24,24ZM20,14v5h5V14Zm-6,0v5h5V14ZM8,14v5h5V14ZM2,14v5H7V14ZM20,8v5h5V8ZM14,8v5h5V8ZM8,8v5h5V8ZM2,8v5H7V8Z" transform="translate(1360 454)" fill="#fff"/>
    <rect id="Rectangle_12" data-name="Rectangle 12" width="2" height="6" rx="1" transform="translate(1379 450)" fill="#fff"/>
    <rect id="Rectangle_13" data-name="Rectangle 13" width="2" height="6" rx="1" transform="translate(1366 450)" fill="#fff"/>
  </g>
</svg>
