<svg xmlns="http://www.w3.org/2000/svg" width="12.083" height="12.08" viewBox="0 0 12.083 12.08">
  <path id="call-icon" d="M66.038,134.42l-.915.887a9.172,9.172,0,0,1-1.94-1.5,9.35,9.35,0,0,1-1.508-1.94l.887-.906a.6.6,0,0,0,0-.848l-2.445-2.442a.6.6,0,0,0-.851,0l-1.189,1.184a2.032,2.032,0,0,0-.4,2.326,18.238,18.238,0,0,0,8.193,8.193,2.021,2.021,0,0,0,.881.2,2.048,2.048,0,0,0,1.444-.6l1.186-1.189a.6.6,0,0,0,0-.851l-2.495-2.511a.6.6,0,0,0-.854-.008Zm1.486,3.881a1.07,1.07,0,0,1-1.222.208,17.26,17.26,0,0,1-7.761-7.761,1.07,1.07,0,0,1,.211-1.222l.832-.815a.161.161,0,0,1,.227,0l1.707,1.719a.155.155,0,0,1,0,.225l-1,1.009.133.3a9.333,9.333,0,0,0,1.854,2.517A9.189,9.189,0,0,0,65,136.324l.3.128,1.028-1a.158.158,0,0,1,.225,0l1.777,1.777a.158.158,0,0,1,0,.227Zm-2.417-7.819" transform="translate(-57.478 -127.498)"/>
</svg>
