<svg xmlns="http://www.w3.org/2000/svg" width="95.152" height="81" viewBox="0 0 95.152 81">
  <g id="cart-icon" transform="translate(-245.232 -2762.54)">
    <path id="Path_538" data-name="Path 538" d="M326.3,5786.1s-2.038.417-2.069-2.689,2.069-2.871,2.069-2.871H340.07a5.082,5.082,0,0,1,2.957,1.048,6.232,6.232,0,0,1,1.448,3.022l1.947,7.23h70.363a2.671,2.671,0,0,1,2.04,1.206,7.891,7.891,0,0,1,.556,3.337l-8.436,34.3a4.951,4.951,0,0,1-.927,2.132,3.461,3.461,0,0,1-1.854.927H356.9l2.225,8.9H405.64a2.994,2.994,0,0,1,.844,5.665H357.675a4.474,4.474,0,0,1-2.422-.455,4.26,4.26,0,0,1-1.435-1.955l-15.064-59.8Z" transform="translate(-79 -3018)"/>
    <circle id="Ellipse_136" data-name="Ellipse 136" cx="5" cy="5" r="5" transform="translate(279 2833.54)"/>
    <ellipse id="Ellipse_137" data-name="Ellipse 137" cx="5.5" cy="5" rx="5.5" ry="5" transform="translate(317 2833.54)"/>
  </g>
</svg>
