<svg xmlns="http://www.w3.org/2000/svg" width="62.327" height="79.676" viewBox="0 0 62.327 79.676">
  <g id="contract-icon" transform="translate(-614.127 -2804.822)">
    <g id="Group_105" data-name="Group 105" transform="translate(614.127 2804.822)">
      <path id="Path_534" data-name="Path 534" d="M349.127,5772.848c.246-.738,0-58.074,0-58.074l14.272-14.519h24.608l4.922,4.921-7.136,7.137,7.136,6.644,6.89-6.644,5.168,5.167s.738,55.86,0,55.368S349.127,5772.848,349.127,5772.848Z" transform="translate(-349.127 -5693.176)"/>
      <path id="Path_535" data-name="Path 535" d="M421.924,5706.026l6.989-6.844-6.989-7.572,4.805-4.659,6.844,6.989,7.426-6.989,4.514,4.659-7.28,7.572,7.28,6.844s-4.077,4.659-4.514,4.513-7.426-6.7-7.426-6.7l-6.844,6.7Z" transform="translate(-383.186 -5686.951)"/>
    </g>
    <rect id="Rectangle_1491" data-name="Rectangle 1491" width="30" height="5" transform="translate(632 2839.822)" fill="#fff"/>
    <rect id="Rectangle_1492" data-name="Rectangle 1492" width="40" height="5" transform="translate(622 2846.822)" fill="#fff"/>
    <rect id="Rectangle_1493" data-name="Rectangle 1493" width="40" height="5" transform="translate(622 2853.822)" fill="#fff"/>
    <rect id="Rectangle_1494" data-name="Rectangle 1494" width="40" height="5" transform="translate(622 2861.822)" fill="#fff"/>
    <rect id="Rectangle_1495" data-name="Rectangle 1495" width="40" height="4" transform="translate(622 2868.822)" fill="#fff"/>
  </g>
</svg>
