<svg xmlns="http://www.w3.org/2000/svg" width="90.978" height="81" viewBox="0 0 90.978 81">
  <g id="delivery-icon" transform="translate(-313 -2568)">
    <path id="Subtraction_2" data-name="Subtraction 2" d="M12.913,25.826A12.913,12.913,0,0,1,3.782,3.782,12.913,12.913,0,0,1,22.044,22.044,12.828,12.828,0,0,1,12.913,25.826ZM13.207,5.87a7.337,7.337,0,1,0,7.337,7.337A7.345,7.345,0,0,0,13.207,5.87Z" transform="translate(378.152 2623.174)"/>
    <path id="Path_536" data-name="Path 536" d="M412.075,5706.662h6.745s1.053,2.5,4.979,2.409,5.139-2.409,5.139-2.409h6.424S434,5715.25,423.8,5715.5,412.075,5706.662,412.075,5706.662Z" transform="translate(-87.292 -3067.839)"/>
    <path id="Path_537" data-name="Path 537" d="M414.074,5645.147s-5.189,1.915-6.918,6.548,0,11.983,0,11.983,54.235.124,54.235,0,4.571-12.6,4.571-12.6h20.014l-13.219-8.524-2.471-6.794a3.558,3.558,0,0,0,1.768,1.235c1.112.309,2.68.349,2.68,0v-12.107a9.97,9.97,0,0,0-3.44.848,11.805,11.805,0,0,0-2.984,2.241,9.927,9.927,0,0,0-1.767-3.089,6.537,6.537,0,0,0-2.68-1.606l-9.76-.989v2.595l5.683,1.235s3.027.124,1.606,8.277-7.289,24.338-7.289,24.338H437.424v-16.184l-2.471-2.471,11,1.483.988,13.342a4.356,4.356,0,0,0,2.594,1.359c1.328,0,2.841-.495,2.718-1.359s0-17.3,0-17.3a5.791,5.791,0,0,0-.988-1.853,6.72,6.72,0,0,0-1.73-1.359l-12.6-2.224v-8.9l4.077,4.077,10.254-.617.988-2.472-.988-1.977-7.907-.617-7.783-9.266s-2.841-.68-4.571,0a4.588,4.588,0,0,0-2.347,2.718l-.988,18.408a8.8,8.8,0,0,0,.988,4.077,7.315,7.315,0,0,0,3.089,2.471H417.286a10.033,10.033,0,0,0-3.212,2.471A2.613,2.613,0,0,0,414.074,5645.147Z" transform="translate(-84.943 -3028.783)"/>
    <ellipse id="Ellipse_135" data-name="Ellipse 135" cx="6.5" cy="7" rx="6.5" ry="7" transform="translate(343 2568)"/>
    <rect id="Rectangle_1496" data-name="Rectangle 1496" width="24" height="16" rx="4" transform="translate(313 2595)"/>
  </g>
</svg>
