<svg xmlns="http://www.w3.org/2000/svg" width="111.079" height="111.079" viewBox="0 0 111.079 111.079">
  <g id="experience-icon" transform="translate(-1 -1)">
    <path id="Path_935" data-name="Path 935" d="M96.042,76.6a14.343,14.343,0,1,0-18.495-.357H60.089c-.118-.278-.215-.557-.344-.835L62.42,71,60.5,69.081h3.2a5.381,5.381,0,0,0,5.375-5.375V60.123a5.381,5.381,0,0,0-5.375-5.375H60.123a1.792,1.792,0,0,1-1.792-1.792V51.165H76.247V42.207A19.723,19.723,0,0,0,63.661,23.852a12.541,12.541,0,1,0-14.243,0A19.794,19.794,0,0,0,38.624,34.044,19.788,19.788,0,0,0,27.829,23.852a12.541,12.541,0,1,0-14.243,0A19.723,19.723,0,0,0,1,42.207v8.958H18.916v1.792a1.792,1.792,0,0,1-1.792,1.792H13.541a5.381,5.381,0,0,0-5.375,5.375v3.583a5.381,5.381,0,0,0,5.375,5.375h3.2L14.828,71,17.5,75.412q-.414.89-.745,1.783L11.75,78.426V91.985l5.006,1.231q.331.892.745,1.783l-2.673,4.416L24.416,109l4.416-2.673c.591.276,1.188.525,1.783.745l1.229,5H45.4l1.231-5.006q.892-.331,1.783-.745L52.833,109l9.589-9.589L59.748,95c.276-.591.525-1.188.745-1.783l5-1.229v-3.2h2.687a2.691,2.691,0,0,1,2.687,2.687v20.6h41.207V95.955A19.73,19.73,0,0,0,96.042,76.6ZM76.247,65.5A10.75,10.75,0,1,1,87,76.247,10.76,10.76,0,0,1,76.247,65.5ZM47.582,13.541A8.958,8.958,0,1,1,56.54,22.5,8.968,8.968,0,0,1,47.582,13.541ZM56.54,26.082A16.142,16.142,0,0,1,72.664,42.207v5.375H67.289V33.249H63.706V47.582H49.373V33.249H45.79V47.582H40.415V42.207A16.142,16.142,0,0,1,56.54,26.082ZM11.75,13.541A8.958,8.958,0,1,1,20.708,22.5,8.968,8.968,0,0,1,11.75,13.541ZM4.583,42.207a16.124,16.124,0,0,1,32.249,0v5.375H31.457V33.249H27.874V47.582H13.541V33.249H9.958V47.582H4.583ZM13.541,65.5a1.792,1.792,0,0,1-1.792-1.792V60.123a1.792,1.792,0,0,1,1.792-1.792h3.583A5.381,5.381,0,0,0,22.5,52.956V51.165H54.748v1.792a5.381,5.381,0,0,0,5.375,5.375h3.583A1.792,1.792,0,0,1,65.5,60.123v3.583A1.792,1.792,0,0,1,63.706,65.5H56.921l-4.088-4.088-4.416,2.673q-.89-.414-1.783-.745L45.4,58.331H31.844l-1.231,5.006q-.892.331-1.783.745l-4.416-2.673L20.326,65.5ZM61.914,89.175l-4.2,1.034-.3.957a19.593,19.593,0,0,1-1.3,3.094l-.464.892L57.9,98.868l-5.613,5.613-3.716-2.248-.892.464a19.518,19.518,0,0,1-3.091,1.294l-.96.3-1.032,4.2h-7.94l-1.034-4.2-.957-.3a19.593,19.593,0,0,1-3.094-1.3l-.892-.464-3.716,2.248-5.613-5.613L21.6,95.15l-.464-.892a19.518,19.518,0,0,1-1.294-3.091l-.3-.96-4.2-1.032v-7.94l4.2-1.034.3-.96a19.658,19.658,0,0,1,1.294-3.09l.464-.892L19.35,71.542l5.613-5.613,3.716,2.248.892-.464a19.519,19.519,0,0,1,3.091-1.294l.96-.3,1.032-4.2h7.94l1.034,4.2.96.3a19.658,19.658,0,0,1,3.091,1.294l.892.464,3.716-2.248L57.9,71.544,55.651,75.26l.464.892c.016.032.03.064.047.1H51.989a16.084,16.084,0,1,0,2.356,12.539h7.57ZM42.9,88.434a5.369,5.369,0,1,1-4.28-8.6,5.023,5.023,0,0,1,.588.077,6.185,6.185,0,0,0-.588,2.61,6.257,6.257,0,0,0,4.28,5.916Zm-.822-11.49a8.957,8.957,0,1,0,4.75,11.844h3.807a12.552,12.552,0,1,1-3.252-12.541H44.894a6.2,6.2,0,0,0-2.813.7ZM108.5,108.5h-5.375V88.788H99.538V108.5H74.456V91.476a6.277,6.277,0,0,0-6.271-6.271H44.894a2.687,2.687,0,1,1,0-5.375H92.371A16.142,16.142,0,0,1,108.5,95.955Z" transform="translate(0)" fill="#1a1a1a"/>
    <path id="Path_936" data-name="Path 936" d="M77.249,25.541A12.557,12.557,0,0,0,64.708,13H57.541A12.557,12.557,0,0,0,45,25.541V38.082H64.708A12.557,12.557,0,0,0,77.249,25.541Zm-28.666,0a8.968,8.968,0,0,1,8.958-8.958h7.166a8.958,8.958,0,1,1,0,17.916H48.583Z" transform="translate(34.83 9.499)" fill="#1a1a1a"/>
    <path id="Path_937" data-name="Path 937" d="M49,21h3.583v3.583H49Z" transform="translate(37.997 15.832)" fill="#1a1a1a"/>
    <path id="Path_938" data-name="Path 938" d="M53,21h3.583v3.583H53Z" transform="translate(41.163 15.832)" fill="#1a1a1a"/>
    <path id="Path_939" data-name="Path 939" d="M57,21h3.583v3.583H57Z" transform="translate(44.329 15.832)" fill="#1a1a1a"/>
    <path id="Path_940" data-name="Path 940" d="M49,17H66.916v3.583H49Z" transform="translate(37.997 12.666)" fill="#1a1a1a"/>
  </g>
</svg>
