<svg xmlns="http://www.w3.org/2000/svg" width="81.529" height="81.599" viewBox="0 0 81.529 81.599">
  <g id="explore-icon5" transform="translate(0 0.021)">
    <path id="Path_904" data-name="Path 904" d="M54.86,50.367a5.062,5.062,0,0,1-4.352-2.446L43.714,36.779H25.241L18.447,47.922A5.1,5.1,0,0,1,9,45.272a4.71,4.71,0,0,1,.054-.73l3.428-24.248c0-.031.01-.058.014-.085A8.553,8.553,0,0,1,20.89,13a8.417,8.417,0,0,1,6.787,3.4h13.6A8.417,8.417,0,0,1,48.066,13a8.556,8.556,0,0,1,8.4,7.209c0,.027.01.058.014.085l3.431,24.262a5.364,5.364,0,0,1,.048.717,5.1,5.1,0,0,1-5.1,5.1ZM24.287,33.382H44.669a1.7,1.7,0,0,1,1.451.815l7.29,11.958a1.7,1.7,0,0,0,3.149-.883L53.121,20.847l-.01-.061A5.132,5.132,0,0,0,48.066,16.4a5.077,5.077,0,0,0-4.413,2.555,1.7,1.7,0,0,1-1.464.842H26.767a1.7,1.7,0,0,1-1.468-.842A5.068,5.068,0,0,0,20.89,16.4a5.132,5.132,0,0,0-5.045,4.389l-.01.061L12.414,45.031a1.733,1.733,0,0,0,3.135,1.124L22.84,34.2a1.687,1.687,0,0,1,1.447-.815Z" transform="translate(21.573 31.211)" fill="#fff"/>
    <path id="Path_905" data-name="Path 905" d="M5.092,70.45A5.1,5.1,0,0,1,0,65.341V10.614A5.116,5.116,0,0,1,2.806,6.072C19.03-2.1,31.144-2.064,40.765,6.249,50.382-2.06,62.5-2.1,78.727,6.076a5.11,5.11,0,0,1,2.8,4.538v28.5a1.7,1.7,0,0,1-3.4,0v-28.5a1.689,1.689,0,0,0-.927-1.5c-15.443-7.779-26.643-7.569-35.268.659a1.689,1.689,0,0,1-2.341,0C30.971,1.541,19.767,1.337,4.328,9.109a1.691,1.691,0,0,0-.931,1.5V65.341a1.7,1.7,0,0,0,2.076,1.671,83.066,83.066,0,0,1,17.879-2.453,1.8,1.8,0,0,1,1.719,1.678,1.7,1.7,0,0,1-1.678,1.719A79.725,79.725,0,0,0,6.23,70.324a5.192,5.192,0,0,1-1.138.126Z" transform="translate(0 0)" fill="#fff"/>
    <path id="Path_906" data-name="Path 906" d="M13.2,32.573a1.7,1.7,0,0,1-1.7-1.7V3.7a1.7,1.7,0,0,1,3.4,0V30.875A1.7,1.7,0,0,1,13.2,32.573Z" transform="translate(27.566 4.843)" fill="#fff"/>
  </g>
</svg>
