<svg id="explore-icon3" xmlns="http://www.w3.org/2000/svg" width="88" height="88" viewBox="0 0 88 88">
  <path id="Path_879" data-name="Path 879" d="M5.867,15.733a5.867,5.867,0,1,1,5.867-5.867A5.873,5.873,0,0,1,5.867,15.733Zm0-8.8A2.933,2.933,0,1,0,8.8,9.867,2.936,2.936,0,0,0,5.867,6.933Z" transform="translate(0 1.867)" fill="#fff"/>
  <path id="Path_880" data-name="Path 880" d="M20.867,11.733a5.867,5.867,0,1,1,5.867-5.867A5.873,5.873,0,0,1,20.867,11.733Zm0-8.8A2.933,2.933,0,1,0,23.8,5.867,2.936,2.936,0,0,0,20.867,2.933Z" transform="translate(7)" fill="#fff"/>
  <path id="Path_881" data-name="Path 881" d="M57.867,24.733a5.867,5.867,0,1,1,5.867-5.867A5.873,5.873,0,0,1,57.867,24.733Zm0-8.8A2.933,2.933,0,1,0,60.8,18.867,2.936,2.936,0,0,0,57.867,15.933Z" transform="translate(24.267 6.067)" fill="#fff"/>
  <path id="Path_882" data-name="Path 882" d="M44.867,63.733a5.867,5.867,0,1,1,5.867-5.867A5.873,5.873,0,0,1,44.867,63.733Zm0-8.8A2.933,2.933,0,1,0,47.8,57.867,2.936,2.936,0,0,0,44.867,54.933Z" transform="translate(18.2 24.267)" fill="#fff"/>
  <path id="Path_883" data-name="Path 883" d="M57.867,52.733a5.867,5.867,0,1,1,5.867-5.867A5.873,5.873,0,0,1,57.867,52.733Zm0-8.8A2.933,2.933,0,1,0,60.8,46.867,2.936,2.936,0,0,0,57.867,43.933Z" transform="translate(24.267 19.133)" fill="#fff"/>
  <path id="Path_884" data-name="Path 884" d="M14.867,60.733a5.867,5.867,0,1,1,5.867-5.867A5.873,5.873,0,0,1,14.867,60.733Zm0-8.8A2.933,2.933,0,1,0,17.8,54.867,2.936,2.936,0,0,0,14.867,51.933Z" transform="translate(4.2 22.867)" fill="#fff"/>
  <path id="Path_885" data-name="Path 885" d="M5.867,48.733a5.867,5.867,0,1,1,5.867-5.867A5.873,5.873,0,0,1,5.867,48.733Zm0-8.8A2.933,2.933,0,1,0,8.8,42.867,2.936,2.936,0,0,0,5.867,39.933Z" transform="translate(0 17.267)" fill="#fff"/>
  <path id="Path_886" data-name="Path 886" d="M47.867,11.733a5.867,5.867,0,1,1,5.867-5.867A5.873,5.873,0,0,1,47.867,11.733Zm0-8.8A2.933,2.933,0,1,0,50.8,5.867,2.936,2.936,0,0,0,47.867,2.933Z" transform="translate(19.6)" fill="#fff"/>
  <path id="Path_887" data-name="Path 887" d="M38.4,64.8A26.4,26.4,0,1,1,64.8,38.4,26.43,26.43,0,0,1,38.4,64.8Zm0-49.867A23.467,23.467,0,1,0,61.867,38.4,23.493,23.493,0,0,0,38.4,14.933Z" transform="translate(5.6 5.6)" fill="#fff"/>
  <path id="Path_888" data-name="Path 888" d="M23.533,24.667H16.2A13.215,13.215,0,0,1,3,11.467a1.467,1.467,0,1,1,2.933,0A10.278,10.278,0,0,0,16.2,21.733h7.333a1.467,1.467,0,1,1,0,2.933Z" transform="translate(1.4 4.667)" fill="#fff"/>
  <path id="Path_889" data-name="Path 889" d="M28.2,57.733H16.467a1.467,1.467,0,0,1,0-2.933H28.2a7.342,7.342,0,0,0,7.333-7.333,1.467,1.467,0,0,1,2.933,0A10.278,10.278,0,0,1,28.2,57.733Z" transform="translate(7 21.467)" fill="#fff"/>
  <path id="Path_890" data-name="Path 890" d="M22.133,42.933H7.467a1.467,1.467,0,0,1,0-2.933H22.133a1.467,1.467,0,0,1,0,2.933Z" transform="translate(2.8 18.667)" fill="#fff"/>
  <path id="Path_891" data-name="Path 891" d="M34.2,10.333a1.467,1.467,0,0,1-1.467-1.467A2.936,2.936,0,0,0,29.8,5.933H22.467a1.467,1.467,0,1,1,0-2.933H29.8a5.873,5.873,0,0,1,5.867,5.867A1.467,1.467,0,0,1,34.2,10.333Z" transform="translate(9.8 1.4)" fill="#fff"/>
  <path id="Path_892" data-name="Path 892" d="M30.467,17.733A1.467,1.467,0,0,1,29,16.267v-8.8a1.467,1.467,0,0,1,2.933,0v8.8A1.467,1.467,0,0,1,30.467,17.733Z" transform="translate(13.533 2.8)" fill="#fff"/>
  <path id="Path_893" data-name="Path 893" d="M38.467,20.667A1.467,1.467,0,0,1,37,19.2a5.873,5.873,0,0,1,5.867-5.867h4.4a1.469,1.469,0,0,0,1.467-1.467v-4.4a1.467,1.467,0,0,1,2.933,0v4.4a4.405,4.405,0,0,1-4.4,4.4h-4.4A2.936,2.936,0,0,0,39.933,19.2,1.467,1.467,0,0,1,38.467,20.667Z" transform="translate(17.267 2.8)" fill="#fff"/>
  <path id="Path_894" data-name="Path 894" d="M47.467,36.6A1.467,1.467,0,0,1,46,35.133a5.873,5.873,0,0,1,5.867-5.867h5.867A1.469,1.469,0,0,0,59.2,27.8V20.467a1.467,1.467,0,1,1,2.933,0V27.8a4.405,4.405,0,0,1-4.4,4.4H51.867a2.936,2.936,0,0,0-2.933,2.933A1.467,1.467,0,0,1,47.467,36.6Z" transform="translate(21.467 8.867)" fill="#fff"/>
  <path id="Path_895" data-name="Path 895" d="M60.888,47.667A1.467,1.467,0,0,1,59.422,46.2V41.8a1.469,1.469,0,0,0-1.467-1.467H50.622c-3.049,0-5.1-2.357-5.1-5.867a1.467,1.467,0,0,1,2.933,0c0,.883.211,2.933,2.163,2.933h7.333a4.405,4.405,0,0,1,4.4,4.4v4.4A1.467,1.467,0,0,1,60.888,47.667Z" transform="translate(21.245 15.4)" fill="#fff"/>
  <path id="Path_896" data-name="Path 896" d="M45.8,54.267A1.467,1.467,0,0,1,44.333,52.8a1.469,1.469,0,0,0-1.467-1.467A5.873,5.873,0,0,1,37,45.467a1.467,1.467,0,0,1,2.933,0A2.936,2.936,0,0,0,42.867,48.4a4.405,4.405,0,0,1,4.4,4.4A1.467,1.467,0,0,1,45.8,54.267Z" transform="translate(17.267 20.533)" fill="#fff"/>
  <path id="Path_897" data-name="Path 897" d="M43.467,56.333A1.467,1.467,0,0,1,42,54.867v-4.4a1.467,1.467,0,0,1,2.933,0v4.4A1.467,1.467,0,0,1,43.467,56.333Z" transform="translate(19.6 22.867)" fill="#fff"/>
  <path id="Path_898" data-name="Path 898" d="M45.933,47.533H22.467A1.467,1.467,0,0,1,21,46.067v-17.6A1.467,1.467,0,0,1,22.467,27H45.933A1.467,1.467,0,0,1,47.4,28.467v17.6A1.467,1.467,0,0,1,45.933,47.533Zm-22-2.933H44.467V29.933H23.933Z" transform="translate(9.8 12.6)" fill="#fff"/>
  <path id="Path_899" data-name="Path 899" d="M36.267,39.8h-8.8A1.467,1.467,0,0,1,26,38.333V32.467A1.467,1.467,0,0,1,27.467,31h8.8a1.467,1.467,0,0,1,1.467,1.467v5.867A1.467,1.467,0,0,1,36.267,39.8Zm-7.333-2.933H34.8V33.933H28.933Z" transform="translate(12.133 14.467)" fill="#fff"/>
  <path id="Path_900" data-name="Path 900" d="M42.067,34.6h-17.6A1.467,1.467,0,0,1,23,33.133V27.267a10.267,10.267,0,1,1,20.533,0v5.867A1.467,1.467,0,0,1,42.067,34.6ZM25.933,31.667H40.6v-4.4a7.333,7.333,0,0,0-14.667,0Z" transform="translate(10.733 7.933)" fill="#fff"/>
  <path id="Path_901" data-name="Path 901" d="M34.333,32.733H28.467A1.467,1.467,0,0,1,27,31.267V25.4a4.4,4.4,0,1,1,8.8,0v5.867A1.467,1.467,0,0,1,34.333,32.733Zm-4.4-2.933h2.933V25.4a1.467,1.467,0,0,0-2.933,0Z" transform="translate(12.6 9.8)" fill="#fff"/>
</svg>
