<svg xmlns="http://www.w3.org/2000/svg" width="83.736" height="73.332" viewBox="0 0 83.736 73.332">
  <g id="explore-icon6" transform="translate(0 -31.809)">
    <g id="Group_25" data-name="Group 25" transform="translate(0 31.809)">
      <g id="Group_24" data-name="Group 24" transform="translate(0 0)">
        <path id="Path_907" data-name="Path 907" d="M79.749,31.809H66.087a1.227,1.227,0,0,0,0,2.453H79.749A1.535,1.535,0,0,1,81.282,35.8V81.6H20.034V34.262H60.5a1.227,1.227,0,1,0,0-2.453H3.987A3.991,3.991,0,0,0,0,35.8V88.582A5.334,5.334,0,0,0,5.328,93.91H22.064a1.227,1.227,0,1,0,0-2.453H5.328a2.878,2.878,0,0,1-2.875-2.875V84.049H81.282v4.533a2.878,2.878,0,0,1-2.875,2.875H27.654a1.227,1.227,0,1,0,0,2.453h7.258c-.054.158-.108.314-.166.466a8.443,8.443,0,0,1-4.041,4.915A2.993,2.993,0,0,0,28.984,102v.15a3,3,0,0,0,2.993,2.991h9.386a1.227,1.227,0,1,0,0-2.453H31.977a.54.54,0,0,1-.54-.538V102a.56.56,0,0,1,.334-.5,10.792,10.792,0,0,0,5.27-6.257c.162-.428.31-.875.443-1.334h8.77c.133.459.281.906.443,1.333a10.79,10.79,0,0,0,5.27,6.257.56.56,0,0,1,.332.5v.15a.539.539,0,0,1-.538.538H46.953a1.227,1.227,0,1,0,0,2.453h4.808a3,3,0,0,0,2.991-2.991V102a2.994,2.994,0,0,0-1.719-2.708,8.441,8.441,0,0,1-4.042-4.916c-.057-.152-.112-.308-.166-.465H78.408a5.334,5.334,0,0,0,5.328-5.328V35.8A3.991,3.991,0,0,0,79.749,31.809ZM17.581,81.6H2.453V35.8a1.535,1.535,0,0,1,1.533-1.534H17.581Z" transform="translate(0 -31.809)" fill="#fff"/>
      </g>
    </g>
    <g id="Group_27" data-name="Group 27" transform="translate(68.044 40.36)">
      <g id="Group_26" data-name="Group 26">
        <path id="Path_908" data-name="Path 908" d="M423.717,84.091H418.3a2.244,2.244,0,0,0-2.241,2.242v33.333a1.226,1.226,0,0,0,1.227,1.227h7.451a1.226,1.226,0,0,0,1.227-1.227V86.333A2.244,2.244,0,0,0,423.717,84.091Zm-.212,34.348h-5V90.89h5Zm0-30h-5V86.544h5Z" transform="translate(-416.055 -84.091)" fill="#fff"/>
      </g>
    </g>
    <g id="Group_29" data-name="Group 29" transform="translate(71.374 48.835)">
      <g id="Group_28" data-name="Group 28" transform="translate(0 0)">
        <path id="Path_909" data-name="Path 909" d="M438.434,135.915h-.79a1.227,1.227,0,0,0,0,2.453h.79a1.227,1.227,0,1,0,0-2.453Z" transform="translate(-436.417 -135.915)" fill="#fff"/>
      </g>
    </g>
    <g id="Group_31" data-name="Group 31" transform="translate(71.374 53.068)">
      <g id="Group_30" data-name="Group 30" transform="translate(0 0)">
        <path id="Path_910" data-name="Path 910" d="M438.434,161.794h-.79a1.227,1.227,0,0,0,0,2.453h.79a1.227,1.227,0,1,0,0-2.453Z" transform="translate(-436.417 -161.794)" fill="#fff"/>
      </g>
    </g>
    <g id="Group_33" data-name="Group 33" transform="translate(71.374 57.3)">
      <g id="Group_32" data-name="Group 32">
        <path id="Path_911" data-name="Path 911" d="M438.434,187.673h-.79a1.227,1.227,0,0,0,0,2.453h.79a1.227,1.227,0,1,0,0-2.453Z" transform="translate(-436.417 -187.673)" fill="#fff"/>
      </g>
    </g>
    <g id="Group_35" data-name="Group 35" transform="translate(71.374 61.532)">
      <g id="Group_34" data-name="Group 34" transform="translate(0 0)">
        <path id="Path_912" data-name="Path 912" d="M438.434,213.551h-.79a1.227,1.227,0,0,0,0,2.453h.79a1.227,1.227,0,1,0,0-2.453Z" transform="translate(-436.417 -213.551)" fill="#fff"/>
      </g>
    </g>
    <g id="Group_37" data-name="Group 37" transform="translate(71.374 65.765)">
      <g id="Group_36" data-name="Group 36">
        <path id="Path_913" data-name="Path 913" d="M438.434,239.43h-.79a1.227,1.227,0,0,0,0,2.453h.79a1.227,1.227,0,1,0,0-2.453Z" transform="translate(-436.417 -239.43)" fill="#fff"/>
      </g>
    </g>
    <g id="Group_39" data-name="Group 39" transform="translate(71.374 69.997)">
      <g id="Group_38" data-name="Group 38">
        <path id="Path_914" data-name="Path 914" d="M438.434,265.309h-.79a1.227,1.227,0,0,0,0,2.453h.79a1.227,1.227,0,1,0,0-2.453Z" transform="translate(-436.417 -265.309)" fill="#fff"/>
      </g>
    </g>
    <g id="Group_41" data-name="Group 41" transform="translate(5.475 42.058)">
      <g id="Group_40" data-name="Group 40" transform="translate(0 0)">
        <path id="Path_915" data-name="Path 915" d="M36.417,94.479H34.7a1.227,1.227,0,0,0,0,2.453h1.715a1.227,1.227,0,0,0,0-2.453Z" transform="translate(-33.476 -94.479)" fill="#fff"/>
      </g>
    </g>
    <g id="Group_43" data-name="Group 43" transform="translate(5.475 46.393)">
      <g id="Group_42" data-name="Group 42" transform="translate(0 0)">
        <path id="Path_916" data-name="Path 916" d="M41.334,120.982H34.7a1.227,1.227,0,1,0,0,2.453h6.632a1.227,1.227,0,1,0,0-2.453Z" transform="translate(-33.476 -120.982)" fill="#fff"/>
      </g>
    </g>
    <g id="Group_45" data-name="Group 45" transform="translate(5.475 49.384)">
      <g id="Group_44" data-name="Group 44" transform="translate(0 0)">
        <path id="Path_917" data-name="Path 917" d="M41.334,139.271H34.7a1.227,1.227,0,1,0,0,2.453h6.632a1.227,1.227,0,1,0,0-2.453Z" transform="translate(-33.476 -139.271)" fill="#fff"/>
      </g>
    </g>
    <g id="Group_47" data-name="Group 47" transform="translate(5.475 52.375)">
      <g id="Group_46" data-name="Group 46" transform="translate(0 0)">
        <path id="Path_918" data-name="Path 918" d="M41.334,157.56H34.7a1.227,1.227,0,1,0,0,2.453h6.632a1.227,1.227,0,1,0,0-2.453Z" transform="translate(-33.476 -157.56)" fill="#fff"/>
      </g>
    </g>
    <g id="Group_49" data-name="Group 49" transform="translate(5.475 60.291)">
      <g id="Group_48" data-name="Group 48" transform="translate(0 0)">
        <path id="Path_919" data-name="Path 919" d="M36.417,205.959H34.7a1.227,1.227,0,0,0,0,2.453h1.715a1.227,1.227,0,0,0,0-2.453Z" transform="translate(-33.476 -205.959)" fill="#fff"/>
      </g>
    </g>
    <g id="Group_51" data-name="Group 51" transform="translate(5.475 64.625)">
      <g id="Group_50" data-name="Group 50">
        <path id="Path_920" data-name="Path 920" d="M41.334,232.464H34.7a1.227,1.227,0,0,0,0,2.453h6.632a1.227,1.227,0,1,0,0-2.453Z" transform="translate(-33.476 -232.464)" fill="#fff"/>
      </g>
    </g>
    <g id="Group_53" data-name="Group 53" transform="translate(5.475 67.616)">
      <g id="Group_52" data-name="Group 52">
        <path id="Path_921" data-name="Path 921" d="M41.334,250.752H34.7a1.227,1.227,0,0,0,0,2.453h6.632a1.227,1.227,0,1,0,0-2.453Z" transform="translate(-33.476 -250.752)" fill="#fff"/>
      </g>
    </g>
    <g id="Group_55" data-name="Group 55" transform="translate(5.475 70.607)">
      <g id="Group_54" data-name="Group 54">
        <path id="Path_922" data-name="Path 922" d="M41.334,269.04H34.7a1.227,1.227,0,1,0,0,2.453h6.632a1.227,1.227,0,1,0,0-2.453Z" transform="translate(-33.476 -269.04)" fill="#fff"/>
      </g>
    </g>
    <g id="Group_57" data-name="Group 57" transform="translate(24.179 45.605)">
      <g id="Group_56" data-name="Group 56" transform="translate(0 0)">
        <path id="Path_923" data-name="Path 923" d="M187.089,127.683l-6.131-3.719-.009-.006-6.45-3.912h0l-6.1-3.7a1.226,1.226,0,0,0-1.272,0l-6.1,3.7,0,0-6.447,3.911-.012.007-6.129,3.718a1.227,1.227,0,0,0,0,2.1l18.693,11.339a1.226,1.226,0,0,0,1.272,0l18.693-11.339a1.226,1.226,0,0,0,0-2.1Zm-9.121-2.664-3.755,2.278-4.089-2.48,3.755-2.278Zm-6.12,3.712-4.089,2.48-4.089-2.48,4.089-2.48Zm-4.088-9.9,3.755,2.278-3.755,2.278L164,121.1Zm-6.12,3.712,3.755,2.278-4.089,2.48-3.755-2.278Zm-10.208,6.192,3.755-2.278,3.755,2.278-3.755,2.278Zm6.12,3.712,3.755-2.278,4.089,2.48-3.755,2.278Zm10.208,6.192L164,136.358l3.755-2.278,3.755,2.278Zm6.12-3.712-3.755-2.278,4.089-2.48,3.755,2.278Zm6.454-3.915-3.755-2.278,3.755-2.278,3.755,2.278Z" transform="translate(-147.84 -116.166)" fill="#fff"/>
      </g>
    </g>
    <g id="Group_59" data-name="Group 59" transform="translate(51.681 67.968)">
      <g id="Group_58" data-name="Group 58" transform="translate(0 0)">
        <path id="Path_924" data-name="Path 924" d="M318.333,252.9h-1.106a1.227,1.227,0,0,0,0,2.453h1.106a1.227,1.227,0,1,0,0-2.453Z" transform="translate(-316 -252.904)" fill="#fff"/>
      </g>
    </g>
    <g id="Group_61" data-name="Group 61" transform="translate(51.681 71.116)">
      <g id="Group_60" data-name="Group 60" transform="translate(0 0)">
        <path id="Path_925" data-name="Path 925" d="M324.177,272.151h-6.951a1.227,1.227,0,0,0,0,2.453h6.951a1.227,1.227,0,0,0,0-2.453Z" transform="translate(-316 -272.151)" fill="#fff"/>
      </g>
    </g>
  </g>
</svg>
