<svg xmlns="http://www.w3.org/2000/svg" width="83.961" height="76.09" viewBox="0 0 83.961 76.09">
  <g id="explore-icon4" transform="translate(0 -24)">
    <g id="Group_13" data-name="Group 13" transform="translate(70.543 29.547)">
      <g id="Group_12" data-name="Group 12" transform="translate(0 0)">
        <rect id="Rectangle_6" data-name="Rectangle 6" width="3" height="3" transform="translate(0.457 -0.313)" fill="#fff"/>
      </g>
    </g>
    <g id="Group_15" data-name="Group 15" transform="translate(0 24)">
      <g id="Group_14" data-name="Group 14">
        <path id="Path_902" data-name="Path 902" d="M82.649,24H1.312A1.312,1.312,0,0,0,0,25.312V98.778a1.312,1.312,0,0,0,1.312,1.312H82.649a1.312,1.312,0,0,0,1.312-1.312V25.312A1.312,1.312,0,0,0,82.649,24ZM2.624,26.624H15.743V34.5H2.624ZM44.6,97.466H39.357V85.659H44.6Zm.1-14.431H39.261c-.627-4.172-4.2-6.428-7.058-7.393l8.466-14.11V72.54h2.624V61.533l8.466,14.11C48.9,76.6,45.329,78.863,44.7,83.035Zm-5.343-27.55V50.238H44.6v5.248ZM81.338,97.466H47.228V84.347c0-5.354,6.5-6.531,6.775-6.578a1.312,1.312,0,0,0,.909-1.968L44.3,58.109h1.62A1.312,1.312,0,0,0,47.228,56.8V55.726C50.857,56.486,60,59.306,61.458,68.6H59.035a1.312,1.312,0,0,0-1.312,1.312v7.871A1.312,1.312,0,0,0,59.035,79.1h7.871a1.312,1.312,0,0,0,1.312-1.312V69.916A1.312,1.312,0,0,0,66.907,68.6h-2.8a16.046,16.046,0,0,0-5.844-10.5h4.7A1.312,1.312,0,0,0,64.283,56.8V48.926a1.312,1.312,0,0,0-1.312-1.312H55.1a1.312,1.312,0,0,0-1.312,1.312V51.55H47.228V48.926a1.312,1.312,0,0,0-1.312-1.312H38.045a1.312,1.312,0,0,0-1.312,1.312V51.55H30.174V48.926a1.312,1.312,0,0,0-1.312-1.312H20.99a1.312,1.312,0,0,0-1.312,1.312V56.8a1.312,1.312,0,0,0,1.312,1.312h4.7a16.046,16.046,0,0,0-5.844,10.5h-2.8a1.312,1.312,0,0,0-1.312,1.312v7.871A1.312,1.312,0,0,0,17.055,79.1h7.871a1.312,1.312,0,0,0,1.312-1.312V69.916A1.312,1.312,0,0,0,24.926,68.6H22.5C23.971,59.335,33.1,56.5,36.733,55.73V56.8a1.312,1.312,0,0,0,1.312,1.312h1.62L29.049,75.8a1.312,1.312,0,0,0,.905,1.968c.277.047,6.779,1.224,6.779,6.578V97.466H2.624V37.119H81.338ZM51.17,54.174h2.618v1.095A27.012,27.012,0,0,0,51.17,54.174Zm5.241,1.312V50.238h5.248v5.248Zm5.248,15.743h3.936v5.248H60.347V71.228ZM32.791,54.174a27.059,27.059,0,0,0-2.618,1.095V54.174ZM27.55,50.238v5.248H22.3V50.238ZM22.3,71.228h1.312v5.248H18.367V71.228H22.3ZM81.338,34.5H18.367V26.624H81.338Z" transform="translate(0 -24)" fill="#fff"/>
      </g>
    </g>
    <g id="Group_17" data-name="Group 17" transform="translate(6.559 41.055)">
      <g id="Group_16" data-name="Group 16">
        <path id="Path_903" data-name="Path 903" d="M109.53,128H41.312A1.312,1.312,0,0,0,40,129.312v49.852a1.312,1.312,0,0,0,1.312,1.312H66.238v-2.624H42.624V130.624h65.595v47.228H84.6v2.624H109.53a1.312,1.312,0,0,0,1.312-1.312V129.312A1.312,1.312,0,0,0,109.53,128Z" transform="translate(-40 -128)" fill="#fff"/>
      </g>
    </g>
    <g id="Group_19" data-name="Group 19" transform="translate(5.367 29.547)">
      <g id="Group_18" data-name="Group 18" transform="translate(0 0)">
        <rect id="Rectangle_7" data-name="Rectangle 7" width="3" height="3" transform="translate(-0.367 -0.313)" fill="#fff"/>
      </g>
    </g>
    <g id="Group_21" data-name="Group 21" transform="translate(10.735 29.547)">
      <g id="Group_20" data-name="Group 20" transform="translate(0 0)">
        <rect id="Rectangle_8" data-name="Rectangle 8" width="2" height="3" transform="translate(0.265 -0.313)" fill="#fff"/>
      </g>
    </g>
    <g id="Group_23" data-name="Group 23" transform="translate(75.91 29.547)">
      <g id="Group_22" data-name="Group 22" transform="translate(0 0)">
        <rect id="Rectangle_9" data-name="Rectangle 9" width="3" height="3" transform="translate(0.09 -0.313)" fill="#fff"/>
      </g>
    </g>
  </g>
</svg>
