<svg xmlns="http://www.w3.org/2000/svg" width="53.16" height="81.41" viewBox="0 0 53.16 81.41">
  <g id="explore-icon1" transform="translate(0.001 0)">
    <path id="Path_862" data-name="Path 862" d="M48.109,10.99a1.192,1.192,0,0,0-1.93,1.4,24.019,24.019,0,0,1,4.6,14.19,25.586,25.586,0,0,1-4.217,14c-4.079,6.251-6.8,10.848-7.429,17.514a1.866,1.866,0,0,1-1.347,1.63,1.094,1.094,0,0,0-.142.034,1.892,1.892,0,0,1-.363.035H15.882a1.9,1.9,0,0,1-.364-.035,1.177,1.177,0,0,0-.142-.034,1.865,1.865,0,0,1-1.346-1.63C13.4,51.426,10.68,46.83,6.6,40.579a25.581,25.581,0,0,1-4.217-14A24.195,24.195,0,0,1,43.1,8.9a1.193,1.193,0,0,0,1.629-1.743A26.58,26.58,0,0,0,0,26.58a27.96,27.96,0,0,0,4.6,15.3c3.884,5.954,6.474,10.314,7.052,16.435a4.246,4.246,0,0,0,2.321,3.412V72.922a3.475,3.475,0,0,0,2.245,3.246,5.471,5.471,0,0,0,5.46,5.243h9.795a5.471,5.471,0,0,0,5.46-5.243,3.474,3.474,0,0,0,2.245-3.246V61.729A4.243,4.243,0,0,0,41.5,58.317c.578-6.121,3.168-10.481,7.052-16.435a27.963,27.963,0,0,0,4.6-15.3,26.381,26.381,0,0,0-5.05-15.59ZM23.834,66.81H36.8v2.176H16.362V66.81h2.7a1.193,1.193,0,1,0,0-2.385h-2.7V62.177H36.8v2.248H23.835a1.193,1.193,0,0,0,0,2.385ZM35.77,74h-.037l-.05,0H17.475l-.05,0h-.038a1.086,1.086,0,0,1-1.025-1.082V71.371H36.8v1.551A1.086,1.086,0,0,1,35.771,74Zm-4.294,5.021H21.682a3.084,3.084,0,0,1-3.048-2.635H34.525a3.084,3.084,0,0,1-3.048,2.635Zm0,0" fill="#fff"/>
    <path id="Path_863" data-name="Path 863" d="M89.584,99.137a.352.352,0,0,1,.341-.249h.966a2.747,2.747,0,0,0,2.744-2.743V94.377a2.747,2.747,0,0,0-2.744-2.743H89.857a.353.353,0,0,1-.339-.243A13.694,13.694,0,0,0,88.434,88.8a.356.356,0,0,1,.063-.419l.741-.74a2.743,2.743,0,0,0,0-3.88l-1.25-1.25a2.745,2.745,0,0,0-3.88,0l-.74.741a.355.355,0,0,1-.419.063,13.684,13.684,0,0,0-2.587-1.084.353.353,0,0,1-.243-.339V80.862a2.747,2.747,0,0,0-2.743-2.744H75.607a2.747,2.747,0,0,0-2.743,2.744v.966a.353.353,0,0,1-.249.341,13.663,13.663,0,0,0-2.668,1.074.354.354,0,0,1-.412-.068l-.66-.661a2.743,2.743,0,0,0-3.88,0l-1.25,1.25a2.743,2.743,0,0,0,0,3.88l.593.593a.353.353,0,0,1,.063.42,13.691,13.691,0,0,0-1.166,2.731.36.36,0,0,1-.348.245h-.8a2.747,2.747,0,0,0-2.744,2.743v1.768a2.747,2.747,0,0,0,2.744,2.743h.733a.351.351,0,0,1,.343.247,13.673,13.673,0,0,0,1.155,2.82.352.352,0,0,1-.068.413l-.511.511a2.743,2.743,0,0,0,0,3.88l1.25,1.25a2.743,2.743,0,0,0,3.88,0l.511-.511a.35.35,0,0,1,.412-.068,13.676,13.676,0,0,0,2.82,1.155.352.352,0,0,1,.246.343v.734a2.746,2.746,0,0,0,2.743,2.743h1.768a2.747,2.747,0,0,0,2.743-2.743v-.8a.36.36,0,0,1,.245-.348,13.676,13.676,0,0,0,2.731-1.166.355.355,0,0,1,.42.063l.593.593a2.743,2.743,0,0,0,3.88,0l1.25-1.25a2.743,2.743,0,0,0,0-3.88l-.66-.661a.353.353,0,0,1-.068-.412,13.623,13.623,0,0,0,1.074-2.668Zm-2.294-.652a11.31,11.31,0,0,1-.886,2.2,2.72,2.72,0,0,0,.488,3.216l.66.661a.358.358,0,0,1,0,.507l-1.25,1.25a.359.359,0,0,1-.507,0l-.593-.593a2.745,2.745,0,0,0-3.276-.457,11.291,11.291,0,0,1-2.255.963,2.761,2.761,0,0,0-1.938,2.63v.8a.359.359,0,0,1-.358.358H75.607a.359.359,0,0,1-.358-.358v-.734a2.746,2.746,0,0,0-1.979-2.637,11.281,11.281,0,0,1-2.328-.953,2.7,2.7,0,0,0-1.3-.329,2.755,2.755,0,0,0-1.947.8l-.511.511a.358.358,0,0,1-.507,0l-1.25-1.25a.359.359,0,0,1,0-.507l.511-.511a2.748,2.748,0,0,0,.475-3.243,11.283,11.283,0,0,1-.953-2.328A2.746,2.746,0,0,0,62.825,96.5h-.734a.359.359,0,0,1-.358-.358V94.377a.359.359,0,0,1,.358-.358h.8a2.762,2.762,0,0,0,2.63-1.938,11.268,11.268,0,0,1,.962-2.255,2.746,2.746,0,0,0-.456-3.276l-.593-.593a.359.359,0,0,1,0-.507l1.25-1.25a.359.359,0,0,1,.507,0l.66.661a2.721,2.721,0,0,0,3.217.488,11.289,11.289,0,0,1,2.2-.886,2.747,2.747,0,0,0,1.982-2.636v-.966a.359.359,0,0,1,.359-.358h1.768a.359.359,0,0,1,.358.358v1.033a2.72,2.72,0,0,0,1.937,2.622,11.3,11.3,0,0,1,2.135.9,2.754,2.754,0,0,0,3.249-.47l.741-.741a.359.359,0,0,1,.507,0l1.25,1.25a.359.359,0,0,1,0,.507l-.74.74a2.755,2.755,0,0,0-.471,3.249,11.3,11.3,0,0,1,.9,2.135,2.719,2.719,0,0,0,2.622,1.936H90.89a.359.359,0,0,1,.358.359v1.768a.359.359,0,0,1-.358.358h-.966a2.748,2.748,0,0,0-2.635,1.983Zm0,0" transform="translate(-49.912 -65.697)" fill="#fff"/>
    <path id="Path_864" data-name="Path 864" d="M121.159,131.23a8.7,8.7,0,1,0,8.7,8.7A8.708,8.708,0,0,0,121.159,131.23Zm0,15.012a6.313,6.313,0,1,1,6.313-6.314A6.32,6.32,0,0,1,121.159,146.242Zm0,0" transform="translate(-94.58 -110.364)" fill="#fff"/>
  </g>
</svg>
