<svg xmlns="http://www.w3.org/2000/svg" width="79.961" height="81" viewBox="0 0 79.961 81">
  <g id="explore-icon2" transform="translate(-1 -1)">
    <path id="Path_865" data-name="Path 865" d="M35.707,23.825a2.884,2.884,0,0,1-5.159,0l-.135-.272-2.307,1.154.135.272a5.464,5.464,0,0,0,9.773,0l.135-.272-2.307-1.154Z" transform="translate(7.853 6.533)" fill="#fff"/>
    <path id="Path_866" data-name="Path 866" d="M37,17h2.579v2.579H37Z" transform="translate(10.429 4.635)" fill="#fff"/>
    <path id="Path_867" data-name="Path 867" d="M29,17h7.738v2.579H29Z" transform="translate(8.112 4.635)" fill="#fff"/>
    <path id="Path_868" data-name="Path 868" d="M25,17h2.579v2.579H25Z" transform="translate(6.953 4.635)" fill="#fff"/>
    <path id="Path_869" data-name="Path 869" d="M74.513,52.588a6.456,6.456,0,0,0,6.448-6.448V12.607a6.456,6.456,0,0,0-6.448-6.448H57.747V4.869A3.874,3.874,0,0,0,53.878,1H41.4A12.582,12.582,0,0,0,31.236,6.159H7.448A6.456,6.456,0,0,0,1,12.607V46.139a6.456,6.456,0,0,0,6.448,6.448h3.869V42.27H27.969a11.122,11.122,0,0,0-4.388,2.677,10.983,10.983,0,0,0-3.236,7.814v3.589C11.257,57.481,1,59.742,1,64.2v5.159c0,4.453,10.258,6.717,19.345,7.847V82l14.041-8.776-12.38-7.738H61.616V64.113c12.608,1.611,16.766,4.2,16.766,5.241h2.579V64.2c0-4.453-10.257-6.714-19.345-7.844V52.762a10.985,10.985,0,0,0-3.236-7.814,11.122,11.122,0,0,0-4.388-2.677H70.644V52.588Zm3.869-6.448a3.874,3.874,0,0,1-3.869,3.869h-1.29V19.056h1.29a6.423,6.423,0,0,0,3.869-1.292Zm-23.215-29.5a7.444,7.444,0,0,1-.173,1.514,2.569,2.569,0,0,0-2.1-1.642A12.258,12.258,0,0,0,54.8,14.686,5.538,5.538,0,0,1,55.167,16.635Zm-2.579,2.421v7.738H29.373V19.056ZM47.271,43.734,46.443,49.2l-3.382-2.03L46.6,43.637Zm-11.905-.1L38.9,47.174,35.519,49.2l-.828-5.468Zm9.346-1.764-3.731,3.731L37.25,41.874l.653-2.612a11.293,11.293,0,0,0,6.156,0Zm-3.731-4.763a9.034,9.034,0,0,1-8.925-7.738H49.905a9.034,9.034,0,0,1-8.925,7.738ZM34.059,16.476a6.908,6.908,0,0,1,2.5-2.241,10.564,10.564,0,0,0,1.972,2.241ZM41.4,3.579H53.878a1.292,1.292,0,0,1,1.29,1.29v1.7a10.117,10.117,0,0,1-1.7,5.624,9.6,9.6,0,0,1-8.006,4.284,8,8,0,0,1-7.194-4.446l-.5-1-1.061.353a9.5,9.5,0,0,0-5.621,5.093H29.373a2.576,2.576,0,0,0-2.407,1.673,7.444,7.444,0,0,1-.173-1.514,5.513,5.513,0,0,1,4.182-5.356l.686-.172.224-.672A10.014,10.014,0,0,1,41.4,3.579ZM8.738,50.009H7.448a3.874,3.874,0,0,1-3.869-3.869V17.763a6.423,6.423,0,0,0,3.869,1.292h1.29ZM7.448,16.476a3.869,3.869,0,0,1,0-7.738h22.33c-.034.081-.072.157-.1.24a8.086,8.086,0,0,0-5.459,7.657,10.026,10.026,0,0,0,1.429,5.159l1.15,1.918v3.082a2.582,2.582,0,0,0,2.579,2.579h.076a11.63,11.63,0,0,0,6.034,8.93l-.347,1.388H11.318V16.476Zm12.9,42.478v2.817c-6.9.864-12.351,2.154-15.572,3.682C3.95,64.943,3.579,64.5,3.579,64.2,3.579,63.153,7.737,60.565,20.345,58.954ZM22.925,69.1l6.594,4.121-6.594,4.121V74.907l-1.141-.133c-13.755-1.589-18.2-4.339-18.2-5.421V67.715c3.842,2.354,11.32,3.7,17.907,4.465l1.438.165Zm-2.579-3.618v3.957A65.117,65.117,0,0,1,8.059,66.9a66.672,66.672,0,0,1,12.287-2.529v1.117ZM78.382,64.2v1.639c-3.621-2.22-10.474-3.544-16.766-4.327V58.954C74.224,60.565,78.382,63.153,78.382,64.2ZM59.036,52.762V62.906H53.878V55.167H51.3v7.738H30.663V55.167H28.084v7.738H22.925V52.762a8.423,8.423,0,0,1,2.48-5.991A8.522,8.522,0,0,1,30.2,44.378l1.94-.277,1.408,9.294,6.147-3.687v5.461H42.27V49.707l6.145,3.687L49.824,44.1l1.941.277a8.514,8.514,0,0,1,4.79,2.394A8.417,8.417,0,0,1,59.036,52.762ZM46.824,39.691,46.477,38.3a11.626,11.626,0,0,0,6.034-8.93h.076a2.582,2.582,0,0,0,2.579-2.579V23.712l1.15-1.916a10.034,10.034,0,0,0,1.429-5.16A8.1,8.1,0,0,0,56.4,12.22a12.676,12.676,0,0,0,1.139-3.482h16.97a3.869,3.869,0,0,1,0,7.738H70.644V39.691Z" transform="translate(0)" fill="#fff"/>
    <path id="Path_870" data-name="Path 870" d="M11,27h2.579v2.579H11Z" transform="translate(2.897 7.532)" fill="#fff"/>
    <path id="Path_871" data-name="Path 871" d="M15,27h2.579v2.579H15Z" transform="translate(4.056 7.532)" fill="#fff"/>
    <path id="Path_872" data-name="Path 872" d="M11,23H21.318v2.579H11Z" transform="translate(2.897 6.373)" fill="#fff"/>
    <path id="Path_873" data-name="Path 873" d="M11,19H21.318v2.579H11Z" transform="translate(2.897 5.215)" fill="#fff"/>
    <path id="Path_874" data-name="Path 874" d="M51,21h2.579v2.579H51Z" transform="translate(14.485 5.794)" fill="#fff"/>
    <path id="Path_875" data-name="Path 875" d="M47,21h2.579v2.579H47Z" transform="translate(13.326 5.794)" fill="#fff"/>
    <path id="Path_876" data-name="Path 876" d="M47,17h7.738v2.579H47Z" transform="translate(13.326 4.635)" fill="#fff"/>
    <path id="Path_877" data-name="Path 877" d="M47,13h7.738v2.579H47Z" transform="translate(13.326 3.476)" fill="#fff"/>
    <path id="Path_878" data-name="Path 878" d="M55.794,55.76c-5.071.005-23.4.022-24.478,0L30,55.733v7.738l1.264.026c1.116.022,19.407,0,24.53,0v3.375l14.491-7.246L55.794,52.382Zm2.579,2.577V56.555l6.144,3.072L58.373,62.7V60.916H57.082c-.218,0-19.275.019-24.5.006V58.344c5.219.015,23.622-.005,24.506-.006Z" transform="translate(8.401 14.885)" fill="#fff"/>
  </g>
</svg>
