<svg xmlns="http://www.w3.org/2000/svg" width="46.065" height="49.149" viewBox="0 0 46.065 49.149">
  <path id="fruit-icon3" d="M181.087,288.272a7.679,7.679,0,0,0,2.964-6.143,9.661,9.661,0,0,0-4.009-7.111,7.679,7.679,0,0,0,.937-3.64c0-4.316-4.746-9.077-9.062-9.077a7.525,7.525,0,0,0-1.536.169,10,10,0,0,0-7.679-4.777,8.2,8.2,0,0,0-1.966.276l.261-1.536a1.536,1.536,0,0,0-2.749-1.183l-2.964,3.963-2.058-5.145a1.525,1.525,0,0,0-2.872.092l-2.55,7.679a15.235,15.235,0,0,1-6.835-7.679,1.536,1.536,0,0,0-2.9.968,17.923,17.923,0,0,0,7.219,8.739l-6.451,3.225a1.536,1.536,0,0,0-.108,2.688l5.483,3.287-5.483,3.3a1.536,1.536,0,0,0,1.044,2.826l1.536-.261a7.5,7.5,0,0,0-.292,1.951,10,10,0,0,0,4.777,7.679,7.5,7.5,0,0,0-.169,1.536c0,4.331,4.761,9.077,9.077,9.077a7.465,7.465,0,0,0,2.5-.445,9.461,9.461,0,0,0,6.712,3.517,7.679,7.679,0,0,0,6.143-2.964,9.215,9.215,0,0,0,6.143,2.964,7.818,7.818,0,0,0,7.817-7.818,9.215,9.215,0,0,0-2.934-6.159Zm-4.853,10.951a6.911,6.911,0,0,1-4.945-3.179,7.818,7.818,0,0,0,6.512-6.512,6.911,6.911,0,0,1,3.179,4.945,4.746,4.746,0,0,1-4.746,4.792Zm-12.287,0a6.143,6.143,0,0,1-3.993-2.027,7.849,7.849,0,0,0,2.5-4.761,5.718,5.718,0,0,0,.522-.292,10.981,10.981,0,0,0,4.608,3.548c.138.338.307.691.476,1.029a4.7,4.7,0,0,1-4.116,2.55Zm-15.19-9.369a7.033,7.033,0,0,0,1.367.154,7.465,7.465,0,0,0,2.5-.445,9.645,9.645,0,0,0,6.543,3.517,4.73,4.73,0,0,1-4.439,3.072,7.157,7.157,0,0,1-6.005-6.005.563.563,0,0,0,.031-.246Zm-.845-13.562a10.751,10.751,0,0,0,6.957,5.867h0a4.746,4.746,0,0,1-4.746,4.746,7.157,7.157,0,0,1-6.005-6.005,4.761,4.761,0,0,1,3.794-4.562Zm1.536-11.012h0a1.137,1.137,0,0,0,.307-.246l.123-.107a1.536,1.536,0,0,0,.261-.476l1.751-5.237,1.536,3.778a1.536,1.536,0,0,0,1.213.952.875.875,0,0,0,.4,0,8.74,8.74,0,0,0-.184,1.536,7.833,7.833,0,0,0-7.464,6.021l-4.715-2.841Zm25.173,10.705a10.6,10.6,0,0,0-3.794-5.468,7.68,7.68,0,0,0,.937-3.64,7.035,7.035,0,0,0-.154-1.367h.307a7.157,7.157,0,0,1,5.99,6.005,4.731,4.731,0,0,1-3.287,4.469Zm3.855,10.413a8.885,8.885,0,0,0-1.029-.476,10.981,10.981,0,0,0-3.548-4.608,7.172,7.172,0,0,0,.783-2.119,7.679,7.679,0,0,0,3.425-1.643,6.758,6.758,0,0,1,2.872,4.731A4.7,4.7,0,0,1,178.477,286.4Zm-8.386,6.727a6.758,6.758,0,0,1-4.73-2.872,7.818,7.818,0,0,0,1.8-4.807,7.818,7.818,0,0,0,4.807-1.8,6.758,6.758,0,0,1,2.872,4.731,4.746,4.746,0,0,1-4.746,4.746Zm-10.751-3.072a6.143,6.143,0,0,1-3.993-2.027,7.787,7.787,0,0,0,2.6-5.79h0a7.781,7.781,0,0,0,1.966-.753,11.042,11.042,0,0,0,4.1,3.3,3.612,3.612,0,0,1,0,.568,4.746,4.746,0,0,1-4.669,4.7ZM150.294,273.3a4.761,4.761,0,0,1,4.761-4.746,7.157,7.157,0,0,1,5.99,6.005A4.746,4.746,0,0,1,156.3,279.3,7.157,7.157,0,0,1,150.294,273.3Zm18.63-.4a6.758,6.758,0,0,1,2.872,4.73,4.746,4.746,0,0,1-4.746,4.746,6.758,6.758,0,0,1-4.73-2.872,7.818,7.818,0,0,0,1.8-4.807,7.817,7.817,0,0,0,4.777-1.782Zm-.2-6.021a4.746,4.746,0,0,1-4.746,4.746,3.865,3.865,0,0,1-.568-.077,11.15,11.15,0,0,0-5.345-5.345,3.845,3.845,0,0,1-.092-.584,4.761,4.761,0,0,1,4.761-4.746,7.157,7.157,0,0,1,5.99,6.005Z" transform="translate(-137.987 -253.1)" fill="#ed8e40"/>
</svg>
