<svg xmlns="http://www.w3.org/2000/svg" width="46.156" height="47.627" viewBox="0 0 46.156 47.627">
  <g id="fruit-icon2" transform="translate(0)">
    <path id="Path_387" data-name="Path 387" d="M325.455,177.793h0a16.741,16.741,0,0,0-11.427-7.679,1.382,1.382,0,0,0-.169-.983,1.536,1.536,0,0,0-1.643-.768l-9.323,1.92-1.29-3.963a1.573,1.573,0,0,0-2.826-.307L296,170.758a11.043,11.043,0,0,0-6.558-2.427,1.536,1.536,0,0,0,0,3.072,8.186,8.186,0,0,1,4.976,2.012l-8.908,5.929a1.536,1.536,0,0,0,.86,2.811h4.1l-2.457,8.816a1.5,1.5,0,0,0,1.49,1.935,16.311,16.311,0,0,0,6.358,13.009c6.051,4.608,14.882,6.973,26.263,6.973h1.367a7.234,7.234,0,0,0,7.034-6.328C331.89,194.979,330.216,185.3,325.455,177.793Zm1.935,28.4a4.131,4.131,0,0,1-4.024,3.625c-11.289.169-19.966-1.951-25.649-6.328a13.454,13.454,0,0,1-4.93-13.162L295,188.191a12.072,12.072,0,0,0,3.64,14.084c5.253,3.993,13.132,6.021,23.452,6.021h1.259a1.536,1.536,0,0,0,0-3.072h0c-10.213.184-17.893-1.659-22.777-5.376a9.031,9.031,0,0,1-2.4-11.12l3.978,5.161a1.536,1.536,0,0,0,1.213.6,1.735,1.735,0,0,0,.491-.077,1.536,1.536,0,0,0,1.044-1.459V182.016l10.935-1.367a1.539,1.539,0,0,0,.4-2.949l-6.574-2.657L311.632,173a13.608,13.608,0,0,1,11.2,6.435C327.221,186.363,328.757,195.332,327.39,206.191Zm-30.917-30.41h0a3.656,3.656,0,0,1,.645,1.843,1.536,1.536,0,1,0,3.072,0,7.679,7.679,0,0,0-1.935-4.608l1.444-2.442.753,1.966a1.536,1.536,0,0,0,1.766,1.029l5.79-1.2-2.058,2.135a1.535,1.535,0,0,0,.522,2.488l3.164,1.29-6.481.814a1.536,1.536,0,0,0-1.336,1.536v7.787l-3.84-4.992a1.536,1.536,0,0,0-1.106-.6h-.108a1.536,1.536,0,0,0-1.075.43l-3.072,3.072,1.536-5.207a1.536,1.536,0,0,0-1.474-1.966H291.6Z" transform="translate(-284.828 -165.26)" fill="#ed8e40"/>
    <path id="Path_388" data-name="Path 388" d="M301.843,181.454a1.542,1.542,0,1,0,2.181-2.181l-1.536-1.536a1.542,1.542,0,0,0-2.181,2.181Z" transform="translate(-276.775 -158.816)" fill="#ed8e40"/>
    <path id="Path_389" data-name="Path 389" d="M307.843,180.454a1.542,1.542,0,1,0,2.181-2.181l-1.536-1.536a1.542,1.542,0,1,0-2.181,2.181Z" transform="translate(-273.56 -159.352)" fill="#ed8e40"/>
    <path id="Path_390" data-name="Path 390" d="M304.024,186.263l-1.536-1.536a1.542,1.542,0,0,0-2.181,2.181l1.536,1.536a1.542,1.542,0,1,0,2.181-2.181Z" transform="translate(-276.775 -155.07)" fill="#ed8e40"/>
    <path id="Path_391" data-name="Path 391" d="M305.843,185.454a1.542,1.542,0,1,0,2.181-2.181l-1.536-1.536a1.542,1.542,0,0,0-2.181,2.181Z" transform="translate(-274.631 -156.672)" fill="#ed8e40"/>
    <path id="Path_392" data-name="Path 392" d="M309.308,184.919l1.536,1.536a1.542,1.542,0,1,0,2.181-2.181l-1.536-1.536a1.542,1.542,0,0,0-2.181,2.181Z" transform="translate(-271.952 -156.136)" fill="#ed8e40"/>
    <path id="Path_393" data-name="Path 393" d="M308.488,186.728a1.542,1.542,0,0,0-2.181,2.181l1.536,1.536a1.542,1.542,0,1,0,2.181-2.181Z" transform="translate(-273.56 -153.998)" fill="#ed8e40"/>
  </g>
</svg>
