<svg id="fruit-icon1" xmlns="http://www.w3.org/2000/svg" width="46.076" height="46.076" viewBox="0 0 46.076 46.076">
  <path id="Path_369" data-name="Path 369" d="M111.438,33.23a23.038,23.038,0,1,0,23.038,23.038A23.038,23.038,0,0,0,111.438,33.23Zm0,43A19.966,19.966,0,1,1,131.4,56.268,19.966,19.966,0,0,1,111.438,76.235Z" transform="translate(-88.4 -33.23)" fill="#ed8e40"/>
  <path id="Path_370" data-name="Path 370" d="M104.643,51.287a1.382,1.382,0,0,0,.722.2,1.29,1.29,0,0,0,.706-.2l9.215-6.712a1.244,1.244,0,0,0,.246-1.874,13.93,13.93,0,0,0-4.131-3.456,13.423,13.423,0,0,0-5.1-1.736h-.2a1.244,1.244,0,0,0-1.275,1.2l-.937,11.381a1.336,1.336,0,0,0,.753,1.2Zm3.072-10.321a10.643,10.643,0,0,1,2.166.968,10.475,10.475,0,0,1,1.951,1.352l-4.608,3.333Z" transform="translate(-80.1 -30.937)" fill="#ed8e40"/>
  <path id="Path_371" data-name="Path 371" d="M118.24,45.075a1.29,1.29,0,0,0-1.183-.845,1.244,1.244,0,0,0-.568.138l-10.382,4.761a1.428,1.428,0,0,0-.706,1.244,1.382,1.382,0,0,0,.706,1.229l10.382,4.761a1.09,1.09,0,0,0,.568.154,1.29,1.29,0,0,0,1.183-.86,14.729,14.729,0,0,0,0-10.582Zm-2.3,7.679-5.16-2.365,5.16-2.365a11.611,11.611,0,0,1,.215,2.365,11.839,11.839,0,0,1-.215,2.35Z" transform="translate(-79.29 -27.335)" fill="#ed8e40"/>
  <path id="Path_372" data-name="Path 372" d="M115.754,56.067l-9.614-6.144a1.321,1.321,0,0,0-.63-.154,1.536,1.536,0,0,0-.8.23,1.413,1.413,0,0,0-.66,1.275l1.536,11.289a1.213,1.213,0,0,0,1.244,1.121.891.891,0,0,0,.292,0,14.652,14.652,0,0,0,8.908-5.713,1.259,1.259,0,0,0-.276-1.9Zm-5.222,2.964a10.752,10.752,0,0,1-2.119,1.09l-.783-5.621,4.761,3.072A11.043,11.043,0,0,1,110.532,59.031Z" transform="translate(-80.015 -24.367)" fill="#ed8e40"/>
  <path id="Path_373" data-name="Path 373" d="M95.336,45.238l9.614,6.144a1.275,1.275,0,0,0,.645.169,1.428,1.428,0,0,0,.783-.246,1.352,1.352,0,0,0,.66-1.259l-1.536-11.3a1.259,1.259,0,0,0-1.259-1.121h-.292a13.531,13.531,0,0,0-5.038,2.12A13.823,13.823,0,0,0,95,43.426a1.244,1.244,0,0,0,.338,1.812Zm5.237-2.949a10.659,10.659,0,0,1,2.1-1.014l.8,5.606L98.7,43.81a11.043,11.043,0,0,1,1.874-1.521Z" transform="translate(-85 -30.878)" fill="#ed8e40"/>
  <path id="Path_374" data-name="Path 374" d="M106.223,50.374a1.4,1.4,0,0,0-.707-1.244L95.134,44.368a1.183,1.183,0,0,0-.553-.138,1.321,1.321,0,0,0-1.2.845,14.729,14.729,0,0,0,0,10.582,1.305,1.305,0,0,0,1.2.86,1.044,1.044,0,0,0,.553-.154L105.516,51.6A1.352,1.352,0,0,0,106.223,50.374ZM95.7,52.739a10.752,10.752,0,0,1-.23-2.365,10.536,10.536,0,0,1,.23-2.365l5.145,2.365Z" transform="translate(-86.257 -27.335)" fill="#ed8e40"/>
  <path id="Path_375" data-name="Path 375" d="M106.33,50.07a1.536,1.536,0,0,0-.722-.2,1.352,1.352,0,0,0-.706.215l-9.215,6.7a1.244,1.244,0,0,0-.246,1.874,13.454,13.454,0,0,0,4.1,3.41,13.592,13.592,0,0,0,5.1,1.736h.215a1.213,1.213,0,0,0,1.259-1.183l.952-11.381A1.413,1.413,0,0,0,106.33,50.07Zm-3.072,10.336a10.75,10.75,0,0,1-2.181-1.014,11.257,11.257,0,0,1-1.951-1.352l4.608-3.333Z" transform="translate(-84.798 -24.313)" fill="#ed8e40"/>
</svg>
