<svg xmlns="http://www.w3.org/2000/svg" width="121.591" height="149.486" viewBox="0 0 121.591 149.486">
  <g id="grape-fruit" transform="translate(1.76 2.246)">
    <ellipse id="Ellipse_51" data-name="Ellipse 51" cx="17.878" cy="17.877" rx="17.878" ry="17.877" transform="translate(82.316 23.696)" fill="#6e7280" stroke="#3c4b75" stroke-miterlimit="10" stroke-width="3.52"/>
    <path id="Path_119" data-name="Path 119" d="M295.76,417.48s5.854,16.543,34.4,13.534c-15.794,2.259-8.839,1.065-17.2,33.952" transform="translate(-256.212 -417.48)" fill="none" stroke="#a58c72" stroke-linecap="round" stroke-linejoin="round" stroke-width="3.52"/>
    <ellipse id="Ellipse_52" data-name="Ellipse 52" cx="17.877" cy="17.878" rx="17.877" ry="17.878" transform="translate(33.11 139.466) rotate(-80.74)" fill="#6e7280" stroke="#3c4b75" stroke-miterlimit="10" stroke-width="3.52"/>
    <ellipse id="Ellipse_53" data-name="Ellipse 53" cx="17.877" cy="17.878" rx="17.877" ry="17.878" transform="matrix(0.228, -0.974, 0.974, 0.228, 17.162, 112.23)" fill="#6e7280" stroke="#3c4b75" stroke-miterlimit="10" stroke-width="3.52"/>
    <ellipse id="Ellipse_54" data-name="Ellipse 54" cx="17.877" cy="17.878" rx="17.877" ry="17.878" transform="matrix(0.153, -0.988, 0.988, 0.153, 51.509, 116.361)" fill="#6e7280" stroke="#3c4b75" stroke-miterlimit="10" stroke-width="3.52"/>
    <ellipse id="Ellipse_55" data-name="Ellipse 55" cx="17.877" cy="17.878" rx="17.877" ry="17.878" transform="matrix(0.228, -0.974, 0.974, 0.228, 63.716, 85.622)" fill="#6e7280" stroke="#3c4b75" stroke-miterlimit="10" stroke-width="3.52"/>
    <ellipse id="Ellipse_56" data-name="Ellipse 56" cx="17.878" cy="17.877" rx="17.878" ry="17.877" transform="translate(32.706 62.777) rotate(-22.72)" fill="#6e7280" stroke="#3c4b75" stroke-miterlimit="10" stroke-width="3.52"/>
    <ellipse id="Ellipse_57" data-name="Ellipse 57" cx="17.878" cy="17.877" rx="17.878" ry="17.877" transform="translate(10.806 51.139)" fill="#6e7280" stroke="#3c4b75" stroke-miterlimit="10" stroke-width="3.52"/>
    <ellipse id="Ellipse_58" data-name="Ellipse 58" cx="17.878" cy="17.877" rx="17.878" ry="17.877" transform="translate(0 21.202)" fill="#6e7280" stroke="#3c4b75" stroke-miterlimit="10" stroke-width="3.52"/>
    <ellipse id="Ellipse_59" data-name="Ellipse 59" cx="17.878" cy="17.877" rx="17.878" ry="17.877" transform="translate(56.536 23.696)" fill="#6e7280" stroke="#3c4b75" stroke-miterlimit="10" stroke-width="3.52"/>
    <ellipse id="Ellipse_60" data-name="Ellipse 60" cx="17.878" cy="17.877" rx="17.878" ry="17.877" transform="translate(31.599 23.696)" fill="#6e7280" stroke="#3c4b75" stroke-miterlimit="10" stroke-width="3.52"/>
    <path id="Path_120" data-name="Path 120" d="M331.745,458.252a3.1,3.1,0,1,1-3.1-3.1,3.1,3.1,0,0,1,3.1,3.1Z" transform="translate(-251.127 -411.047)" fill="#3c4b75"/>
    <path id="Path_121" data-name="Path 121" d="M278.475,452.572a3.1,3.1,0,1,1-3.1-3.1A3.1,3.1,0,0,1,278.475,452.572Z" transform="translate(-260.223 -412.017)" fill="#3c4b75"/>
    <path id="Path_122" data-name="Path 122" d="M288.425,481.692a3.1,3.1,0,1,1-3.1-3.1A3.1,3.1,0,0,1,288.425,481.692Z" transform="translate(-258.524 -407.045)" fill="#3c4b75"/>
    <path id="Path_123" data-name="Path 123" d="M313.275,484.532a3.1,3.1,0,1,1-3.1-3.1A3.1,3.1,0,0,1,313.275,484.532Z" transform="translate(-254.281 -406.56)" fill="#3c4b75"/>
    <ellipse id="Ellipse_61" data-name="Ellipse 61" cx="3.103" cy="3.103" rx="3.103" ry="3.103" transform="translate(81.895 74.87)" fill="#3c4b75"/>
    <path id="Path_124" data-name="Path 124" d="M325.355,509.392a3.1,3.1,0,1,1-3.1-3.1A3.1,3.1,0,0,1,325.355,509.392Z" transform="translate(-252.218 -402.315)" fill="#3c4b75"/>
    <ellipse id="Ellipse_62" data-name="Ellipse 62" cx="3.103" cy="3.103" rx="3.103" ry="3.103" transform="translate(35.334 100.65)" fill="#3c4b75"/>
    <path id="Path_125" data-name="Path 125" d="M310.435,530.691a3.091,3.091,0,1,1-.909-2.19A3.1,3.1,0,0,1,310.435,530.691Z" transform="translate(-254.765 -398.676)" fill="#3c4b75"/>
    <path id="Path_126" data-name="Path 126" d="M307.6,458.252a3.091,3.091,0,1,1-.905-2.2A3.1,3.1,0,0,1,307.6,458.252Z" transform="translate(-255.25 -411.047)" fill="#3c4b75"/>
    <path id="Path_127" data-name="Path 127" d="M356.605,453.283a3.1,3.1,0,1,1-3.1-3.1A3.1,3.1,0,0,1,356.605,453.283Z" transform="translate(-246.881 -411.896)" fill="#3c4b75"/>
  </g>
</svg>
