<svg xmlns="http://www.w3.org/2000/svg" width="99.17" height="112.311" viewBox="0 0 99.17 112.311">
  <g id="innovate-icon" transform="translate(-29.931)">
    <path id="Path_941" data-name="Path 941" d="M263.479,188.642v4.56a3.113,3.113,0,0,0,3.11,3.11h.634v9.044l-3.519,3.519a1.647,1.647,0,0,0-.482,1.164v3.65a1.646,1.646,0,1,0,3.293,0V210.72l3.519-3.519a1.647,1.647,0,0,0,.482-1.164v-9.726h.634a3.113,3.113,0,0,0,3.11-3.11v-4.56a3.113,3.113,0,0,0-3.11-3.11h-4.56A3.113,3.113,0,0,0,263.479,188.642Zm3.293.183h4.194v4.194h-4.194Z" transform="translate(-182.076 -144.802)" fill="#1a1a1a"/>
    <path id="Path_942" data-name="Path 942" d="M161.255,174.949a3.113,3.113,0,0,0-3.11,3.11v5.55a3.113,3.113,0,0,0,3.11,3.11h5.55a3.113,3.113,0,0,0,3.11-3.11v-5.55a3.113,3.113,0,0,0-3.11-3.11Zm5.366,8.476h-5.183v-5.183h5.183Z" transform="translate(-100.067 -136.543)" fill="#1a1a1a"/>
    <path id="Path_943" data-name="Path 943" d="M189.767,114.1v3.368a3.113,3.113,0,0,0,3.11,3.11h3.368a3.113,3.113,0,0,0,3.11-3.11V114.1a3.113,3.113,0,0,0-3.11-3.11h-3.368A3.113,3.113,0,0,0,189.767,114.1Zm3.293.183h3v3h-3Z" transform="translate(-124.747 -86.624)" fill="#1a1a1a"/>
    <path id="Path_944" data-name="Path 944" d="M39.519,260.988a3.113,3.113,0,0,0-3.11-3.11H33.041a3.113,3.113,0,0,0-3.11,3.11v3.368a3.113,3.113,0,0,0,3.11,3.11h3.368a3.113,3.113,0,0,0,3.11-3.11Zm-3.293,3.185h-3v-3h3v3Z" transform="translate(0 -201.266)" fill="#1a1a1a"/>
    <path id="Path_945" data-name="Path 945" d="M79.822,330.253H74.3a3.113,3.113,0,0,0-3.11,3.11v5.52a3.113,3.113,0,0,0,3.11,3.11h5.521a3.113,3.113,0,0,0,3.11-3.11v-5.52A3.113,3.113,0,0,0,79.822,330.253Zm-.183,8.447H74.485v-5.154h5.154Z" transform="translate(-32.203 -257.753)" fill="#1a1a1a"/>
    <path id="Path_946" data-name="Path 946" d="M216.733,187.235a37.267,37.267,0,0,0-.278-4.531,1.646,1.646,0,0,0-3.268.4,33.945,33.945,0,0,1,.253,4.129,33.192,33.192,0,0,1-10.449,24.3A46.274,46.274,0,0,0,192.1,227.554h-1.872v-9.218l7.372-7.372a1.646,1.646,0,0,0,.482-1.164v-4.148a2.762,2.762,0,0,0,2.729-2.758v-3.6a2.763,2.763,0,0,0-2.76-2.76h-3.6a2.763,2.763,0,0,0-2.76,2.76v3.6a2.763,2.763,0,0,0,2.76,2.76h.337v3.465l-7.372,7.372a1.646,1.646,0,0,0-.482,1.164v9.9H183.3V217.369a1.646,1.646,0,0,0-3.293,0v10.184h-5.447V207.086h.634a3.113,3.113,0,0,0,3.11-3.11v-4.56a3.113,3.113,0,0,0-3.11-3.11h-4.56a3.113,3.113,0,0,0-3.11,3.11v4.56a3.113,3.113,0,0,0,3.11,3.11h.634v20.468h-3.487a47.591,47.591,0,0,0-8.3-13.279,1.646,1.646,0,0,0-2.473,2.174,44.405,44.405,0,0,1,7.423,11.642,5.656,5.656,0,0,0,2.126,10.771v2.348a4.793,4.793,0,0,0,3.2,4.515,9.445,9.445,0,0,0,9.33,8.055H180.8a9.445,9.445,0,0,0,9.33-8.055,4.792,4.792,0,0,0,3.2-4.515v-2.348a5.656,5.656,0,0,0,2.118-10.774,42.916,42.916,0,0,1,9.81-14.158A36.454,36.454,0,0,0,216.733,187.235Zm-21.747,12.593h2.532v2.532h-2.532Zm-24.171-.229h4.194v4.194h-4.194Zm9.982,50.886h-1.708a6.149,6.149,0,0,1-5.914-4.492h13.536A6.15,6.15,0,0,1,180.8,250.485Zm12.256-14.91h-5.429a1.646,1.646,0,0,0,0,3.293h2.411v2.341a1.494,1.494,0,0,1-1.492,1.492h-17.2a1.494,1.494,0,0,1-1.492-1.492v-2.341h10.757a1.646,1.646,0,1,0,0-3.293H166.833a2.363,2.363,0,0,1-.161-4.72h.06l.112-.006h26.195l.108.006h.064a2.362,2.362,0,0,1-.157,4.72Z" transform="translate(-98.861 -141.467)" fill="#1a1a1a"/>
    <path id="Path_947" data-name="Path 947" d="M98.647,129.687a33.2,33.2,0,0,1,6.328-19.554,1.646,1.646,0,0,0-2.669-1.928,36.724,36.724,0,0,0,2.038,45.572,1.646,1.646,0,1,0,2.487-2.158A33.472,33.472,0,0,1,98.647,129.687Z" transform="translate(-51.061 -83.918)" fill="#1a1a1a"/>
    <path id="Path_948" data-name="Path 948" d="M217.988,45.256a1.657,1.657,0,0,0,.4-.05,33.219,33.219,0,0,1,8.255-1.014,33.9,33.9,0,0,1,5.113.4,1.646,1.646,0,0,0,.506-3.254,37.174,37.174,0,0,0-5.612-.439,36.42,36.42,0,0,0-9.069,1.114,1.647,1.647,0,0,0,.4,3.243Z" transform="translate(-145.489 -31.92)" fill="#1a1a1a"/>
    <path id="Path_949" data-name="Path 949" d="M147.4,57.814h6.418a3.113,3.113,0,0,0,3.11-3.11V48.286a3.113,3.113,0,0,0-3.11-3.11H147.4a3.113,3.113,0,0,0-3.11,3.11V54.7A3.113,3.113,0,0,0,147.4,57.814Zm.183-9.345h6.052v6.052h-6.052Z" transform="translate(-89.256 -35.259)" fill="#1a1a1a"/>
    <path id="Path_950" data-name="Path 950" d="M389.983,356.183h-7.107a3.113,3.113,0,0,0-3.11,3.11V366.4a3.113,3.113,0,0,0,3.11,3.11h7.107a3.113,3.113,0,0,0,3.11-3.11v-7.107A3.113,3.113,0,0,0,389.983,356.183Zm-.183,10.034h-6.741v-6.741H389.8Z" transform="translate(-273.036 -277.991)" fill="#1a1a1a"/>
    <path id="Path_951" data-name="Path 951" d="M439.906,292.583h-4.181a3.113,3.113,0,0,0-3.11,3.11v4.181a3.113,3.113,0,0,0,3.11,3.11h4.181a3.113,3.113,0,0,0,3.11-3.11v-4.181A3.113,3.113,0,0,0,439.906,292.583Zm-.183,7.107h-3.815v-3.814h3.815Z" transform="translate(-314.283 -228.353)" fill="#1a1a1a"/>
    <path id="Path_952" data-name="Path 952" d="M85.846,10.63h3.871a3.113,3.113,0,0,0,3.11-3.11V3.65A3.113,3.113,0,0,0,89.717.54H85.846a3.113,3.113,0,0,0-3.11,3.11V7.521A3.113,3.113,0,0,0,85.846,10.63Zm.183-6.8h3.5v3.5h-3.5Z" transform="translate(-41.213 -0.421)" fill="#1a1a1a"/>
    <path id="Path_953" data-name="Path 953" d="M39.824,74.049h3.014a3.113,3.113,0,0,0,3.11-3.11V67.926a3.113,3.113,0,0,0-3.11-3.11H39.824a3.113,3.113,0,0,0-3.11,3.11V70.94a3.113,3.113,0,0,0,3.11,3.11Zm.183-5.94h2.648v2.648H40.007Z" transform="translate(-5.294 -50.587)" fill="#1a1a1a"/>
    <path id="Path_954" data-name="Path 954" d="M375.468,46.927H362.551a1.646,1.646,0,0,0-1.646,1.646V61.49a1.646,1.646,0,0,0,1.646,1.646h12.916a1.646,1.646,0,0,0,1.646-1.646V48.573A1.646,1.646,0,0,0,375.468,46.927Zm-1.646,12.916H364.2V50.22h9.624Z" transform="translate(-258.316 -36.625)" fill="#1a1a1a"/>
    <path id="Path_955" data-name="Path 955" d="M349.145,20.053a1.646,1.646,0,0,0,0-3.293h-2.07V12.2h2.07a1.646,1.646,0,0,0,0-3.293h-2.07V8.836a5.126,5.126,0,0,0-5.12-5.12h-.074V1.646a1.646,1.646,0,1,0-3.293,0V3.716h-4.556V1.646a1.646,1.646,0,0,0-3.293,0V3.716h-4.557V1.646a1.646,1.646,0,0,0-3.293,0V3.716h-.074a5.126,5.126,0,0,0-5.12,5.12v.074h-2.069a1.646,1.646,0,0,0,0,3.293h2.069V16.76h-2.069a1.646,1.646,0,0,0,0,3.293h2.069v4.557h-2.069a1.646,1.646,0,0,0,0,3.293h2.069v.074a5.126,5.126,0,0,0,5.12,5.12h.074v2.069a1.646,1.646,0,1,0,3.293,0V33.1h4.557v2.069a1.646,1.646,0,1,0,3.293,0V33.1h4.557v2.069a1.646,1.646,0,1,0,3.293,0V33.1h.074a5.126,5.126,0,0,0,5.12-5.12V27.9h2.07a1.646,1.646,0,0,0,0-3.293h-2.07V20.053Zm-5.363,7.924a1.829,1.829,0,0,1-1.827,1.827h-19.14a1.829,1.829,0,0,1-1.827-1.827V8.836a1.829,1.829,0,0,1,1.827-1.827h19.14a1.829,1.829,0,0,1,1.827,1.827Z" transform="translate(-221.69)" fill="#1a1a1a"/>
  </g>
</svg>
