<svg xmlns="http://www.w3.org/2000/svg" width="112.79" height="112.879" viewBox="0 0 112.79 112.879">
  <g id="learn-icon" transform="translate(-0.203)">
    <path id="Path_930" data-name="Path 930" d="M112.993,298.411v-9.933H102.4v-6.622H98.866v-5.518H102.4v-9.933H75.99v3.311h23.1v3.311h-68.5v3.311H95.555v5.518H23.489a2.759,2.759,0,1,1,0-5.518h3.784v-3.311H23.489a6.07,6.07,0,1,0,0,12.14h75.6v3.311H42.03v3.311h67.652V295.1H16.205a9.381,9.381,0,1,0,0,18.761H94.183v-3.311H16.205a6.07,6.07,0,1,1,0-12.14H106.15v5.518H32.76v3.311h73.39v3.311H97.494v3.311h12.187v3.311H16.205a12.692,12.692,0,0,1,0-25.383H38.719v-3.311H23.489a9.381,9.381,0,0,1,0-18.761h49.19v-3.311H23.489a12.685,12.685,0,0,0-8.483,22.122,16,16,0,0,0,1.2,31.955h96.787v-9.933h-3.532v-12.14Z" transform="translate(0 -207.604)" fill="#1a1a1a"/>
    <path id="Path_931" data-name="Path 931" d="M117.7,436.406h3.311v3.311H117.7Z" transform="translate(-91.565 -340.081)" fill="#1a1a1a"/>
    <path id="Path_932" data-name="Path 932" d="M71.016,49.2l.737.492c.287.192,7.245,4.693,25.2,4.693s24.91-4.5,25.2-4.693l.737-.492V21.332l9.933-3.311V33.65a6.08,6.08,0,0,0-4.414,5.839v8.277h12.14V39.489a6.08,6.08,0,0,0-4.414-5.839V16.917l5.787-1.929-17.385-5.8-1.047,3.141,7.963,2.654-34.5,11.5-34.5-11.5,34.5-11.5,23.392,7.8,1.047-3.141L96.951,0,51.986,14.988l19.03,6.343Zm66.217-9.715v4.966h-5.518V39.489a2.759,2.759,0,1,1,5.518,0ZM74.327,22.435l22.624,7.541,22.624-7.541v12.97h-4.083v3.311h4.083v3.311H112.4v3.311h7.174v2c-2.134,1.039-9,3.743-22.624,3.743s-20.5-2.708-22.624-3.742Z" transform="translate(-40.353)" fill="#1a1a1a"/>
    <path id="Path_933" data-name="Path 933" d="M87.7,436.406h3.311v3.311H87.7Z" transform="translate(-68.187 -340.081)" fill="#1a1a1a"/>
    <path id="Path_934" data-name="Path 934" d="M295.7,190.406h3.311v3.311H295.7Z" transform="translate(-230.276 -148.379)" fill="#1a1a1a"/>
  </g>
</svg>
