<svg xmlns="http://www.w3.org/2000/svg" width="10.813" height="12.771" viewBox="0 0 10.813 12.771">
  <g id="location-white-icon" transform="translate(-60.96 -187.774)">
    <path id="Path_4" data-name="Path 4" d="M74.418,195.24a2.038,2.038,0,1,0,2.038,2.038A2.038,2.038,0,0,0,74.418,195.24Zm0,3.07a1.032,1.032,0,1,1,1.032-1.032,1.032,1.032,0,0,1-1.032,1.032Zm0,0" transform="translate(-8.053 -5.264)" fill="#fff"/>
    <path id="Path_5" data-name="Path 5" d="M68.22,196.943c.147-.159.295-.324.451-.5a6.871,6.871,0,0,0,2.046-4.184v-.245a4.352,4.352,0,0,0-8.7,0v.251a6.854,6.854,0,0,0,2.046,4.184c.15.177.295.342.451.5-1.407.153-3.553.59-3.553,1.749,0,.625.607,1.106,1.8,1.436a16.017,16.017,0,0,0,7.2,0c1.2-.33,1.808-.811,1.808-1.436,0-1.179-2.138-1.6-3.538-1.749Zm-5.184-4.68v-.245a3.347,3.347,0,0,1,6.691,0v.245a6.042,6.042,0,0,1-1.793,3.515,17.453,17.453,0,0,1-1.554,1.572,18.008,18.008,0,0,1-1.542-1.56,6.047,6.047,0,0,1-1.8-3.538ZM69.5,199.22a15.411,15.411,0,0,1-6.233,0,2.57,2.57,0,0,1-1.256-.522,2.256,2.256,0,0,1,.958-.442,11.65,11.65,0,0,1,2.489-.389c.342.316.59.507.59.522l.316.259.318-.259c.021-.015.251-.206.59-.522a11.824,11.824,0,0,1,2.495.372,2.288,2.288,0,0,1,.967.445,2.783,2.783,0,0,1-1.259.522Zm0,0" transform="translate(0)" fill="#fff"/>
  </g>
</svg>
