<svg xmlns="http://www.w3.org/2000/svg" width="66" height="66" viewBox="0 0 66 66">
  <g id="location_icon" data-name="location icon" transform="translate(-582 -5788)">
    <circle id="Ellipse_40" data-name="Ellipse 40" cx="33" cy="33" r="33" transform="translate(582 5788)" fill="#fff"/>
    <g id="placeholder" transform="translate(605.293 5806.432)">
      <g id="Group_62" data-name="Group 62" transform="translate(0)">
        <g id="Group_61" data-name="Group 61">
          <path id="Path_614" data-name="Path 614" d="M86.051,0A10.052,10.052,0,0,0,77.5,15.336l7.978,12.857a.838.838,0,0,0,.712.4H86.2a.837.837,0,0,0,.712-.407L94.683,15.2A10.053,10.053,0,0,0,86.051,0Zm7.2,14.34-7.069,11.8L78.924,14.453a8.381,8.381,0,1,1,14.322-.113Z" transform="translate(-76)"/>
        </g>
      </g>
      <g id="Group_64" data-name="Group 64" transform="translate(5.025 5.025)">
        <g id="Group_63" data-name="Group 63">
          <path id="Path_615" data-name="Path 615" d="M171.025,90a5.025,5.025,0,1,0,5.025,5.025A5.031,5.031,0,0,0,171.025,90Zm0,8.387a3.361,3.361,0,1,1,3.356-3.361A3.364,3.364,0,0,1,171.025,98.387Z" transform="translate(-166 -90)"/>
        </g>
      </g>
    </g>
  </g>
</svg>
