<svg xmlns="http://www.w3.org/2000/svg" width="26.533" height="28.945" viewBox="0 0 26.533 28.945">
  <g id="login-icon" transform="translate(-21.333)">
    <g id="Group_4" data-name="Group 4" transform="translate(21.333)">
      <g id="Group_3" data-name="Group 3" transform="translate(0)">
        <path id="Path_4" data-name="Path 4" d="M29.951,156.762a.6.6,0,0,0,.853.853L34.422,154a.6.6,0,0,0,.13-.2.594.594,0,0,0,.027-.13.565.565,0,0,0,.021-.1.572.572,0,0,0-.027-.129.551.551,0,0,0-.021-.1.633.633,0,0,0-.134-.2L30.8,149.525a.6.6,0,0,0-.853.853l2.587,2.588h-10.6a.6.6,0,1,0,0,1.206h10.6Z" transform="translate(-21.333 -140.906)" fill="#fff"/>
        <path id="Path_5" data-name="Path 5" d="M145.9,0a2.56,2.56,0,0,0-.274.028A.591.591,0,0,0,145.488,0H131.015A3.019,3.019,0,0,0,128,3.015v6.03a.6.6,0,0,0,1.206,0V3.015a1.811,1.811,0,0,1,1.809-1.809H142.55l-4.529,1.941a2.6,2.6,0,0,0-1.579,2.394V24.121h-5.427a2.508,2.508,0,0,1-1.784-.853l-.025-6.989a.6.6,0,0,0-.6-.6h0a.6.6,0,0,0-.6.605l.028,7.028a1.132,1.132,0,0,0,.377.844,3.716,3.716,0,0,0,2.61,1.171h5.427v1.014a2.6,2.6,0,0,0,3.629,2.394l6.853-2.937A2.6,2.6,0,0,0,148.5,23.4V2.6A2.607,2.607,0,0,0,145.9,0Zm1.4,23.4a1.4,1.4,0,0,1-.848,1.284L139.6,27.626a1.365,1.365,0,0,1-.55.113,1.4,1.4,0,0,1-1.4-1.4V5.541a1.4,1.4,0,0,1,.848-1.284l6.853-2.937a1.365,1.365,0,0,1,.55-.113,1.4,1.4,0,0,1,1.4,1.4Z" transform="translate(-121.97)" fill="#fff"/>
        <path id="Path_6" data-name="Path 6" d="M320.6,234.667a.6.6,0,0,0-.6.6v2.412a.6.6,0,1,0,1.206,0V235.27A.6.6,0,0,0,320.6,234.667Z" transform="translate(-303.115 -221.4)" fill="#fff"/>
      </g>
    </g>
  </g>
</svg>
