<svg xmlns="http://www.w3.org/2000/svg" width="63" height="40" viewBox="0 0 63 40">
  <g id="maestro" transform="translate(0 0.308)">
    <g id="maestro-2" data-name="maestro" transform="translate(0 0)">
      <rect id="Rectangle-1" width="63" height="40" rx="20" transform="translate(0 -0.308)" fill="rgba(0,0,0,0)"/>
      <path id="Fill-1" d="M346.264,71.113A15.113,15.113,0,1,1,331.151,56a15.113,15.113,0,0,1,15.113,15.115" transform="translate(-289.426 -51.608)" fill="#d9222a" fill-rule="evenodd"/>
      <path id="Fill-2" d="M98.735,80.711a14.989,14.989,0,0,1-1.151-1.6h5.356a15.03,15.03,0,0,0,.871-1.6h-7.1a15.006,15.006,0,0,1-.64-1.6h8.376a15.221,15.221,0,0,0,.438-8H95.636a15.032,15.032,0,0,1,.439-1.6h8.373a15.277,15.277,0,0,0-.639-1.6H96.715a15.231,15.231,0,0,1,.87-1.6h5.353a15.282,15.282,0,0,0-1.151-1.6h-3.05a15.256,15.256,0,0,1,1.525-1.6,15.119,15.119,0,1,0,1.527,20.8H98.735" transform="translate(-68.685 -51.608)" fill="#0097d0" fill-rule="evenodd"/>
      <path id="Fill-3" d="M651.075,330.236a.488.488,0,1,1,.488.488.488.488,0,0,1-.488-.488Zm.488.371a.371.371,0,1,0-.371-.371.371.371,0,0,0,.371.371Zm-.066-.157h-.1v-.429h.181a.194.194,0,0,1,.109.022.129.129,0,0,1,.054.107.117.117,0,0,1-.074.111l.078.189h-.111l-.065-.169H651.5v.169Zm0-.243h.055a.127.127,0,0,0,.061-.008.06.06,0,0,0,.025-.05.055.055,0,0,0-.024-.043.134.134,0,0,0-.064-.008H651.5v.11Z" transform="translate(-596.251 -302.307)" fill-rule="evenodd"/>
      <path id="Fill-4" d="M316.605,215.894a7.338,7.338,0,0,1-1.931.253c-2.107,0-3.2-.961-3.2-2.8a3.424,3.424,0,0,1,3.292-3.72A2.256,2.256,0,0,1,317.3,211.9a5.9,5.9,0,0,1-.231,1.541h-3.746c-.133.9.521,1.289,1.635,1.289a5,5,0,0,0,1.939-.388l-.3,1.553Zm-1.007-3.718c0-.135.208-1.1-.876-1.118-.6,0-1.028.4-1.2,1.118Z" transform="translate(-285.244 -192.304)" fill-rule="evenodd"/>
      <path id="Fill-5" d="M379.637,211.759c0,.792.446,1.339,1.459,1.746.775.318.9.409.9.692,0,.393-.342.573-1.1.568a6.274,6.274,0,0,1-1.706-.244l-.272,1.444a10.88,10.88,0,0,0,1.991.184c2.023,0,2.957-.662,2.957-2.094a1.729,1.729,0,0,0-1.35-1.744c-.8-.321-.9-.39-.9-.681,0-.341.318-.514.939-.514a12.506,12.506,0,0,1,1.379.093l.274-1.452a14.778,14.778,0,0,0-1.69-.125c-2.143,0-2.885.965-2.878,2.124" transform="translate(-347.007 -192.308)" fill-rule="evenodd"/>
      <path id="Fill-6" d="M242.228,216.044h-1.572l.038-.658a2.521,2.521,0,0,1-1.984.761,1.639,1.639,0,0,1-1.728-1.709c0-1.532,1.221-2.416,3.32-2.416a7.315,7.315,0,0,1,.772.047,1.351,1.351,0,0,0,.074-.4c0-.419-.33-.574-1.214-.574a7.253,7.253,0,0,0-2,.279l.268-1.406a8.586,8.586,0,0,1,2.259-.332c1.625,0,2.484.637,2.484,1.835a7.066,7.066,0,0,1-.153,1.242c-.064.409-.514,2.777-.561,3.336Zm-1.379-2.795a3.59,3.59,0,0,0-.422-.026c-1.072,0-1.615.319-1.615.949a.617.617,0,0,0,.679.643,1.446,1.446,0,0,0,1.359-1.565Z" transform="translate(-217.028 -192.304)" fill-rule="evenodd"/>
      <path id="Fill-7" d="M446.083,201.2a4.887,4.887,0,0,1-1.352.2c-.963,0-1.488-.492-1.488-1.368a13.121,13.121,0,0,1,.258-1.662c.053-.311.887-4.841.887-4.841h1.87l-.283,1.5h.959l-.261,1.53h-.963s-.529,2.655-.529,2.857c0,.322.2.462.643.462a1.8,1.8,0,0,0,.508-.058l-.249,1.379" transform="translate(-405.917 -177.564)" fill-rule="evenodd"/>
      <path id="Fill-8" d="M491.879,209.518a3.516,3.516,0,0,0-3.064,1.507l.54-1.4c-1-.365-1.636.156-2.217.9,0,0-.1.123-.194.236v-1.1h-1.756c-.238,1.939-.659,3.905-.988,5.848l-.079.423h1.889c.179-.986.326-1.786.473-2.424.4-1.75,1.077-2.285,2.091-2.049a4.081,4.081,0,0,0-.362,1.731,2.646,2.646,0,0,0,2.96,2.845,3.358,3.358,0,0,0,3.671-3.731,2.692,2.692,0,0,0-2.964-2.785Zm-.55,4.995c-.667.011-1.072-.549-1.072-1.387,0-.993.591-2.115,1.539-2.115.765,0,1.027.607,1.027,1.253,0,1.413-.579,2.249-1.494,2.249Z" transform="translate(-443.356 -192.192)" fill-rule="evenodd"/>
      <path id="Fill-9" d="M137.407,202.46h-1.881l1.118-5.89-2.574,5.89h-1.715l-.314-5.856-1.122,5.856h-1.707l1.454-7.662h2.94l.245,4.271,1.862-4.271h3.176l-1.483,7.662" transform="translate(-118.332 -178.72)" fill-rule="evenodd"/>
      <path id="Fill-10" d="M613.15,269.078a.488.488,0,1,1,.488.489.488.488,0,0,1-.488-.489Zm.488.372a.371.371,0,1,0-.371-.372.372.372,0,0,0,.371.372Zm-.066-.157h-.1v-.428h.181a.2.2,0,0,1,.11.021.13.13,0,0,1,.054.107.117.117,0,0,1-.074.111l.079.189h-.111l-.065-.169h-.074v.169Zm0-.243h.055a.134.134,0,0,0,.061-.008.059.059,0,0,0,.025-.05.054.054,0,0,0-.024-.043.13.13,0,0,0-.064-.008h-.053v.109Z" transform="translate(-561.52 -246.299)" fill="#fff" fill-rule="evenodd"/>
      <path id="Fill-11" d="M322.217,210.286a7.334,7.334,0,0,1-1.93.254c-2.107,0-3.2-.962-3.2-2.8a3.423,3.423,0,0,1,3.292-3.72,2.256,2.256,0,0,1,2.541,2.269,5.924,5.924,0,0,1-.231,1.541h-3.746c-.133.9.52,1.289,1.634,1.289a5,5,0,0,0,1.939-.389l-.3,1.553Zm-1.007-3.718c0-.135.208-1.1-.876-1.118-.6,0-1.028.4-1.2,1.118Z" transform="translate(-290.383 -187.169)" fill="#fff" fill-rule="evenodd"/>
      <path id="Fill-12" d="M385.242,206.151c0,.792.445,1.339,1.459,1.747.775.317.9.409.9.691,0,.393-.342.573-1.1.568a6.254,6.254,0,0,1-1.706-.244l-.273,1.444a10.78,10.78,0,0,0,1.992.185c2.023,0,2.957-.663,2.957-2.094a1.728,1.728,0,0,0-1.351-1.744c-.8-.321-.9-.391-.9-.681,0-.341.319-.514.939-.514a12.491,12.491,0,0,1,1.38.094l.274-1.452a14.765,14.765,0,0,0-1.69-.125c-2.144,0-2.885.964-2.879,2.124" transform="translate(-352.139 -187.172)" fill="#fff" fill-rule="evenodd"/>
      <path id="Fill-13" d="M247.838,210.436h-1.572l.038-.659a2.525,2.525,0,0,1-1.984.761,1.639,1.639,0,0,1-1.728-1.708c0-1.533,1.221-2.416,3.32-2.416a7.335,7.335,0,0,1,.772.047,1.348,1.348,0,0,0,.074-.4c0-.42-.33-.574-1.213-.574a7.265,7.265,0,0,0-2,.279l.268-1.406a8.575,8.575,0,0,1,2.259-.332c1.625,0,2.484.637,2.484,1.835a7.1,7.1,0,0,1-.153,1.242c-.064.408-.515,2.776-.561,3.336Zm-1.38-2.8a3.524,3.524,0,0,0-.422-.026c-1.071,0-1.615.319-1.615.949a.617.617,0,0,0,.678.643,1.446,1.446,0,0,0,1.359-1.565Z" transform="translate(-222.165 -187.169)" fill="#fff" fill-rule="evenodd"/>
      <path id="Fill-14" d="M451.693,195.6a4.9,4.9,0,0,1-1.352.2c-.963,0-1.488-.492-1.488-1.369a13.141,13.141,0,0,1,.258-1.662c.053-.311.887-4.841.887-4.841h1.87l-.282,1.5h.959l-.261,1.53h-.963s-.529,2.655-.529,2.857c0,.322.2.461.643.461a1.779,1.779,0,0,0,.508-.058l-.249,1.38" transform="translate(-411.055 -172.428)" fill="#fff" fill-rule="evenodd"/>
      <path id="Fill-15" d="M542.924,206.769c0,1.413-.579,2.249-1.495,2.249-.667.009-1.072-.549-1.072-1.387,0-.993.59-2.115,1.539-2.115.766,0,1.028.607,1.028,1.253Zm2.019.039a2.693,2.693,0,0,0-2.964-2.785,3.461,3.461,0,0,0-3.667,3.671,2.646,2.646,0,0,0,2.96,2.845,3.358,3.358,0,0,0,3.671-3.731Z" transform="translate(-492.984 -187.169)" fill="#fff" fill-rule="evenodd"/>
      <path id="Fill-16" d="M490.8,204.969c-.238,1.939-.658,3.9-.987,5.848l-.08.423h1.889c.681-3.752.91-4.821,2.336-4.445l.686-1.776c-.995-.365-1.636.156-2.215.9a4.359,4.359,0,0,0,.127-.948H490.8" transform="translate(-448.492 -187.972)" fill="#fff" fill-rule="evenodd"/>
      <path id="Fill-17" d="M143.015,196.853h-1.881l1.118-5.891-2.575,5.891h-1.715L137.65,191l-1.122,5.857h-1.707l1.454-7.663h2.941l.155,4.743,2.069-4.743H144.5l-1.483,7.663" transform="translate(-123.468 -173.585)" fill="#fff" fill-rule="evenodd"/>
    </g>
  </g>
</svg>
