<svg id="man-with-glasses-and-shirt" xmlns="http://www.w3.org/2000/svg" width="91.17" height="140.548" viewBox="0 0 91.17 140.548">
  <path id="Path_18" data-name="Path 18" d="M117.2,281.242a2.681,2.681,0,0,1-1.954-1.385l-11.029-20.72L91.607,262.9a9.041,9.041,0,0,0-6.462,8.666v7.514a45.543,45.543,0,0,0,43.263,45.467V271.714l-8.934,8.791A2.668,2.668,0,0,1,117.2,281.242Z" transform="translate(-85.145 -183.995)" fill="#1d2228"/>
  <path id="Path_19" data-name="Path 19" d="M287.161,262.9l-12.607-3.759-11.029,20.72a2.67,2.67,0,0,1-4.231.648l-8.934-8.791v52.83a45.543,45.543,0,0,0,43.263-45.467v-7.514A9.041,9.041,0,0,0,287.161,262.9Z" transform="translate(-202.453 -183.996)" fill="#1d2228"/>
  <path id="Path_20" data-name="Path 20" d="M188.252,37.5a1.7,1.7,0,0,0-1.6-2.266,1.677,1.677,0,0,0-.2.013l.176-.89L187,32.413a25.06,25.06,0,0,0-5.646-21.233C175.787,4.762,167.878,0,160.881,0H154.3c-7,0-14.906,4.762-20.475,11.181a25.012,25.012,0,0,0-5.646,21.233l.39,1.966.169.866a1.7,1.7,0,0,0-1.8,2.257,8.839,8.839,0,0,0-3.531,5.19,15.433,15.433,0,0,0,.526,8.877c1.66,4.768,5.192,8.271,9.042,9.056a51.452,51.452,0,0,0,5.7,9.383c4.889,6.392,11.355,11.348,18.924,11.348S171.638,76.4,176.522,70.01a51.137,51.137,0,0,0,5.687-9.367c3.782-.746,7.369-4.267,9.047-9.074C193.29,45.7,191.94,39.96,188.252,37.5ZM141.5,20.273a4.625,4.625,0,0,1,6.4-1.909,19.34,19.34,0,0,0,19.369,0,4.627,4.627,0,0,1,6.4,1.911s8.874,16.047,9.21,16.341c-.236.111-.44.252-.667.374a17.374,17.374,0,0,0-5.057,4.229,6.452,6.452,0,0,0-4.784-2.143h-6.349a6.47,6.47,0,0,0-5.778,3.6,9.478,9.478,0,0,0-5.315,0,6.468,6.468,0,0,0-5.778-3.6h-6.349a6.454,6.454,0,0,0-4.784,2.143,17.315,17.315,0,0,0-5.056-4.229c-.227-.122-.435-.267-.676-.379C132.633,36.318,141.5,20.273,141.5,20.273Zm22.489,24.549c-.2-.2-.44-.353-.658-.53a2.983,2.983,0,0,1,2.694-1.73h6.349a3,3,0,1,1,0,6h-6.349a2.929,2.929,0,0,1-2.217-1.054A2.063,2.063,0,0,0,163.992,44.823ZM151.4,47.483a2.927,2.927,0,0,1-2.241,1.084h-6.349a3,3,0,1,1,0-6h6.349a3,3,0,0,1,2.7,1.733,7.833,7.833,0,0,0-.658.528A2.053,2.053,0,0,0,151.4,47.483Zm35.471,2.56c-1.383,3.964-4.2,6.1-6.186,6.1a2.522,2.522,0,0,0-2.168,1.395c-4.041,9.269-11.659,19.173-20.924,19.173s-16.874-9.9-20.92-19.173a2.46,2.46,0,0,0-2.227-1.392c-1.941,0-4.752-2.138-6.131-6.1a10.937,10.937,0,0,1-.422-6.166,3.971,3.971,0,0,1,2.163-2.852,3.276,3.276,0,0,1,.589-.1,2.259,2.259,0,0,0,1.279-.587,15.824,15.824,0,0,1,4.467,4.537c-.022.23-.068.451-.068.685a6.491,6.491,0,0,0,6.485,6.485h6.349a6.475,6.475,0,0,0,6.435-5.968,5.821,5.821,0,0,1,4,0,6.476,6.476,0,0,0,6.435,5.968h6.349a6.491,6.491,0,0,0,6.485-6.485,6.672,6.672,0,0,0-.068-.685,16.2,16.2,0,0,1,4.472-4.532,2.283,2.283,0,0,0,1.287.585,3.034,3.034,0,0,1,.572.093C187.179,41.742,188.4,45.623,186.871,50.043Z" transform="translate(-112.009)" fill="#1d2228"/>
</svg>
