<svg xmlns="http://www.w3.org/2000/svg" width="64" height="40" viewBox="0 0 64 40">
  <g id="mastercard" transform="translate(0.329 0.308)">
    <g id="mastercard-2" data-name="mastercard" transform="translate(0 0)">
      <rect id="Rectangle-1" width="64" height="40" rx="20" transform="translate(-0.329 -0.308)" fill="rgba(244,244,244,0)"/>
      <g id="mark" transform="translate(11.266 3.202)">
        <g id="text" transform="translate(2.153 27.688)">
          <path id="path3078" d="M463.854,51.933a.358.358,0,0,0-.252.1.343.343,0,0,0,0,.49.359.359,0,0,0,.5,0,.342.342,0,0,0,0-.49.354.354,0,0,0-.25-.1Zm0,.617a.27.27,0,1,1,0-.54.266.266,0,0,1,.19.078.273.273,0,0,1,0,.382.265.265,0,0,1-.19.079Zm.02-.433h-.149v.322h.069v-.121h.031l.1.121h.082l-.105-.122a.129.129,0,0,0,.076-.032A.088.088,0,0,0,464,52.22a.093.093,0,0,0-.034-.075.149.149,0,0,0-.1-.028Zm0,.06a.076.076,0,0,1,.043.011.037.037,0,0,1,.016.032.038.038,0,0,1-.016.033.075.075,0,0,1-.043.011h-.079v-.086Z" transform="translate(-424.52 -47.601)" fill="#fff" fill-rule="evenodd"/>
          <path id="path3006" d="M1.325,19.158H.588V15.716h.723v.419a2.362,2.362,0,0,1,1.012-.506,1.594,1.594,0,0,1,1.171.636,1.362,1.362,0,0,1,1.156-.636,1.33,1.33,0,0,1,1.359,1.085v2.43H5.3V17a.678.678,0,0,0-.766-.651A.789.789,0,0,0,3.667,17v2.141H2.93V16.988a.75.75,0,0,0-.737-.68c-.865,0-.882.694-.882.694l.014,2.155Z" transform="translate(-0.588 -14.354)" fill="#fff" fill-rule="evenodd"/>
          <path id="path3008" d="M256.723,15.623a2.362,2.362,0,0,0-1.012.506v-.419h-.724v3.442h.738L255.712,17s.016-.693.882-.693a.723.723,0,0,1,.384.1v0l.24-.67a1.323,1.323,0,0,0-.495-.107Z" transform="translate(-233.566 -14.349)" fill="#fff" fill-rule="evenodd"/>
          <path id="path3013" d="M380.054,15.623a2.362,2.362,0,0,0-1.012.506v-.419h-.724v3.442h.738L379.043,17s.016-.693.882-.693a.723.723,0,0,1,.384.1v0l.24-.67a1.323,1.323,0,0,0-.495-.107Z" transform="translate(-346.512 -14.349)" fill="#fff" fill-rule="evenodd"/>
          <path id="path3015" d="M74.892,15.456a1.757,1.757,0,0,0-1.69,1.821,1.806,1.806,0,0,0,1.721,1.83,1.9,1.9,0,0,0,1.123-.455V19h.726V15.556h-.728v.434a1.708,1.708,0,0,0-1.15-.535Zm.141.7a1.152,1.152,0,1,1-1.071,1.151,1.115,1.115,0,0,1,1.071-1.151Z" transform="translate(-67.087 -14.196)" fill="#fff" fill-rule="evenodd"/>
          <path id="path3020" d="M326.216,15.456a1.757,1.757,0,0,0-1.69,1.821,1.806,1.806,0,0,0,1.721,1.83,1.9,1.9,0,0,0,1.123-.455V19h.726V15.556h-.728v.434a1.708,1.708,0,0,0-1.15-.535Zm.141.7a1.152,1.152,0,1,1-1.071,1.151,1.115,1.115,0,0,1,1.071-1.151Z" transform="translate(-297.249 -14.196)" fill="#fff" fill-rule="evenodd"/>
          <path id="path3022" d="M408.961,1.754a1.757,1.757,0,0,0-1.69,1.821,1.806,1.806,0,0,0,1.721,1.83,1.9,1.9,0,0,0,1.123-.455V5.3h.726V.494h-.728V2.288a1.708,1.708,0,0,0-1.15-.535Zm.141.7a1.115,1.115,0,0,1,1.074,1.151,1.075,1.075,0,1,1-2.145,0A1.113,1.113,0,0,1,409.1,2.455Z" transform="translate(-373.026 -0.494)" fill="#fff" fill-rule="evenodd"/>
          <path id="path3024" d="M126.151,19.117a2.986,2.986,0,0,1-1.446-.463l.318-.492a3.421,3.421,0,0,0,1.128.3c.306,0,.818-.1.824-.405.007-.324-.86-.419-.86-.419s-1.294-.018-1.294-1.085c0-.671.646-1.1,1.474-1.1a4.663,4.663,0,0,1,1.373.419l-.361.564a4.5,4.5,0,0,0-1.055-.289c-.308-.011-.679.136-.679.405,0,.73,2.154-.057,2.154,1.418,0,.967-.877,1.143-1.576,1.143Z" transform="translate(-114.254 -14.198)" fill="#fff" fill-rule="evenodd"/>
          <path id="path3026" d="M167.825,4.809v1h-.642v.724h.642V8.265a1.112,1.112,0,0,0,1.2,1.171,4.206,4.206,0,0,0,1.029-.257l-.291-.752a.984.984,0,0,1-.577.223c-.581-.015-.565-.387-.565-.387V6.534h1.2V5.81h-1.2v-1Z" transform="translate(-153.155 -4.446)" fill="#fff" fill-rule="evenodd"/>
          <path id="path3034" d="M207.417,15.96a1.836,1.836,0,0,0,.071,3.671,3.32,3.32,0,0,0,1.34-.489l-.336-.585a2.131,2.131,0,0,1-1,.379.981.981,0,0,1-1-.919H209s.188-2.056-1.585-2.056Zm-.107.676c.028,0,.058,0,.088,0a.828.828,0,0,1,.879.837h-1.789a.8.8,0,0,1,.822-.837Z" transform="translate(-188.381 -14.657)" fill="#fff" fill-rule="evenodd"/>
          <path id="path3037" d="M285.834,18.432l.337.675a2.362,2.362,0,0,1-1.135.348,1.843,1.843,0,0,1-1.932-1.821,1.727,1.727,0,0,1,1.84-1.8,2.559,2.559,0,0,1,1.257.389l-.378.675a1.04,1.04,0,0,0-.9-.358,1.135,1.135,0,0,0,.01,2.26,1.542,1.542,0,0,0,.9-.368Z" transform="translate(-259.316 -14.542)" fill="#fff" fill-rule="evenodd"/>
        </g>
        <path id="path3057" d="M487.82,231.726v-.465H487.7l-.139.32-.14-.32H487.3v.465h.086v-.351l.131.3h.089l.131-.3v.351Zm-.768,0v-.385h.155v-.079h-.4v.079h.155v.385Z" transform="translate(-445.834 -211.791)" fill="#f79f1a" fill-rule="evenodd"/>
        <path id="path2997" d="M216.484,13.058A12.992,12.992,0,1,1,203.493.033a13.008,13.008,0,0,1,12.992,13.024Z" transform="translate(-174.474 -0.033)" fill="#f79f1a" fill-rule="evenodd"/>
        <path id="path2995" d="M26.147,13.058A12.992,12.992,0,1,1,13.156.033,13.008,13.008,0,0,1,26.147,13.058Z" transform="translate(-0.164 -0.033)" fill="#ea001b" fill-rule="evenodd"/>
        <path id="path2999" d="M195.49,32.947a13.05,13.05,0,0,0,0,20.506,13.05,13.05,0,0,0,0-20.506Z" transform="translate(-174.485 -30.176)" fill="#ff5f01" fill-rule="evenodd"/>
      </g>
    </g>
  </g>
</svg>
