<svg id="menu-black" xmlns="http://www.w3.org/2000/svg" width="47.408" height="34.239" viewBox="0 0 47.408 34.239">
  <path id="Path_5" data-name="Path 5" d="M45.433,126.619H1.975a1.975,1.975,0,1,1,0-3.951H45.433a1.975,1.975,0,0,1,0,3.951Zm0,0" transform="translate(0 -107.523)" fill="#1d2228"/>
  <path id="Path_6" data-name="Path 6" d="M45.433,3.951H1.975A1.975,1.975,0,1,1,1.975,0H45.433a1.975,1.975,0,0,1,0,3.951Zm0,0" fill="#1d2228"/>
  <path id="Path_7" data-name="Path 7" d="M45.433,249.283H1.975a1.975,1.975,0,1,1,0-3.951H45.433a1.975,1.975,0,1,1,0,3.951Zm0,0" transform="translate(0 -215.043)" fill="#1d2228"/>
</svg>
