<svg xmlns="http://www.w3.org/2000/svg" width="495" height="503.817" viewBox="0 0 495 503.817">
  <g id="my-face-logo" transform="translate(-713 -227.683)">
    <g id="Ellipse_2" data-name="Ellipse 2" transform="translate(713 236)" fill="#fff" stroke="#000" stroke-width="1">
      <circle cx="247.5" cy="247.5" r="247.5" stroke="none"/>
      <circle cx="247.5" cy="247.5" r="247" fill="none"/>
    </g>
    <path id="Intersection_1" data-name="Intersection 1" d="M0,248.534a18.559,18.559,0,0,1,1.276-2.911c.715-.733,7.382-10.767,7.382-10.767s6.147-9.554,6.311-10.393,5.851-6.125,5.851-6.125l9.157-5.773,4.586-5.209-8.841-3.841-4.991,1.152s-3.361-1.525-4.364-.848-6.711-1.305-6.711-1.305l-6.267-3.34c.114-.589-.562-2.347.419-2.156s3.6.293,3.6.293,3.455-2.075,3.708-2.33,3.384-.665,3.657-1.019a34.813,34.813,0,0,0,1.5-4.081,22.717,22.717,0,0,1,1.574-2.338l2.311,3.806,2.7,2.354s2.317,1.162,2.646.515,5.5-4.729,5.848-4.966,2.888-1.778,3.61-2.35,2.1-1.93,2.1-1.93,2.741.024,3.662,0,4.442-.357,4.854-.379,5.249-3.455,5.249-3.455,3.705.822,4.212.31a36.754,36.754,0,0,0,2.524-4.086c.174-.374-.886-4.342-.886-4.342l1.691-2.418,1.494-2.455,3.232.12s1.592-3.569.889-4.577.6-3.08.6-3.08.011-2.9.707-3.639-2.428-4.249-2.428-4.249l.326-6.908L57.9,144.78l-.725-5.951-.693-3.911,7.331,1.426,3.516-6.58,1.776,7.609,3.7-4.22a4.071,4.071,0,0,0,2.955-1.75,8.481,8.481,0,0,0,.761-3.92s3.072-.855,4.02-1.252,2.978,2.613,2.978,2.613,2.582,1.664,3.36.652,1.881-3.7,3.11-4.043,1.952-1.074,3.632-.747,5.046,2.434,5.046,2.434l3.08.6a7.946,7.946,0,0,0,2.791-.91c1-.677,3.919.761,3.919.761l2.612-2.978,2.434-5.046-3.359-.653.707-3.639,2.34-1.579s.491-4.709,1.025-5.276,2.217-.016,2.9-1.224a6.522,6.522,0,0,0,.586-3.015l5.168,1,1.9,1.711,2.835-.789,3.4-.234,2.847,1.447,2.177-3.152a48.852,48.852,0,0,0,5.6,1.088,31.66,31.66,0,0,1,4.522.879l2.129-4.055s3.78-1.053,4.468-1.143,2.949-3.673,2.949-3.673l-1.986-1.28.377-1.938a18.806,18.806,0,0,1,1.615-3.709c.556-.562,1.238-1.77,1.794-2.333s.586-3.015.586-3.015l-.914-2.189a13.569,13.569,0,0,0,2.745-1.478,6.69,6.69,0,0,1,3.78-1.053l2.8.545,1.406-2.632.1-5.12-2.8-.545,1.088-5.6,2.19-.915.46-2.369-3.445-.67,4.767-1.532.67-3.445-4.307-.837s1.626-5.012,1.094-5.631a12.455,12.455,0,0,1-.972-5.346c.279-.634,1.921-2.893,1.489-3.32s-1.775-3.611-2.537-3.931-2.4-3.389-2.4-3.389,1.615-1.234.322-1.657a5.745,5.745,0,0,0-1.846-.13c-.91.031-1.656.061-1.452-.511a8.268,8.268,0,0,0-.1-3.113s-.566-.626.321-1.657a30.214,30.214,0,0,1,2.518-2.433l1.333-1.46,3.08.6c.4.077,1.056-.482,2.411-.906s1.153-1.151,2.211-1.289,4.712-3.9,4.712-3.9l2.3-3.163.9-4.638,1.345-2.318,2.21-1.633a40.727,40.727,0,0,0,.869-4.472,10.758,10.758,0,0,1,.451-2.319L186.53,0l-.612,3.147s-.377,3.708-.869,4.472-2.521,5.01-2.521,5.01l-.966,4.969a21.669,21.669,0,0,0-2,4.081c-.226,1.159-1.1,5.631-1.1,5.631l1.781,4.988,1.256,5.917,2.6,4.288,1.344,3.7,2.14,4.026,2.462,2.37,2.061,1.776,6.744,5.673s13.966,7.363,15.311,7.916,32.6,14.6,32.6,14.6,16.666,5.3,22.633,7.4c-35.034,94.22-125.776,161.345-232.2,161.345A249.654,249.654,0,0,1,0,248.534Z" transform="translate(923.437 479.688)" stroke="#000" stroke-width="1"/>
    <path id="Path_1" data-name="Path 1" d="M23.033,196.765,14.7,187.552V179l-6.142-3.729s.877-3.729.877-4.387S0,159.913,0,159.913v-7.239L5.265,149.6l-1.535-6.8,3.948-14.039,3.51,1.755v-4.168l2.194-.877V116.7l2.413-3.51-2.413-7.9L21.5,91.912v-5.7l10.968-9.652V72.389S49.795,55.059,49.795,54.4s1.755-8.116,1.755-8.116h6.8L71.292,30.052l2.194-4.387H85.331l7.019-4.387,8.994-6.581,10.31-1.535L116.7,3.948l3.729,7.458L131.4,3.948,137.1,5.7,144.339,0H204V3.948l14.7-.878,6.21,4.236h5.4l1.181,1.856h5.231l1.519,5.062,15.018,7.087v2.025l2.869,1.181,9.956,10.462,1.012,2.7,3.881,1.687,9.618,15.186,4.893,6.243.844,3.543,8.1,11.305,3.375,10.968,3.712,10.8,5.4,10.968,4.793,15.778v8.555s2.413-1.316,2.413,0a44.024,44.024,0,0,0,1.1,5.7l4.826,9.432,4.387,6.581.877,11.407.7,10.08-.7,3.375.7,2.207-2.6,3.375-1.687,4.932-1.683,3.764-2.081.649V191.1H315.22v-6.23l2.745-1.168,3.764-5.971,2.7-5.971-1.017-7.788-4.024-8.048-5.269-6.1-7.206-5.452s-5.232-4.543-5.4-5.062-5.23-4.024-5.23-4.024h-3.764l-1.3.649,1.3,3.375.779,4.283,1.038,6.23h-1.817l-1.3,1.428-2.6-1.428v-4.154l1.168-3.245,1.428-3.115-1.428-1.558h-2.985l-1.687,1.558-1.038,2.207V143.6l-7.658.779-4.543,3.474-1.947,5.482-2.207,9.086v9.995l3.375,9.086.779,4.8,1.428,5.322v8.048h-7.788l-8.177-3.375-9.605-18.561h-3.115s1.428-4.024.909-4.283-6.75-14.8-7.009-15.836-4.543-7.788-4.543-7.788h-5.062l-4.283-4.673H213.347l-4.413-3.634H189.528l-2,.909-6.844-.909v2.856l-6.274-.779L169,139.312h-3.137l-5.418-5.238h-3.707l-1.426,1.215-2.567-8.914L151.03,122.1l-6.692-2-9.848-9.7-3.094,3.137-5.461-5.161h-2.281l-3.226,5.161h-2.478l-6.3,2.852L107.4,120.1l-4.278,2-6.559,3.377-7.414,5.045-6.559,4.77-2.852,4.024-4.848,5.841-8.27,6.1-6.559,2.077-8.512,4.283-1.755,2.3H42.667l-2.852,2.5-2.281,1.6v4.563l-2.281,2.3H32.465l-3.772-2.3-1.711-1.426-3.95,1.426v6.689s-1.6,8.71-1.535,9.566,1.535,6.788,1.535,6.788Z" transform="translate(822.04 227.683) rotate(11)"/>
    <path id="Path_2" data-name="Path 2" d="M2.868,2.269l8.774-1.012S16.368.244,16.874.075s6.412,0,6.412,0l3.037,3.543,2.7,9.618-1.687,9.787-4.05,5.062L16.874,32.3v8.943l-6.75,4.05s-2.7.506-2.7,0V38.21L10.124,35l4.893-2.7,1.856-5.062-5.231-.675-1.519,2.869L5.4,23.023,2.868,18.3H1.519L0,13.237s3.375-.506,2.868-1.012S2.868,2.269,2.868,2.269Z" transform="translate(1073.43 435.011) rotate(11)"/>
    <path id="Path_3" data-name="Path 3" d="M0,8.826c.779-.519,2.6-5.192,2.6-5.192a15.642,15.642,0,0,0,0-2.466c-.13,0,2.6.389,3.115,0S7.658,0,7.658,0l.649,2.466L7.658,5.192,4.543,7.918Z" transform="translate(1087.053 484.452) rotate(11)"/>
    <path id="Path_4" data-name="Path 4" d="M0,4.412,5.062,6.1,8.437,2.893A32.089,32.089,0,0,1,13.33,1.206c.844,0,5.737-1.181,7.593-1.181s5.231.337,6.412,0,6.581,2.869,6.581,2.869,4.05.844,4.556,1.519S44.21,5.931,44.716,6.1s5.906-.338,6.581,0S56.19,7.618,56.19,7.618L59.9,12.849V15.38s-4.05,1.519-4.725,1.856-4.05,2.025-4.893,2.362a12.072,12.072,0,0,1-3.543,0l-2.869-1.012L43.2,23.142l-4.725,2.7H25.648l-4.725-1.687L19.911,19.6l5.737-4.218,4.725-2.531V9.643L27.336,7.618H22.274L17.886,9.643H6.243v3.206H2.869L0,9.643Z" transform="translate(811.909 481.352) rotate(11)"/>
    <path id="Path_5" data-name="Path 5" d="M.736,50.881S-.3,45.17.087,45.17,5.15,41.276,5.15,41.276l5.062-7.139,4.8-4.932,5.711-3.245,5.711-4.543,6.49-3.764s7.918-5.452,8.307-5.581,5.581-2.077,5.581-2.077l2.6-2.207,3.764-.779s.779-2.466,1.428-2.726,4.673-.779,5.062-.909S63.559,0,63.559,0h2.856V4.283s1.168,1.3,1.558,1.3a28.013,28.013,0,0,0,3.245-1.3l3.115-.909,1.817.909V7.009L72.645,8.7H67.972l-6.1,8.956s-6.1-.13-6.62,0-7.788,5.971-7.788,5.971l-2.856,4.154-3.375,2.466-.649,3.894,1.428,2.336a33.687,33.687,0,0,0,4.024-.909c.389-.26,7.269-2.466,7.139-2.726s13.888-5.062,13.888-5.062l10.9-3.5L90.3,22.715h8.826l6.23-4.413v1.947l-3.115,3.375-1.038,3.5s-1.947,2.6-2.077,2.077-5.062,0-5.062,0l-1.168,2.726-3.375-1.687H84.846l-5.452,1.687L76.15,36.474l-4.932,4.8-4.8,6.879L62.78,52.7,57.2,54.516s-3.764,2.207-4.024,2.466-2.726,0-2.726,0v4.024l-1.038,2.856H37.08l-3.245,1.687s-10.124-5.581-10.124-6.1S21.5,56.982,21.5,56.982l-3.115,2.466,1.687-4.024-1.687-.909-5.322-.649L11.9,55.424H5.15L4.5,52.7Z" transform="translate(882.235 434.328) rotate(11)"/>
    <path id="Path_6" data-name="Path 6" d="M0,14.005s4.387-2.7,4.387-3.375V8.606s-.506-2.194,0-2.362A18.759,18.759,0,0,0,6.918,4.218l1.35-2.025L10.968,0V4.218l-2.7,2.025L6.075,9.618v1.856Z" transform="translate(854.509 514.242) rotate(11)"/>
    <path id="Path_7" data-name="Path 7" d="M0,17.886c.825.169,2.006,1.519,2.681,1.519H8.587s2.025-1.519,3.206-1.519h5.4L20.9,16.368l4.387-3.037,2.7-2.531,2.362-3.206s3.375.675,3.543,0S35.079,0,35.079,0L31.7,4.05S29.51,5.231,29.51,5.737a12.788,12.788,0,0,1-1.519,2.7L24.279,10.8,20.9,12.487l-3.712.844h-2.7v2.025l-4.387,1.012L7.068,17.886H2.681L.825,16.368Z" transform="translate(925.469 487.983) rotate(11)"/>
    <path id="Path_8" data-name="Path 8" d="M0,19.523l3.071-1.755,5.045-1.974s5.7-.658,6.362-.877S17.11,9.871,17.11,9.871L20.4,6.8l4.607-1.755L28.956,6.8l3.51-.877,3.729-.877L41.24,2.413,44.53,1.1,47.163,0h2.194L45.408,5.923,41.24,9.871l1.755,2.852v3.071L41.24,12.723l-1.1-1.1L38.388,13.6s-.658,2.413-2.194,3.071-5.265,2.413-5.923,2.852S26.323,21.5,26.323,21.5l-5.923,1.1-4.607-1.1H11.845s-2.852,0-3.729,1.1A5.914,5.914,0,0,1,5.265,24.13V19.523Z" transform="translate(885.359 559.552) rotate(11)"/>
    <path id="Path_9" data-name="Path 9" d="M3.121,14.977c.259-.307,0-2.842,0-2.842a13.12,13.12,0,0,1,0-2.688,15.969,15.969,0,0,0-.586-3.379L1.306,4.147A13.847,13.847,0,0,1,0,2.227V0L3.121,1.075,4.685,3.226l1.766,1.69a29.636,29.636,0,0,0,0,4.531c.23.384-.538,3.072-.538,3.072L3.121,15.284Z" transform="translate(933.893 552.175) rotate(11)"/>
    <path id="Path_10" data-name="Path 10" d="M.089,1.5l1.8-.5s.4-1,.7-1h2.1V1.5L4.083,3l-1,1.3H.788s-.5.4-.7,0A12.94,12.94,0,0,1,.089,1.5Z" transform="translate(888.802 608.186) rotate(11)"/>
    <path id="Path_11" data-name="Path 11" d="M2.307,43.093a18.984,18.984,0,0,1,1.168-2.726H.231s-.519-1.428,0-1.428H6.98L8.927,36.6l1.428-3.5,1.558-.909.649-2.336A25.572,25.572,0,0,0,16.2,27.907a36.59,36.59,0,0,1,6.23-3.5c.519,0,2.336,0,2.856-.909s4.8-1.558,4.8-1.558,2.336-1.038,2.726-1.3S35.8,18.431,35.8,18.431l3.115-2.077.779-1.817H37.483L35.8,12.72l1.038-2.6a12.757,12.757,0,0,1,.649-2.856,12.436,12.436,0,0,1,2.207,0S40.6,4.8,40.858,4.413s1.687-2.726,1.687-2.726A18.443,18.443,0,0,1,45.4,0h4.673s2.985,2.077,3.375,2.336A34.188,34.188,0,0,1,55.785,6.23l1.428,3.894v4.413l1.168,2.726v2.726l-2.6,1.947H52.41l-4.543-1.3-5.322,1.3-3.634,3.115-2.077,1.817s-4.283-.26-4.673,0-3.245,2.077-3.245,2.077L25.282,32.19l-4.154.909-1.947,1.168L18.532,36.6H16.2S14.768,38.55,13.47,38.94s-4.543,1.428-4.543,1.428L6.98,41.406a11.945,11.945,0,0,1-1.817,1.687A20.756,20.756,0,0,1,2.307,43.093Z" transform="translate(919.174 568.714) rotate(11)"/>
    <path id="Path_12" data-name="Path 12" d="M0,4.725,1.856,2.869H5.568L7.087,0h5.231V2.869l-.844,3.543A7.008,7.008,0,0,1,9.618,7.593a31.913,31.913,0,0,1-4.05,0H2.7Z" transform="translate(916.728 631.04) rotate(11)"/>
  </g>
</svg>
