<svg xmlns="http://www.w3.org/2000/svg" width="108.256" height="146.476" viewBox="0 0 108.256 146.476">
  <g id="orange-fruit" transform="translate(2 2.196)">
    <path id="Path_144" data-name="Path 144" d="M610.19,419.516s7.516,37.991,47.088,24.586C659.257,417.538,628,414.775,610.19,419.516Z" transform="translate(-607.626 -417.622)" fill="#5dbb51" stroke="#4c8e27" stroke-linecap="round" stroke-linejoin="round" stroke-width="4"/>
    <path id="Path_145" data-name="Path 145" d="M657.359,454.386s-14.775-7.914,5.8-28.5" transform="translate(-600.448 -416.21)" fill="none" stroke="#a58c72" stroke-linecap="round" stroke-linejoin="round" stroke-width="4"/>
    <path id="Path_146" data-name="Path 146" d="M608,499.177c0,31.084,23.052,55.143,50.624,55.143s53.633-23.064,53.633-53.129S686.57,450.31,660.122,450.31,608,475.118,608,499.177Z" transform="translate(-608 -412.04)" fill="#ff7935" stroke="#ce521b" stroke-miterlimit="10" stroke-width="4"/>
    <path id="Path_147" data-name="Path 147" d="M677.851,474.651a4.461,4.461,0,1,1-4.46-4.461A4.46,4.46,0,0,1,677.851,474.651Z" transform="translate(-597.596 -408.645)" fill="#ce521b"/>
    <path id="Path_148" data-name="Path 148" d="M686.741,491.031a4.449,4.449,0,1,1-1.3-3.158A4.461,4.461,0,0,1,686.741,491.031Z" transform="translate(-596.078 -405.848)" fill="#ce521b"/>
    <path id="Path_149" data-name="Path 149" d="M674.3,502.124a5.116,5.116,0,1,1-5.116-5.1A5.116,5.116,0,0,1,674.3,502.124Z" transform="translate(-598.426 -404.064)" fill="#ce521b"/>
    <path id="Path_150" data-name="Path 150" d="M665.784,487.072a2.482,2.482,0,1,1-2.482-2.482,2.482,2.482,0,0,1,2.482,2.482Z" transform="translate(-598.98 -406.187)" fill="#ce521b"/>
  </g>
</svg>
