<svg xmlns="http://www.w3.org/2000/svg" width="54.114" height="37.204" viewBox="0 0 54.114 37.204">
  <g id="paper-plane" transform="translate(-0.001 -0.5)">
    <path id="Path_671" data-name="Path 671" d="M281.057,231.5a1.057,1.057,0,1,0,1.057,1.057A1.057,1.057,0,0,0,281.057,231.5Zm0,0" transform="translate(-250.406 -206.588)" fill="#1d2228"/>
    <path id="Path_672" data-name="Path 672" d="M52.864.519h0l-.009,0L.864,10.242a1.057,1.057,0,0,0-.392,1.919l14.183,9.455L16.923,36.8a1.057,1.057,0,0,0,1.623.728l.009-.005,9.983-6.655,9.983,6.655a1.057,1.057,0,0,0,1.568-.489L54.04,1.948v0A1.058,1.058,0,0,0,52.864.519ZM46.24,3.908,15.7,19.771,3.805,11.843ZM42.052,8.465,21.035,24.175a1.07,1.07,0,0,0-.369.514l-.005.013L18.341,31.99l-1.554-10.4ZM19.889,34.1l2.36-7.417L26.632,29.6Zm18.718.947L23.5,24.972,50.693,4.645Zm0,0" transform="translate(0)" fill="#1d2228"/>
    <path id="Path_673" data-name="Path 673" d="M317.931,255.468l-2.831-1.886a1.057,1.057,0,1,0-1.172,1.759l2.83,1.887a1.057,1.057,0,0,0,1.173-1.759Zm0,0" transform="translate(-280.326 -226.174)" fill="#1d2228"/>
  </g>
</svg>
