<svg xmlns="http://www.w3.org/2000/svg" width="42.102" height="28.945" viewBox="0 0 42.102 28.945">
  <g id="paper-plane-white-icon" transform="translate(-0.001 -0.501)">
    <path id="Path_7" data-name="Path 7" d="M280.822,231.5a.822.822,0,1,0,.822.822A.823.823,0,0,0,280.822,231.5Zm0,0" transform="translate(-256.975 -212.008)" fill="#fff"/>
    <path id="Path_8" data-name="Path 8" d="M41.129.515h0l-.007,0L.672,8.08A.822.822,0,0,0,.367,9.573L11.4,16.929l1.765,11.816a.823.823,0,0,0,1.262.567l.007,0L22.2,24.13l7.767,5.178a.822.822,0,0,0,1.22-.38l10.854-27.3v0A.823.823,0,0,0,41.129.515ZM35.976,3.152,12.213,15.493,2.961,9.325ZM32.717,6.7,16.365,18.92a.832.832,0,0,0-.287.4l0,.01L14.27,25l-1.209-8.094ZM15.474,26.639l1.836-5.771,3.41,2.273Zm14.563.737L18.283,19.54,39.44,3.725Zm0,0" transform="translate(0 0)" fill="#fff"/>
    <path id="Path_9" data-name="Path 9" d="M316.938,255.01l-2.2-1.468a.822.822,0,1,0-.912,1.368l2.2,1.468a.822.822,0,0,0,.912-1.369Zm0,0" transform="translate(-287.681 -232.107)" fill="#fff"/>
  </g>
</svg>
