<svg xmlns="http://www.w3.org/2000/svg" width="220" height="93.417" viewBox="0 0 220 93.417">
  <g id="paradise-footer-logo" transform="translate(-799 -10.61)">
    <text id="PARAD_SE_WITH_A_VIEW" data-name="PARAD SE
WITH A VIEW" transform="translate(909 70.026)" fill="#fff" font-size="39" font-family="VarelaRound-Regular, Varela Round"><tspan letter-spacing="0.073em"><tspan x="-109.356" y="0">PARAD SE</tspan></tspan><tspan font-size="27"><tspan x="-88.479" y="26">WITH A VIEW</tspan></tspan></text>
    <g id="Group_2" data-name="Group 2" transform="translate(-4 1)">
      <path id="Path_1" data-name="Path 1" d="M1162.85,80.188h4.1s-3.22-4.014-4.1-15.352.871-17.413.871-17.413a31.009,31.009,0,0,0-3.51,13.768C1159.993,69.383,1162.85,80.188,1162.85,80.188Z" transform="translate(-201.758 -10.746)" fill="#f2b846"/>
      <circle id="Ellipse_1" data-name="Ellipse 1" cx="2.5" cy="2.5" r="2.5" transform="translate(961 31.026)" fill="#f2b846"/>
      <path id="Path_2" data-name="Path 2" d="M1153.341,49.052a4.6,4.6,0,0,0,.828-1.173c0-.065.172-1.1.172-1.1l.129.624.86-.925.172-.947v.645l1.076-.86.3-.99v.817l.99-.645.559-1.011-.215.839,1.441-.6.559-.559-.237.559,2.13-.344a4.641,4.641,0,0,0-2.753-.6,5.731,5.731,0,0,0-2.775.86,9.021,9.021,0,0,0-2.409,2.409A6.755,6.755,0,0,0,1153.341,49.052Z" transform="translate(-202.472 -9.338)" fill="#f2b846"/>
      <path id="Path_3" data-name="Path 3" d="M0,13a9.519,9.519,0,0,0,1.712-2.426c0-.134.356-2.27.356-2.27l.267,1.291,1.78-1.914L4.472,5.72V7.055L6.7,5.275,7.32,3.227V4.919L9.367,3.583l1.157-2.092-.445,1.736,2.982-1.246L14.219.824l-.49,1.157,4.406-.712a9.6,9.6,0,0,0-5.7-1.246A11.858,11.858,0,0,0,6.7,1.8,18.665,18.665,0,0,0,1.712,6.788,13.979,13.979,0,0,0,0,13Z" transform="translate(944.356 23.256) rotate(22)" fill="#f2b846"/>
      <path id="Path_4" data-name="Path 4" d="M0,15.988A11.709,11.709,0,0,0,2.106,13c0-.164.438-2.792.438-2.792L2.873,11.8l2.19-2.354L5.5,7.036V8.679l2.737-2.19L9,3.97v2.08l2.518-1.642,1.423-2.573L12.4,3.97l3.668-1.533,1.424-1.423-.6,1.423,5.42-.876A11.81,11.81,0,0,0,15.3.028a14.588,14.588,0,0,0-7.063,2.19A22.961,22.961,0,0,0,2.106,8.35,17.2,17.2,0,0,0,0,15.988Z" transform="matrix(0.438, 0.899, -0.899, 0.438, 954.61, 9.61)" fill="#f2b846"/>
      <path id="Path_5" data-name="Path 5" d="M0,7.3A5.349,5.349,0,0,0,.962,5.938c0-.075.2-1.275.2-1.275l.15.725,1-1.075.2-1.1v.75l1.25-1,.35-1.15v.95l1.15-.75L5.912.838l-.25.975,1.675-.7.65-.65-.275.65,2.475-.4a5.393,5.393,0,0,0-3.2-.7,6.661,6.661,0,0,0-3.225,1,10.486,10.486,0,0,0-2.8,2.8A7.853,7.853,0,0,0,0,7.3Z" transform="translate(970.61 21.697) rotate(120)" fill="#f2b846"/>
      <path id="Path_6" data-name="Path 6" d="M0,0A3.34,3.34,0,0,1,.6.851c0,.047.125.8.125.8l.094-.453.624.671.125.687V2.084l.781.625.219.718V2.834l.718.468.406.734-.156-.609,1.046.437.406.406-.172-.406,1.546.25a3.368,3.368,0,0,1-2,.437,4.16,4.16,0,0,1-2.014-.625A6.548,6.548,0,0,1,.6,2.178,4.9,4.9,0,0,1,0,0Z" transform="matrix(-0.616, 0.788, -0.788, -0.616, 974.385, 25.904)" fill="#f2b846"/>
      <path id="Path_7" data-name="Path 7" d="M0,0A5.348,5.348,0,0,1,.962,1.363c0,.075.2,1.275.2,1.275l.15-.725,1,1.075.2,1.1v-.75l1.25,1,.35,1.15v-.95l1.15.75.65,1.175-.25-.975,1.675.7.65.65-.275-.65,2.475.4a5.393,5.393,0,0,1-3.2.7,6.661,6.661,0,0,1-3.225-1,10.485,10.485,0,0,1-2.8-2.8A7.853,7.853,0,0,1,0,0Z" transform="translate(978.034 31.716) rotate(155)" fill="#f2b846"/>
      <path id="Path_8" data-name="Path 8" d="M0,7.6A5.564,5.564,0,0,0,1,6.181c0-.078.208-1.327.208-1.327l.156.755L2.406,4.489l.208-1.145v.781l1.3-1.041.364-1.2v.989l1.2-.781L6.154.872l-.26,1.015,1.744-.729L8.314.482l-.286.677L10.6.742A5.613,5.613,0,0,0,7.273.013,6.934,6.934,0,0,0,3.916,1.054,10.915,10.915,0,0,0,1,3.969,8.174,8.174,0,0,0,0,7.6Z" transform="matrix(0.438, 0.899, -0.899, 0.438, 973.911, 29.284)" fill="#f2b846"/>
    </g>
  </g>
</svg>
