<svg xmlns="http://www.w3.org/2000/svg" width="20.108" height="23.75" viewBox="0 0 20.108 23.75">
  <g id="paradise-location-icon" transform="translate(-60.96 -187.774)">
    <path id="Path_4" data-name="Path 4" d="M76.169,195.24a3.789,3.789,0,1,0,3.789,3.789A3.789,3.789,0,0,0,76.169,195.24Zm0,5.708a1.919,1.919,0,1,1,1.919-1.919,1.919,1.919,0,0,1-1.919,1.919Zm0,0" transform="translate(-5.158 -3.372)" fill="#fff"/>
    <path id="Path_5" data-name="Path 5" d="M74.46,204.826c.274-.3.548-.6.839-.932,2.522-2.912,3.806-5.533,3.806-7.781v-.455a8.094,8.094,0,0,0-16.182,0v.466c0,2.248,1.278,4.869,3.806,7.781.28.329.548.636.839.932-2.616.285-6.608,1.1-6.608,3.252,0,1.163,1.13,2.056,3.356,2.67a26.48,26.48,0,0,0,6.7.762,26.447,26.447,0,0,0,6.7-.762c2.232-.614,3.361-1.508,3.361-2.67,0-2.193-3.976-2.967-6.58-3.252Zm-9.64-8.7v-.455a6.224,6.224,0,0,1,12.442,0v.455c0,1.755-1.152,4.014-3.334,6.536a32.454,32.454,0,0,1-2.89,2.923,33.488,33.488,0,0,1-2.868-2.9c-2.193-2.528-3.35-4.8-3.35-6.58Zm12.014,12.936a28.66,28.66,0,0,1-11.592,0,4.78,4.78,0,0,1-2.336-.971,4.2,4.2,0,0,1,1.782-.823,21.665,21.665,0,0,1,4.628-.724c.636.587,1.1.943,1.1.971L71,208l.592-.483c.038-.027.466-.384,1.1-.971a21.989,21.989,0,0,1,4.639.691,4.255,4.255,0,0,1,1.8.828,5.175,5.175,0,0,1-2.341.971Zm0,0" transform="translate(0)" fill="#fff"/>
  </g>
</svg>
