<svg id="paypal" xmlns="http://www.w3.org/2000/svg" width="65.68" height="42.187" viewBox="0 0 65.68 42.187">
  <path id="Path_697" data-name="Path 697" d="M61.048,0H4.631A4.637,4.637,0,0,0,0,4.631V37.555a4.637,4.637,0,0,0,4.631,4.631H61.048a4.637,4.637,0,0,0,4.631-4.631V4.631A4.637,4.637,0,0,0,61.048,0Z" transform="translate(0 0)" fill="rgba(255,255,255,0)"/>
  <path id="Path_698" data-name="Path 698" d="M64.5,161.915a4.793,4.793,0,0,0-2.769-.73H57.326a.521.521,0,0,0-.578.523l-1.791,11.24a.368.368,0,0,0,.083.3.338.338,0,0,0,.275.138h2.094a.535.535,0,0,0,.606-.523l.5-3.03a.535.535,0,0,1,.193-.358.85.85,0,0,1,.413-.179,2.882,2.882,0,0,1,.468-.041q.22,0,.523.028t.386.027a5.055,5.055,0,0,0,3.719-1.336,4.979,4.979,0,0,0,1.35-3.705A2.656,2.656,0,0,0,64.5,161.915ZM62.23,165.29a1.563,1.563,0,0,1-.716,1.267,3.63,3.63,0,0,1-1.653.3l-.909.028.468-2.948a.33.33,0,0,1,.358-.3H60.3a3.073,3.073,0,0,1,1.6.317Q62.395,164.271,62.23,165.29Z" transform="translate(-50.324 -147.612)" fill="#fff"/>
  <path id="Path_699" data-name="Path 699" d="M674.953,161.185h-2.039a.33.33,0,0,0-.358.3l-1.791,11.46-.028.055a.388.388,0,0,0,.11.262.353.353,0,0,0,.275.124h1.818a.521.521,0,0,0,.579-.523l1.791-11.268v-.027Q675.311,161.185,674.953,161.185Z" transform="translate(-614.259 -147.612)" fill="#fff"/>
  <path id="Path_700" data-name="Path 700" d="M318.054,209.663a.391.391,0,0,0-.11-.262.327.327,0,0,0-.248-.124h-2.121a.583.583,0,0,0-.5.275l-2.92,4.3-1.212-4.132a.579.579,0,0,0-.606-.441h-2.066a.325.325,0,0,0-.248.124.388.388,0,0,0-.11.262q0,.056.537,1.625t1.157,3.389q.62,1.818.647,1.928A25.641,25.641,0,0,0,308,219.911a.317.317,0,0,0,.358.358h2.121a.583.583,0,0,0,.5-.275L318,209.855A.269.269,0,0,0,318.054,209.663Z" transform="translate(-281.988 -191.655)" fill="#fff"/>
  <path id="Path_701" data-name="Path 701" d="M554.727,207.179h-2.094q-.386,0-.468.909a2.886,2.886,0,0,0-2.617-1.1,4.45,4.45,0,0,0-3.375,1.488,4.955,4.955,0,0,0-1.391,3.5,3.527,3.527,0,0,0,.95,2.589,3.415,3.415,0,0,0,2.548.964,4.359,4.359,0,0,0,1.625-.331,3.236,3.236,0,0,0,1.295-.882,2.344,2.344,0,0,1-.055.248,1.5,1.5,0,0,0-.055.331q0,.441.358.441h1.9a.554.554,0,0,0,.606-.523l1.13-7.19a.372.372,0,0,0-.083-.3A.34.34,0,0,0,554.727,207.179Zm-3.595,5.427a2.332,2.332,0,0,1-1.694.689,1.875,1.875,0,0,1-1.295-.441,1.537,1.537,0,0,1-.5-1.212,2.366,2.366,0,0,1,.689-1.722,2.3,2.3,0,0,1,1.708-.7,1.855,1.855,0,0,1,1.281.455,1.6,1.6,0,0,1,.51,1.254A2.264,2.264,0,0,1,551.132,212.606Z" transform="translate(-498.909 -189.557)" fill="#fff"/>
  <path id="Path_702" data-name="Path 702" d="M183.068,207.179h-2.094q-.386,0-.468.909a2.928,2.928,0,0,0-2.617-1.1,4.45,4.45,0,0,0-3.375,1.488,4.955,4.955,0,0,0-1.391,3.5,3.527,3.527,0,0,0,.951,2.589,3.414,3.414,0,0,0,2.548.964,4.3,4.3,0,0,0,1.6-.331,3.479,3.479,0,0,0,1.322-.882,1.861,1.861,0,0,0-.11.578q0,.441.358.441h1.9a.554.554,0,0,0,.606-.523l1.129-7.19a.371.371,0,0,0-.083-.3A.339.339,0,0,0,183.068,207.179Zm-3.6,5.441a2.39,2.39,0,0,1-1.722.675,1.823,1.823,0,0,1-1.281-.441,1.558,1.558,0,0,1-.482-1.212,2.365,2.365,0,0,1,.689-1.722,2.3,2.3,0,0,1,1.708-.7,1.855,1.855,0,0,1,1.281.455,1.594,1.594,0,0,1,.51,1.254A2.25,2.25,0,0,1,179.473,212.62Z" transform="translate(-158.545 -189.557)" fill="#fff"/>
  <path id="Path_703" data-name="Path 703" d="M436.159,161.915a4.792,4.792,0,0,0-2.769-.73h-4.38a.535.535,0,0,0-.606.523l-1.791,11.24a.368.368,0,0,0,.083.3.338.338,0,0,0,.275.138h2.259a.438.438,0,0,0,.441-.358l.5-3.2a.535.535,0,0,1,.193-.358.85.85,0,0,1,.413-.179,2.88,2.88,0,0,1,.468-.041q.22,0,.523.028c.2.018.331.027.386.027a5.055,5.055,0,0,0,3.719-1.336,4.978,4.978,0,0,0,1.35-3.705A2.656,2.656,0,0,0,436.159,161.915Zm-2.824,4.532a3.248,3.248,0,0,1-1.818.413l-.882.028.468-2.948a.33.33,0,0,1,.358-.3h.5a6.677,6.677,0,0,1,.964.055,1.365,1.365,0,0,1,.689.344,1.057,1.057,0,0,1,.331.84A1.775,1.775,0,0,1,433.336,166.447Z" transform="translate(-390.686 -147.612)" fill="#fff"/>
</svg>
