<svg xmlns="http://www.w3.org/2000/svg" width="66" height="66" viewBox="0 0 66 66">
  <g id="phone_icon" data-name="phone icon" transform="translate(-850 -5792)">
    <circle id="Ellipse_42" data-name="Ellipse 42" cx="33" cy="33" r="33" transform="translate(850 5792)" fill="#fff"/>
    <g id="phone" transform="translate(869.147 5810.432)">
      <path id="Path_613" data-name="Path 613" d="M20.548,28.589a7.965,7.965,0,0,1-2.733-.488A29.14,29.14,0,0,1,7.233,21.356,29.138,29.138,0,0,1,.489,10.775a7.908,7.908,0,0,1-.4-3.887A8.109,8.109,0,0,1,4.253.952,7.961,7.961,0,0,1,8.064,0a.893.893,0,0,1,.874.706l1.4,6.544a.894.894,0,0,1-.242.819l-2.4,2.4A23.516,23.516,0,0,0,18.125,20.887l2.4-2.4a.894.894,0,0,1,.819-.242l6.544,1.4a.893.893,0,0,1,.706.874,7.96,7.96,0,0,1-.952,3.812A8.109,8.109,0,0,1,21.7,28.5a7.946,7.946,0,0,1-1.154.085ZM7.351,1.826a6.26,6.26,0,0,0-5.183,8.339A27.1,27.1,0,0,0,18.425,26.422a6.26,6.26,0,0,0,8.339-5.183L21.44,20.1l-2.5,2.5a.893.893,0,0,1-1.012.177A25.3,25.3,0,0,1,5.812,10.663a.893.893,0,0,1,.177-1.012l2.5-2.5Z" transform="translate(0 0)"/>
    </g>
  </g>
</svg>
