<svg xmlns="http://www.w3.org/2000/svg" width="53" height="55" viewBox="0 0 53 55">
  <g id="product-icon7" transform="translate(-1160 -2904)">
    <path id="Subtraction_8" data-name="Subtraction 8" d="M13.179,28.81a5.977,5.977,0,0,1-2.845-.544l-8.458-4.4a3.04,3.04,0,0,1-.5-.262L1.36,23.6l0,0A2.991,2.991,0,0,1,0,21.087v-13a3.019,3.019,0,0,1,1.922-2.8L10.127.878A4.906,4.906,0,0,1,13.269,0a4.2,4.2,0,0,1,2.953.878L24.311,5.36a.4.4,0,0,1,.037.045A2.986,2.986,0,0,1,26,8.087v13a2.982,2.982,0,0,1-1.913,2.8l-.035.038-7.967,4.345A6.111,6.111,0,0,1,13.179,28.81ZM13,6.086a8,8,0,1,0,8,8A8.009,8.009,0,0,0,13,6.086Z" transform="translate(1160 2929.914)" fill="#f9a34f"/>
    <rect id="Rectangle_30" data-name="Rectangle 30" width="25" height="10" rx="3" transform="translate(1188 2904)" fill="#f9a34f"/>
    <path id="Subtraction_9" data-name="Subtraction 9" d="M16.639,48H6.88a4.744,4.744,0,0,1-2.248-.881A5.388,5.388,0,0,1,3.282,45V38.95l17,4.588V45A4.768,4.768,0,0,1,19,47.119,5.023,5.023,0,0,1,16.639,48Zm3.643-9.663h0l-17-4.587v-2.8l17,4.588v2.8Zm0-8h0l-17-4.587V22.663l17,4.588v3.084Zm0-8.286h0l-17-4.588v-2.8l17,4.588v2.8Zm0-8h0l-17-4.588V0h17V14.049Z" transform="translate(1188.718 2911)" fill="#f9a34f"/>
  </g>
</svg>
