<svg xmlns="http://www.w3.org/2000/svg" width="54.962" height="52.962" viewBox="0 0 54.962 52.962">
  <g id="product-icon1" transform="translate(-529.519 -2595.431)">
    <g id="Rectangle_14" data-name="Rectangle 14" transform="translate(539 2605)" fill="none" stroke="#f9a34f" stroke-linejoin="round" stroke-width="3">
      <rect width="36" height="34" rx="4" stroke="none"/>
      <rect x="-1.5" y="-1.5" width="39" height="37" rx="5.5" fill="none"/>
    </g>
    <path id="Path_61" data-name="Path 61" d="M557,2596.431v6.962" fill="none" stroke="#f9a34f" stroke-linecap="round" stroke-width="2"/>
    <path id="Path_63" data-name="Path 63" d="M557,2596.431v6.962" transform="translate(6)" fill="none" stroke="#f9a34f" stroke-linecap="round" stroke-width="2"/>
    <path id="Path_64" data-name="Path 64" d="M557,2596.431v6.962" transform="translate(12)" fill="none" stroke="#f9a34f" stroke-linecap="round" stroke-width="2"/>
    <path id="Path_65" data-name="Path 65" d="M557,2596.431v6.962" transform="translate(-6)" fill="none" stroke="#f9a34f" stroke-linecap="round" stroke-width="2"/>
    <path id="Path_66" data-name="Path 66" d="M557,2596.431v6.962" transform="translate(-12)" fill="none" stroke="#f9a34f" stroke-linecap="round" stroke-width="2"/>
    <path id="Path_67" data-name="Path 67" d="M557,2596.431v6.962" transform="translate(0 44)" fill="none" stroke="#f9a34f" stroke-linecap="round" stroke-width="2"/>
    <path id="Path_68" data-name="Path 68" d="M557,2596.431v6.962" transform="translate(6 44)" fill="none" stroke="#f9a34f" stroke-linecap="round" stroke-width="2"/>
    <path id="Path_69" data-name="Path 69" d="M557,2596.431v6.962" transform="translate(12 44)" fill="none" stroke="#f9a34f" stroke-linecap="round" stroke-width="2"/>
    <path id="Path_70" data-name="Path 70" d="M557,2596.431v6.962" transform="translate(-6 44)" fill="none" stroke="#f9a34f" stroke-linecap="round" stroke-width="2"/>
    <path id="Path_71" data-name="Path 71" d="M557,2596.431v6.962" transform="translate(-12 44)" fill="none" stroke="#f9a34f" stroke-linecap="round" stroke-width="2"/>
    <path id="Path_72" data-name="Path 72" d="M557,2596.431v6.962" transform="translate(3133.912 2064.912) rotate(90)" fill="none" stroke="#f9a34f" stroke-linecap="round" stroke-width="2"/>
    <path id="Path_73" data-name="Path 73" d="M557,2596.431v6.962" transform="translate(3133.912 2070.912) rotate(90)" fill="none" stroke="#f9a34f" stroke-linecap="round" stroke-width="2"/>
    <path id="Path_74" data-name="Path 74" d="M557,2596.431v6.962" transform="translate(3133.912 2076.912) rotate(90)" fill="none" stroke="#f9a34f" stroke-linecap="round" stroke-width="2"/>
    <path id="Path_75" data-name="Path 75" d="M557,2596.431v6.962" transform="translate(3133.912 2058.912) rotate(90)" fill="none" stroke="#f9a34f" stroke-linecap="round" stroke-width="2"/>
    <path id="Path_76" data-name="Path 76" d="M557,2596.431v6.962" transform="translate(3133.912 2052.912) rotate(90)" fill="none" stroke="#f9a34f" stroke-linecap="round" stroke-width="2"/>
    <path id="Path_77" data-name="Path 77" d="M557,2596.431v6.962" transform="translate(3179.912 2064.912) rotate(90)" fill="none" stroke="#f9a34f" stroke-linecap="round" stroke-width="2"/>
    <path id="Path_78" data-name="Path 78" d="M557,2596.431v6.962" transform="translate(3179.912 2070.912) rotate(90)" fill="none" stroke="#f9a34f" stroke-linecap="round" stroke-width="2"/>
    <path id="Path_79" data-name="Path 79" d="M557,2596.431v6.962" transform="translate(3179.912 2076.912) rotate(90)" fill="none" stroke="#f9a34f" stroke-linecap="round" stroke-width="2"/>
    <path id="Path_80" data-name="Path 80" d="M557,2596.431v6.962" transform="translate(3179.912 2058.912) rotate(90)" fill="none" stroke="#f9a34f" stroke-linecap="round" stroke-width="2"/>
    <path id="Path_81" data-name="Path 81" d="M557,2596.431v6.962" transform="translate(3179.912 2052.912) rotate(90)" fill="none" stroke="#f9a34f" stroke-linecap="round" stroke-width="2"/>
    <path id="Path_82" data-name="Path 82" d="M537.481,2619.261h7.483v-8.419h7.448v-7.286" fill="none" stroke="#f9a34f" stroke-linejoin="round" stroke-width="2"/>
    <g id="Ellipse_7" data-name="Ellipse 7" transform="translate(549 2618)" fill="none" stroke="#f9a34f" stroke-width="1.5">
      <circle cx="3.5" cy="3.5" r="3.5" stroke="none"/>
      <circle cx="3.5" cy="3.5" r="2.75" fill="none"/>
    </g>
    <path id="Path_83" data-name="Path 83" d="M557,2619.261l4.478-7.933v-7.609" transform="translate(-3)" fill="none" stroke="#f9a34f" stroke-linejoin="round" stroke-width="2"/>
    <path id="Path_84" data-name="Path 84" d="M537.481,2630.918h13.312l6.314-3.238,1.619-5.667,5.343-5.667h4.371v-12.628" fill="none" stroke="#f9a34f" stroke-linejoin="round" stroke-width="2"/>
    <g id="Ellipse_8" data-name="Ellipse 8" transform="translate(573.086 2628.69) rotate(-169)" fill="none" stroke="#f9a34f" stroke-width="1.5">
      <circle cx="3.5" cy="3.5" r="3.5" stroke="none"/>
      <circle cx="3.5" cy="3.5" r="2.75" fill="none"/>
    </g>
    <path id="Path_85" data-name="Path 85" d="M557,2619.261l4.478-7.933v-7.609" transform="translate(615.406 5303.917) rotate(-169)" fill="none" stroke="#f9a34f" stroke-linejoin="round" stroke-width="2"/>
  </g>
</svg>
