<svg xmlns="http://www.w3.org/2000/svg" width="67" height="54.477" viewBox="0 0 67 54.477">
  <g id="product-icon2" transform="translate(-751 -2567.523)">
    <path id="Subtraction_1" data-name="Subtraction 1" d="M19,54H4a4,4,0,0,1-4-4V4A4,4,0,0,1,4,0H19a4,4,0,0,1,4,4V50A4,4,0,0,1,19,54ZM11.5,11A5.773,5.773,0,0,0,6,17a5.773,5.773,0,0,0,5.5,6A5.773,5.773,0,0,0,17,17,5.773,5.773,0,0,0,11.5,11Z" transform="translate(751 2568)" fill="#f9a34f"/>
    <g id="Group_8" data-name="Group 8" transform="translate(162 1)">
      <path id="Path_86" data-name="Path 86" d="M0,0H41V6L-4.013,5.524Z" transform="matrix(0.809, -0.588, 0.588, 0.809, 613.152, 2590.623)" fill="#f9a34f"/>
      <g id="Group_7" data-name="Group 7" transform="translate(-68)">
        <rect id="Rectangle_16" data-name="Rectangle 16" width="6" height="2" transform="translate(718 2619)" fill="#f9a34f"/>
        <rect id="Rectangle_17" data-name="Rectangle 17" width="4" height="29" transform="translate(719 2591)" fill="#f9a34f"/>
        <rect id="Rectangle_18" data-name="Rectangle 18" width="2" height="3" transform="translate(720 2589)" fill="#f9a34f"/>
        <path id="Path_87" data-name="Path 87" d="M719.684,2589.493h2.506l.737-8.18h-4.274Z" fill="#f9a34f"/>
      </g>
    </g>
  </g>
</svg>
