<svg xmlns="http://www.w3.org/2000/svg" width="23" height="54.94" viewBox="0 0 23 54.94">
  <g id="product-icon3" transform="translate(-928 -2567.06)">
    <circle id="Ellipse_11" data-name="Ellipse 11" cx="5.5" cy="5.5" r="5.5" transform="translate(934 2598)" fill="#f9a34f"/>
    <g id="Group_10" data-name="Group 10">
      <path id="Subtraction_4" data-name="Subtraction 4" d="M17,45H6a6.007,6.007,0,0,1-6-6V6A6.007,6.007,0,0,1,6,0H17a6.007,6.007,0,0,1,6,6V39A6.007,6.007,0,0,1,17,45Zm-.5-5A1.5,1.5,0,1,0,18,41.5,1.5,1.5,0,0,0,16.5,40Zm-5,0A1.5,1.5,0,1,0,13,41.5,1.5,1.5,0,0,0,11.5,40Zm-5,0A1.5,1.5,0,1,0,8,41.5,1.5,1.5,0,0,0,6.5,40Zm10-4A1.5,1.5,0,1,0,18,37.5,1.5,1.5,0,0,0,16.5,36Zm-5,0A1.5,1.5,0,1,0,13,37.5,1.5,1.5,0,0,0,11.5,36Zm-5,0A1.5,1.5,0,1,0,8,37.5,1.5,1.5,0,0,0,6.5,36Zm5-17A7.5,7.5,0,1,0,19,26.5,7.509,7.509,0,0,0,11.5,19ZM8,4A2,2,0,0,0,8,8h7a2,2,0,0,0,0-4Z" transform="translate(928 2577)" fill="#f9a34f"/>
      <path id="Path_88" data-name="Path 88" d="M932.071,2573.882s2.358-2.137,7.369-2.137,7.443,2.137,7.443,2.137" fill="none" stroke="#f9a34f" stroke-linecap="round" stroke-width="2"/>
      <path id="Path_89" data-name="Path 89" d="M932.071,2575.483s2.934-2.822,9.369-2.822,9.654,2.822,9.654,2.822" transform="translate(-2 -4.601)" fill="none" stroke="#f9a34f" stroke-linecap="round" stroke-width="2"/>
    </g>
  </g>
</svg>
