<svg xmlns="http://www.w3.org/2000/svg" width="91.493" height="55.061" viewBox="0 0 91.493 55.061">
  <g id="product-icon6" transform="translate(-861.537 -2899)">
    <path id="Path_92" data-name="Path 92" d="M868.214,2943.51s20.048,5.051,39.57,5.051,38.517-5.051,38.517-5.051" fill="none" stroke="#f9a34f" stroke-linecap="round" stroke-width="11"/>
    <path id="Subtraction_7" data-name="Subtraction 7" d="M51.214,57.717c-2.113,0-4.3-.042-6.611-.086-2.456-.047-5-.1-7.6-.1s-5.148.048-7.605.1c-2.313.044-4.5.086-6.609.086-6.02,0-12.175-.31-16.41-2.563a10.839,10.839,0,0,1-4.7-4.659A17.5,17.5,0,0,1,0,42.291a29.737,29.737,0,0,1,1.255-8.553A30.939,30.939,0,0,1,4.8,26.02,35.28,35.28,0,0,1,17.474,14.256l4.588,11.951a4,4,0,0,0,7.469-2.867L24.838,11.116a41.418,41.418,0,0,1,25.272.308L45.536,23.34a4,4,0,0,0,3.733,5.434A4.025,4.025,0,0,0,53,26.206l4.4-11.45C67.795,20.895,74,31.188,74,42.291a17.5,17.5,0,0,1-1.679,8.2,10.841,10.841,0,0,1-4.7,4.659C63.388,57.406,57.234,57.717,51.214,57.717Z" transform="translate(870 2892.709)" fill="#f9a34f"/>
    <path id="Path_94" data-name="Path 94" d="M2,0H23a2,2,0,0,1,2,2V5.339l-25-.3V2A2,2,0,0,1,2,0Z" transform="translate(895 2899)" fill="#f9a34f"/>
  </g>
</svg>
