<svg xmlns="http://www.w3.org/2000/svg" width="44" height="54" viewBox="0 0 44 54">
  <path id="product-icon5" d="M38,54H6a6.007,6.007,0,0,1-6-6V6A6.007,6.007,0,0,1,6,0H38a6.007,6.007,0,0,1,6,6V48A6.007,6.007,0,0,1,38,54ZM9,44a1,1,0,0,0-1,1v4a1,1,0,0,0,1,1H35a1,1,0,0,0,1-1V45a1,1,0,0,0-1-1ZM35,30a4,4,0,1,0,4,4A4.005,4.005,0,0,0,35,30ZM22,30a4,4,0,1,0,4,4A4,4,0,0,0,22,30ZM9,30a4,4,0,1,0,4,4A4,4,0,0,0,9,30ZM35,19a4,4,0,1,0,4,4A4.005,4.005,0,0,0,35,19ZM22,19a4,4,0,1,0,4,4A4,4,0,0,0,22,19ZM9,19a4,4,0,1,0,4,4A4,4,0,0,0,9,19ZM35,8a4,4,0,1,0,4,4A4,4,0,0,0,35,8ZM22,8a4,4,0,1,0,4,4A4,4,0,0,0,22,8ZM9,8a4,4,0,1,0,4,4A4,4,0,0,0,9,8Z" fill="#f9a34f"/>
</svg>
