<svg xmlns="http://www.w3.org/2000/svg" width="97" height="97" viewBox="0 0 97 97">
  <g id="property-icon" transform="translate(-1159 -3786.048)">
    <circle id="Ellipse_7" data-name="Ellipse 7" cx="48.5" cy="48.5" r="48.5" transform="translate(1159 3786.048)" fill="#f2b846"/>
    <g id="Group_77" data-name="Group 77" transform="translate(1171.936 3800.627)">
      <path id="Path_59" data-name="Path 59" d="M116.957,38.6l-1.985,2.458L90.74,23.448l1.985-2.458Z" transform="translate(-57.086 -20.99)" fill="#fff"/>
      <path id="Path_60" data-name="Path 60" d="M108.041,20.99l1.954,2.458L85.574,40.842,83.62,38.384Z" transform="translate(-72.402 -20.99)" fill="#fff"/>
      <path id="Path_61" data-name="Path 61" d="M129.161,50.306V35.59L110.98,23.49,92.8,35.59V49.2L82.21,57.742V76.019h23.7V61.9h10.556V76.019h22.877V57.742ZM100.8,67.637H88.89V61.9h12.037Zm7.531-21.648h-12.1V37.26h12.226Zm3.907-8.7h12.226v8.7h-12.1Zm21.869,30.345H122.2V61.9h12.037Z" transform="translate(-75.435 -15.612)" fill="#fff"/>
      <path id="Path_62" data-name="Path 62" d="M98.08,30.12v4.033s12.1,9.453,12.415,9.17a27.444,27.444,0,0,0,1.891-2.773Z" transform="translate(-41.297 -1.35)" fill="#fff"/>
      <path id="Path_63" data-name="Path 63" d="M94.366,30.12v4.033S82.3,43.607,81.982,43.323A28.364,28.364,0,0,1,80.06,40.55Z" transform="translate(-80.06 -1.35)" fill="#fff"/>
    </g>
  </g>
</svg>
