<svg xmlns="http://www.w3.org/2000/svg" width="103.542" height="143.439" viewBox="0 0 103.542 143.439">
  <g id="strawberry-fruit" transform="translate(2.023 2)">
    <path id="Path_83" data-name="Path 83" d="M367.025,304.846c-11.708-23.567-34.385-18.065-47.369-18.053s-35.708-5.514-47.369,18.053c-11.3,22.818,19.9,75.994,45.976,79.436.468,0,.937.105,1.393.129a8.121,8.121,0,0,0,1.393-.129C347.122,380.793,378.323,327.664,367.025,304.846Z" transform="translate(-269.908 -244.973)" fill="#ee6649" stroke="#f04c2e" stroke-linecap="round" stroke-linejoin="round" stroke-width="4"/>
    <path id="Path_84" data-name="Path 84" d="M346.924,276.232a35.883,35.883,0,0,0-20.828-.375c.574-6.708-1.522-16.391-9.085-24.867a29.269,29.269,0,0,0-9.308,24.925,35.92,35.92,0,0,0-21.074.316,29.526,29.526,0,0,0,23.942,19.118,44.485,44.485,0,0,0,6.123.375,47.993,47.993,0,0,0,6.029-.351A29.445,29.445,0,0,0,346.924,276.232Z" transform="translate(-267.052 -250.99)" fill="#5dbb51" stroke="#4c8e27" stroke-linecap="round" stroke-linejoin="round" stroke-width="4"/>
    <path id="Path_85" data-name="Path 85" d="M312.659,313.187s7.446-10.853.14-10.947S312.659,313.187,312.659,313.187Z" transform="translate(-263.145 -242.239)" fill="#ffdaaa"/>
    <path id="Path_86" data-name="Path 86" d="M282.256,313.187s7.446-10.853.152-10.947S282.256,313.187,282.256,313.187Z" transform="translate(-268.334 -242.239)" fill="#ffdaaa"/>
    <path id="Path_87" data-name="Path 87" d="M340.766,313.187s7.446-10.853.152-10.947S340.766,313.187,340.766,313.187Z" transform="translate(-258.342 -242.239)" fill="#ffd8ab"/>
    <path id="Path_88" data-name="Path 88" d="M327.1,334.457s7.446-10.841.141-10.947S327.1,334.457,327.1,334.457Z" transform="translate(-260.679 -238.607)" fill="#ffdaaa"/>
    <path id="Path_89" data-name="Path 89" d="M298.216,334.457s7.446-10.841.152-10.947S298.216,334.457,298.216,334.457Z" transform="translate(-265.608 -238.607)" fill="#ffdaaa"/>
    <path id="Path_90" data-name="Path 90" d="M313.458,358.777s7.446-10.853.141-10.947S313.458,358.777,313.458,358.777Z" transform="translate(-263.008 -234.454)" fill="#ffdaaa"/>
  </g>
</svg>
