<svg xmlns="http://www.w3.org/2000/svg" width="1920" height="1082" viewBox="0 0 1920 1082">
  <g id="uat-hive2" transform="translate(0)" opacity="0.3">
    <g id="Group_7" data-name="Group 7" transform="translate(0 512.419)">
      <path id="Path_612" data-name="Path 612" d="M1580.845,983.284l17.018-9.907v-19.84l-.186-.09-16.832-9.818-17,9.92v19.84l.173.1Zm16.275-10.33-16.3,9.5-16.314-9.5V953.972l16.339-9.466,16.275,9.466Z" transform="translate(-678.72 -730.126)" fill="#808285" opacity="0.57"/>
      <path id="Path_613" data-name="Path 613" d="M1136.315,1008.769l.179-.109,66.816-38.925V891.694l-.179-.109-66.816-38.925-.179.109-66.816,38.925v78.042l.186.115Zm66.317-39.411-66.317,38.586-66.246-38.586V892.1l66.246-38.579,66.285,38.611Z" transform="translate(32.325 -697.377)" fill="#808285" opacity="0.77"/>
      <path id="Path_614" data-name="Path 614" d="M1164.428,983.292l17.018-9.907v-19.84l-.179-.09-16.838-9.8-17.018,9.907V973.4l.179.1Zm16.3-10.33-16.3,9.5-16.307-9.5V953.98l16.307-9.466,16.3,9.5Z" transform="translate(4.212 -730.133)" fill="#808285" opacity="0.58"/>
      <path id="Path_615" data-name="Path 615" d="M1363.25,1355.714l33.67-19.622v-39.219l-.179-.109-33.491-19.514-33.67,19.622v39.219l.173.109Zm32.96-20.026-32.96,19.2-32.967-19.2v-38.4l32.967-19.2,32.96,19.2Z" transform="translate(-327.852 -850.229)" fill="#808285" opacity="0.9"/>
      <path id="Path_616" data-name="Path 616" d="M1344.5,1372.674l67-39.04v-78.08l-.179-.09L1344.5,1216.54l-66.989,39.04v78.08l.166.1Zm66.278-39.437-66.278,38.6-66.291-38.6v-77.222l66.291-38.6,66.278,38.6Z" transform="translate(-309.1 -828.374)" fill="#808285" opacity="0.86"/>
      <path id="Path_617" data-name="Path 617" d="M1515.278,921.429l.173-.109,133.453-77.7V687.893l-.179-.1L1515.278,610.05l-.186.1L1381.64,687.893V843.618l.186.1Zm132.915-78.266L1515.279,920.6l-132.922-77.44V688.284l132.922-77.44,132.915,77.44Z" transform="translate(-613.154 -610.037)" fill="#808285" opacity="0.94"/>
      <path id="Path_618" data-name="Path 618" d="M1344.5,766.171l.173-.109,66.822-38.931v-78.08l-.179-.1L1344.5,610.03l-.179.1-66.81,38.925v78.08l.166.109Zm66.278-39.437L1344.5,765.345l-66.291-38.611V649.48l66.291-38.611,66.278,38.611Z" transform="translate(-309.1 -610.03)" fill="#808285" opacity="0.62"/>
      <path id="Path_619" data-name="Path 619" d="M1760.969,1008.769l.173-.109,66.822-38.925V891.694l-.173-.109-66.81-38.925-.173.109L1694,891.694v78.042l.166.115Zm66.278-39.411-66.278,38.611-66.278-38.611V892.1l66.278-38.579,66.278,38.611Z" transform="translate(-992.125 -697.377)" fill="#808285" opacity="0.92"/>
      <path id="Path_620" data-name="Path 620" d="M1571.49,1113.09l33.67-19.609v-39.238l-.186-.109-33.485-19.514-33.67,19.622v39.238l.173.09Zm32.954-20.032-32.954,19.2-32.966-19.2v-38.4l32.966-19.2,32.954,19.2Z" transform="translate(-669.366 -762.882)" fill="#808285" opacity="0.78"/>
      <path id="Path_621" data-name="Path 621" d="M1372.628,983.284l17.011-9.907v-19.84l-.173-.09-16.838-9.818-17.018,9.907v19.84l.186.1Zm16.307-10.33-16.307,9.5-16.3-9.5V953.972l16.3-9.466,16.307,9.5Z" transform="translate(-337.229 -730.126)" fill="#808285" opacity="0.61"/>
      <path id="Path_622" data-name="Path 622" d="M1779.74,991.792l33.67-19.61V932.97l-.173-.1-33.5-19.514-33.67,19.61V972.2l.173.109Zm32.967-20.032-32.967,19.2-32.966-19.2v-38.4l32.966-19.2,32.967,19.2Z" transform="translate(-1010.896 -719.229)" fill="#808285" opacity="0.7"/>
      <path id="Path_623" data-name="Path 623" d="M1760.969,1251.381l.173-.109,66.822-38.925v-78.08l-.173-.109-66.81-38.918-.173.109L1694,1134.267v78.08l.166.1Zm66.278-39.456-66.278,38.63-66.278-38.63v-77.216l66.278-38.611,66.278,38.611Z" transform="translate(-992.125 -784.706)" fill="#808285" opacity="0.82"/>
      <path id="Path_624" data-name="Path 624" d="M1603.739,1354.3l44.454-25.888v-154.88l-132.915-77.421-132.921,77.421v154.88l44.454,25.888h-1.421l-43.565-25.376-.186-.109V1173.133l133.453-77.734.186-.109,133.446,77.734.179.109V1328.82L1605.16,1354.3Z" transform="translate(-613.154 -784.724)" fill="#808285" opacity="0.57"/>
      <path id="Path_625" data-name="Path 625" d="M1608.618,1485.312l-43.386-25.28-43.392,25.28h-1.421l44.813-26.112,44.807,26.112Z" transform="translate(-663.108 -915.731)" fill="#808285" opacity="0.87"/>
      <path id="Path_626" data-name="Path 626" d="M1648.194,1441.648v-25.485l-132.915-77.421-132.921,77.421v25.485h-.717V1415.76l133.453-77.754.186-.1,133.446,77.741.179.109v25.888Z" transform="translate(-613.154 -872.067)" fill="#808285" opacity="0.55"/>
      <path id="Path_627" data-name="Path 627" d="M1552.772,1372.674l66.982-39.04v-78.08l-.166-.09-66.816-38.925-67,39.04v78.08l.186.1Zm66.285-39.437-66.285,38.6-66.285-38.6v-77.222l66.278-38.6,66.285,38.6Z" transform="translate(-650.647 -828.374)" fill="#808285" opacity="0.88"/>
      <path id="Path_628" data-name="Path 628" d="M1801.571,1463.482l11.142-6.483v-38.406l-32.967-19.206-32.966,19.206V1457l11.136,6.483H1756.5l-10.426-6.08V1418.17l33.677-19.609,33.671,19.609V1457.4l-10.419,6.08Z" transform="translate(-1010.902 -893.901)" fill="#808285" opacity="0.52"/>
      <path id="Path_629" data-name="Path 629" d="M1608.618,1485.312l-43.386-25.28-43.392,25.28h-1.421l44.813-26.112,44.807,26.112Z" transform="translate(-663.108 -915.731)" fill="#808285" opacity="0.75"/>
      <path id="Path_630" data-name="Path 630" d="M1580.858,740.68l17.018-9.92V710.92l-.186-.1L1580.858,701l-17.018,9.92v19.84l.173.115Zm16.275-10.342-16.3,9.5-16.314-9.5v-19l16.314-9.5,16.3,9.5Z" transform="translate(-678.733 -642.779)" fill="#808285" opacity="0.89"/>
      <path id="Path_631" data-name="Path 631" d="M1987.99,749.17l33.67-19.622V690.316l-.173-.1-33.5-19.52-33.67,19.616v39.232l.186.109Zm32.967-20.038-32.967,19.2-32.954-19.2v-38.4l32.954-19.2,32.966,19.2Z" transform="translate(-1352.426 -631.871)" fill="#808285" opacity="0.84"/>
      <path id="Path_632" data-name="Path 632" d="M1779.74,1113.09l33.67-19.609v-39.238l-.173-.109-33.5-19.514-33.67,19.622v39.238l.173.09Zm32.967-20.032-32.967,19.2-32.966-19.2v-38.4l32.966-19.2,32.967,19.2Z" transform="translate(-1010.896 -762.882)" fill="#808285" opacity="0.67"/>
      <path id="Path_633" data-name="Path 633" d="M1580.845,983.284l17.018-9.907v-19.84l-.186-.09-16.832-9.818-17,9.92v19.84l.173.1Zm16.275-10.33-16.3,9.5-16.314-9.5V953.972l16.339-9.466,16.275,9.466Z" transform="translate(-678.72 -730.126)" fill="#808285" opacity="0.63"/>
      <path id="Path_634" data-name="Path 634" d="M1580.858,1225.907l17.018-9.92v-19.84l-.186-.109-16.832-9.8-17.018,9.907v19.84l.173.109Zm16.275-10.33-16.3,9.5-16.314-9.5v-19l16.314-9.5,16.3,9.5Z" transform="translate(-678.733 -817.466)" fill="#808285" opacity="0.52"/>
      <path id="Path_635" data-name="Path 635" d="M1969.229,1251.381l.186-.109,66.816-38.925v-78.08l-.173-.109-66.829-38.918-.173.109-66.816,38.918v78.08l.173.1Zm66.3-39.456-66.3,38.63-66.285-38.63v-77.216l66.285-38.611,66.3,38.611Z" transform="translate(-1333.664 -784.706)" fill="#808285" opacity="0.99"/>
      <path id="Path_636" data-name="Path 636" d="M1997.349,1468.534l17.011-9.92v-19.808l-17.011-9.926-17,9.926v19.808Zm16.314-10.323-16.314,9.5-16.3-9.5V1439.2l16.3-9.5,16.314,9.5Z" transform="translate(-1361.784 -904.816)" fill="#808285" opacity="0.52"/>
      <path id="Path_637" data-name="Path 637" d="M2035.52,1441.648v-64.294l-66.291-38.611-66.285,38.611v64.294h-.7v-64.717l66.816-38.925.173-.1,66.822,38.925.179.1v64.717Z" transform="translate(-1333.664 -872.067)" fill="#808285" opacity="0.65"/>
      <path id="Path_638" data-name="Path 638" d="M2196.22,749.17l33.67-19.622V690.316l-.186-.1L2196.22,670.7l-33.67,19.616v39.232l.173.109Zm32.966-20.038-32.966,19.2-32.967-19.2v-38.4l32.967-19.2,32.966,19.2Z" transform="translate(-1693.922 -631.871)" fill="#808285" opacity="0.99"/>
      <path id="Path_639" data-name="Path 639" d="M2177.5,1251.381l.173-.109,66.81-38.925v-78.08l-.173-.109L2177.5,1095.24l-.186.109-66.816,38.918v78.08l.192.1Zm66.278-39.456-66.278,38.63-66.285-38.63v-77.216L2177.5,1096.1l66.278,38.611Z" transform="translate(-1675.204 -784.706)" fill="#808285" opacity="0.77"/>
      <path id="Path_640" data-name="Path 640" d="M2020.213,1354.3l44.454-25.888v-154.88l-132.922-77.421-132.928,77.421v154.88l44.461,25.888h-1.408l-43.577-25.376-.173-.109V1173.133l133.453-77.734.173-.109,133.453,77.734.186.109V1328.82l-43.75,25.485Z" transform="translate(-1296.181 -784.724)" fill="#808285" opacity="0.81"/>
      <path id="Path_641" data-name="Path 641" d="M2205.6,1468.534l17.011-9.92v-19.808l-17.011-9.926-17.018,9.926v19.808Zm16.294-10.323-16.294,9.5-16.314-9.5V1439.2l16.314-9.5,16.294,9.5Z" transform="translate(-1703.3 -904.816)" fill="#808285"/>
      <path id="Path_642" data-name="Path 642" d="M1827.287,1441.648v-64.294l-66.278-38.611-66.278,38.611v64.294h-.71v-64.717l66.816-38.925.173-.1,66.81,38.925.173.1v64.717Z" transform="translate(-992.164 -872.067)" fill="#808285" opacity="0.63"/>
      <path id="Path_643" data-name="Path 643" d="M1789.108,1468.534l17.018-9.92v-19.808l-17.018-9.926-17.017,9.926v19.808Zm16.314-10.323-16.314,9.5-16.313-9.5V1439.2l16.313-9.5,16.314,9.5Z" transform="translate(-1020.263 -904.816)" fill="#808285" opacity="0.58"/>
      <path id="Path_644" data-name="Path 644" d="M1827.287,1441.648v-64.294l-66.278-38.611-66.278,38.611v64.294h-.71v-64.717l66.816-38.925.173-.1,66.81,38.925.173.1v64.717Z" transform="translate(-992.164 -872.067)" fill="#808285" opacity="0.6"/>
      <path id="Path_645" data-name="Path 645" d="M2025.1,1485.312l-43.392-25.28-43.379,25.28h-1.421l44.8-26.112,44.813,26.112Z" transform="translate(-1346.145 -915.731)" fill="#808285" opacity="0.6"/>
      <path id="Path_646" data-name="Path 646" d="M1997.349,740.68l17.011-9.92V710.92l-.167-.1L1997.349,701l-17,9.92v19.84l.166.115Zm16.314-10.33-16.314,9.5-16.3-9.5V711.342l16.3-9.5,16.314,9.5Z" transform="translate(-1361.784 -642.779)" fill="#808285" opacity="0.62"/>
      <path id="Path_647" data-name="Path 647" d="M1997.349,983.284l17.011-9.907v-19.84l-.167-.09-16.845-9.818-17,9.907v19.84l.166.1Zm16.314-10.33-16.314,9.5-16.3-9.5V953.972l16.3-9.466,16.314,9.5Z" transform="translate(-1361.784 -730.126)" fill="#808285" opacity="0.92"/>
      <path id="Path_648" data-name="Path 648" d="M1969.229,1251.381l.186-.109,66.816-38.925v-78.08l-.173-.109-66.829-38.918-.173.109-66.816,38.918v78.08l.173.1Zm66.3-39.456-66.3,38.63-66.285-38.63v-77.216l66.285-38.611,66.3,38.611Z" transform="translate(-1333.664 -784.706)" fill="#808285" opacity="0.56"/>
      <path id="Path_649" data-name="Path 649" d="M2404.458,1234.4l33.67-19.61v-39.232l-.173-.115-33.5-19.514-33.658,19.629v39.232l.166.1Zm32.966-20.032-32.966,19.2-32.973-19.2v-38.4l32.973-19.2,32.966,19.2Z" transform="translate(-2035.44 -806.554)" fill="#808285" opacity="0.66"/>
      <path id="Path_650" data-name="Path 650" d="M2177.5,1372.674l66.982-39.04v-78.08l-.173-.09L2177.5,1216.54l-67,39.04v78.08l.192.1Zm66.278-39.437-66.278,38.6-66.285-38.6v-77.222l66.285-38.6,66.278,38.6Z" transform="translate(-1675.204 -828.374)" fill="#808285" opacity="0.95"/>
      <path id="Path_651" data-name="Path 651" d="M2348.255,1164.052l.173-.109,133.446-77.754V930.5l-.167-.09L2348.255,852.66l-.173.109L2214.63,930.5v155.686l.173.115Zm132.922-78.266-132.922,77.44-132.922-77.44V930.958l132.922-77.44,132.922,77.44Z" transform="translate(-1979.238 -697.377)" fill="#808285" opacity="0.83"/>
      <path id="Path_652" data-name="Path 652" d="M2205.6,983.284l17.011-9.907v-19.84l-.186-.09L2205.6,943.63l-17.018,9.907v19.84l.173.1Zm16.294-10.33-16.294,9.5-16.314-9.5V953.972l16.314-9.466,16.294,9.5Z" transform="translate(-1703.3 -730.126)" fill="#808285" opacity="0.96"/>
      <path id="Path_653" data-name="Path 653" d="M2594,1008.769l.185-.109,66.8-38.925V891.694l-.167-.109-66.829-38.925-.173.109L2527,891.694v78.042l.173.115Zm66.291-39.411L2594,1007.969l-66.284-38.611V892.1L2594,853.518l66.291,38.611Z" transform="translate(-2358.264 -697.377)" fill="#808285" opacity="0.69"/>
      <path id="Path_654" data-name="Path 654" d="M2404.47,1355.714l33.67-19.622v-39.219l-.173-.109-33.5-19.514-33.67,19.622v39.219l.166.109Zm32.966-20.026-32.966,19.2-32.973-19.2v-38.4l32.973-19.2,32.966,19.2Z" transform="translate(-2035.452 -850.229)" fill="#808285" opacity="0.55"/>
      <path id="Path_655" data-name="Path 655" d="M2385.719,1130.1l.173-.109,66.822-38.925V1013.04l-.185-.109L2385.719,974l-.173.109-66.816,38.918v78.08l.173.109ZM2452,1090.653l-66.278,38.611-66.3-38.611v-77.235l66.285-38.6,66.278,38.6Z" transform="translate(-2016.701 -741.059)" fill="#808285" opacity="0.8"/>
      <path id="Path_656" data-name="Path 656" d="M2441.595,1485.312l-43.392-25.28-43.392,25.28h-1.421L2398.2,1459.2l44.813,26.112Z" transform="translate(-2029.185 -915.731)" fill="#808285" opacity="0.5"/>
      <path id="Path_657" data-name="Path 657" d="M2243.78,1441.648v-64.294l-66.278-38.611-66.279,38.611v64.294h-.723v-64.717l66.816-38.925.186-.1,66.809,38.925.173.1v64.717Z" transform="translate(-1675.204 -872.067)" fill="#808285" opacity="0.76"/>
      <path id="Path_658" data-name="Path 658" d="M2385.719,1372.674l66.995-39.04v-78.08l-.185-.09-66.81-38.925-66.989,39.04v78.08l.173.1ZM2452,1333.238l-66.278,38.6-66.3-38.6v-77.222l66.285-38.6,66.278,38.6Z" transform="translate(-2016.701 -828.374)" fill="#808285" opacity="0.93"/>
      <path id="Path_659" data-name="Path 659" d="M2634.55,1463.482l11.124-6.483v-38.406l-32.967-19.206-32.96,19.206V1457l11.13,6.483h-1.408l-10.438-6.08V1418.17l33.677-19.609,33.683,19.609V1457.4l-10.438,6.08Z" transform="translate(-2376.969 -893.901)" fill="#808285" opacity="0.67"/>
      <path id="Path_660" data-name="Path 660" d="M2441.595,1485.312l-43.392-25.28-43.392,25.28h-1.421L2398.2,1459.2l44.813,26.112Z" transform="translate(-2029.185 -915.731)" fill="#808285" opacity="0.56"/>
      <path id="Path_661" data-name="Path 661" d="M2413.847,740.68l17.011-9.92V710.92l-.167-.1L2413.847,701l-17.018,9.92v19.84l.186.115Zm16.313-10.33-16.313,9.5-16.3-9.5V711.342l16.3-9.5,16.313,9.5Z" transform="translate(-2044.83 -642.779)" fill="#808285" opacity="0.71"/>
      <path id="Path_662" data-name="Path 662" d="M2385.719,766.171l.173-.109,66.822-38.931v-78.08l-.185-.1-66.81-38.918-.173.1-66.816,38.925v78.08l.173.109ZM2452,726.734l-66.278,38.611-66.3-38.643V649.48l66.285-38.611,66.278,38.611Z" transform="translate(-2016.701 -610.03)" fill="#808285" opacity="0.63"/>
      <path id="Path_663" data-name="Path 663" d="M2802.232,766.171l.166-.109,66.816-38.931v-78.08l-.173-.1-66.809-38.918-67,39.04v78.061l.186.109Zm66.278-39.437-66.278,38.611-66.285-38.611V649.48l66.285-38.611,66.278,38.611Z" transform="translate(-2699.761 -610.03)" fill="#808285" opacity="0.93"/>
      <path id="Path_664" data-name="Path 664" d="M2802.232,1008.769l66.982-39.04V891.694l-.173-.109-66.809-38.925-67,39.04v78.042l.186.115Zm66.278-39.411-66.278,38.611-66.285-38.611V892.1l66.285-38.579,66.278,38.611Z" transform="translate(-2699.761 -697.377)" fill="#808285" opacity="0.64"/>
      <path id="Path_665" data-name="Path 665" d="M2556.476,1164.052l.186-.109,133.453-77.754V930.5l-.186-.09L2556.476,852.66l-.173.109L2422.85,930.5v155.686l.173.115Zm132.9-78.266-132.915,77.44-132.922-77.44V930.958l132.934-77.44,132.9,77.44Z" transform="translate(-2320.738 -697.377)" fill="#808285" opacity="0.89"/>
      <path id="Path_666" data-name="Path 666" d="M2413.847,983.284l17.011-9.907v-19.84l-.167-.09-16.845-9.818-17.018,9.92v19.84l.186.1Zm16.313-10.33-16.313,9.5-16.3-9.5V953.972l16.3-9.466,16.313,9.5Z" transform="translate(-2044.83 -730.126)" fill="#808285" opacity="0.65"/>
      <path id="Path_667" data-name="Path 667" d="M2413.847,1225.907l17.011-9.92v-19.84l-.167-.109-16.845-9.8-17.018,9.907v19.84l.186.109Zm16.313-10.33-16.313,9.5-16.3-9.5v-19l16.3-9.5,16.313,9.5Z" transform="translate(-2044.83 -817.466)" fill="#808285" opacity="0.62"/>
      <path id="Path_668" data-name="Path 668" d="M2830.317,1468.534l17.018-9.92v-19.808l-17.018-9.926-17.018,9.926v19.808Zm16.295-10.323-16.295,9.5-16.313-9.5V1439.2l16.313-9.5,16.295,9.5Z" transform="translate(-2727.847 -904.816)" fill="#808285" opacity="0.99"/>
      <path id="Path_669" data-name="Path 669" d="M2622.085,983.284l17.011-9.907v-19.84l-.173-.09-16.838-9.818-17,9.907v19.84l.173.1Zm16.307-10.33-16.307,9.5-16.3-9.5V953.972l16.3-9.466,16.307,9.5Z" transform="translate(-2386.347 -730.126)" fill="#808285" opacity="0.52"/>
      <path id="Path_670" data-name="Path 670" d="M2594,1008.769l.185-.109,66.8-38.925V891.694l-.167-.109-66.829-38.925-.173.109L2527,891.694v78.042l.173.115Zm66.291-39.411L2594,1007.969l-66.284-38.611V892.1L2594,853.518l66.291,38.611Z" transform="translate(-2358.264 -697.377)" fill="#808285" opacity="0.51"/>
      <path id="Path_671" data-name="Path 671" d="M2943.46,1242.713l35.469-20.672v-77.216l-35.469-20.672v-.813l36,20.966.186.115v78.042l-36.186,21.082Z" transform="translate(-2943.46 -794.822)" fill="#808285" opacity="0.65"/>
      <path id="Path_672" data-name="Path 672" d="M2802.232,1372.674l66.982-39.04v-78.08l-.173-.09-66.809-38.925-67,39.04v78.08l.186.1Zm66.278-39.437-66.278,38.6-66.285-38.6v-77.222l66.285-38.6,66.278,38.6Z" transform="translate(-2699.761 -828.374)" fill="#808285" opacity="0.51"/>
      <path id="Path_673" data-name="Path 673" d="M2995.53,1225.714l2.157-1.248V1186.06l-2.157-1.248v-.832l2.688,1.562.173.115v39.232l-2.861,1.658Z" transform="translate(-2995.53 -816.652)" fill="#808285" opacity="0.65"/>
      <path id="Path_674" data-name="Path 674" d="M2858.075,1485.312l-43.392-25.28-43.392,25.28h-1.421l44.813-26.112,44.813,26.112Z" transform="translate(-2712.213 -915.731)" fill="#808285" opacity="0.72"/>
      <path id="Path_675" data-name="Path 675" d="M2660.267,1441.648v-64.294l-66.3-38.611-66.285,38.611v64.294h-.7v-64.717l66.816-38.925.173-.1,66.81,38.925.185.1v64.717Z" transform="translate(-2358.231 -872.067)" fill="#808285" opacity="0.69"/>
      <path id="Path_676" data-name="Path 676" d="M2802.232,1372.674l66.982-39.04v-78.08l-.173-.09-66.809-38.925-67,39.04v78.08l.186.1Zm66.278-39.437-66.278,38.6-66.285-38.6v-77.222l66.285-38.6,66.278,38.6Z" transform="translate(-2699.761 -828.374)" fill="#808285" opacity="0.85"/>
      <path id="Path_677" data-name="Path 677" d="M2839.36,1155.366l102.112-59.482V941.024L2839.36,881.542v-.832L2942,940.505l.173.1v155.687l-102.81,59.91Z" transform="translate(-2839.36 -707.475)" fill="#808285" opacity="0.81"/>
      <path id="Path_678" data-name="Path 678" d="M2897.018,1364.4l44.454-25.888v-154.88l-102.112-59.482v-.813L2942,1183.122l.173.109v155.686l-43.731,25.485Z" transform="translate(-2839.36 -794.822)" fill="#808285" opacity="0.64"/>
      <path id="Path_679" data-name="Path 679" d="M2943.46,1121.4l35.469-20.653v-77.235l-35.469-20.659v-.826l36,20.966.186.109v78.048l-36.186,21.082Z" transform="translate(-2943.46 -751.15)" fill="#808285"/>
      <path id="Path_680" data-name="Path 680" d="M2990.706,1495.414l-12.576-7.328v-.826l14,8.154Z" transform="translate(-2978.13 -925.833)" fill="#808285" opacity="0.98"/>
      <path id="Path_681" data-name="Path 681" d="M2990.706,1495.414l-12.576-7.328v-.826l14,8.154Z" transform="translate(-2978.13 -925.833)" fill="#808285" opacity="0.63"/>
      <path id="Path_682" data-name="Path 682" d="M2943.46,757.479l35.469-20.666V659.585l-35.469-20.666V638.1l36,20.966.186.1v78.048l-36.186,21.075Z" transform="translate(-2943.46 -620.135)" fill="#808285" opacity="0.85"/>
      <path id="Path_683" data-name="Path 683" d="M2978.929,1451.738v-64.294l-35.469-20.672v-.832l36,20.986.186.1v64.717Z" transform="translate(-2943.46 -882.158)" fill="#808285" opacity="0.68"/>
      <path id="Path_684" data-name="Path 684" d="M1557.721,987.381a4.269,4.269,0,1,0,1.232-3.032A4.25,4.25,0,0,0,1557.721,987.381Z" transform="translate(-643.161 -744.328)" fill="#808285" opacity="0.81"/>
      <path id="Path_685" data-name="Path 685" d="M1583.791,1002.584a4.269,4.269,0,1,0,1.234-3.028,4.25,4.25,0,0,0-1.234,3.028Z" transform="translate(-685.915 -749.804)" fill="#808285" opacity="0.73"/>
      <path id="Path_686" data-name="Path 686" d="M1609.8,987.381a4.282,4.282,0,1,0,1.243-3.035A4.262,4.262,0,0,0,1609.8,987.381Z" transform="translate(-728.597 -744.328)" fill="#808285" opacity="0.76"/>
      <path id="Path_687" data-name="Path 687" d="M1167.31,1093.512a4.25,4.25,0,1,0,4.25-4.282,4.25,4.25,0,0,0-4.25,4.282Z" transform="translate(-2.888 -782.542)" fill="#808285" opacity="0.77"/>
      <path id="Path_688" data-name="Path 688" d="M1141.26,957.042a4.256,4.256,0,1,0,4.243-4.282A4.256,4.256,0,0,0,1141.26,957.042Z" transform="translate(39.821 -733.413)" fill="#808285" opacity="0.93"/>
      <path id="Path_689" data-name="Path 689" d="M1427.61,1366.462a4.262,4.262,0,1,0,1.237-3.022A4.249,4.249,0,0,0,1427.61,1366.462Z" transform="translate(-429.78 -880.804)" fill="#808285" opacity="0.69"/>
      <path id="Path_690" data-name="Path 690" d="M1271.42,1396.782a4.256,4.256,0,1,0,4.256-4.282A4.256,4.256,0,0,0,1271.42,1396.782Z" transform="translate(-173.641 -891.719)" fill="#808285" opacity="0.52"/>
      <path id="Path_691" data-name="Path 691" d="M1479.721,1275.491a4.269,4.269,0,1,0,1.234-3.035,4.25,4.25,0,0,0-1.234,3.035Z" transform="translate(-515.241 -848.048)" fill="#808285" opacity="0.78"/>
      <path id="Path_692" data-name="Path 692" d="M1271.421,1275.491a4.269,4.269,0,1,0,1.234-3.035A4.256,4.256,0,0,0,1271.421,1275.491Z" transform="translate(-173.641 -848.048)" fill="#808285" opacity="0.81"/>
      <path id="Path_693" data-name="Path 693" d="M1375.54,972.2a4.256,4.256,0,1,0,4.256-4.282A4.256,4.256,0,0,0,1375.54,972.2Z" transform="translate(-344.397 -738.87)" fill="#808285" opacity="0.73"/>
      <path id="Path_694" data-name="Path 694" d="M1375.541,729.581a4.275,4.275,0,1,0,1.236-3.033A4.256,4.256,0,0,0,1375.541,729.581Z" transform="translate(-344.398 -651.52)" fill="#808285" opacity="0.63"/>
      <path id="Path_695" data-name="Path 695" d="M1479.72,790.242a4.25,4.25,0,1,0,4.256-4.282A4.249,4.249,0,0,0,1479.72,790.242Z" transform="translate(-515.24 -673.365)" fill="#808285" opacity="0.52"/>
      <path id="Path_696" data-name="Path 696" d="M1271.42,668.938a4.256,4.256,0,1,0,4.256-4.288,4.256,4.256,0,0,0-4.256,4.288Z" transform="translate(-173.641 -629.693)" fill="#808285" opacity="0.78"/>
      <path id="Path_697" data-name="Path 697" d="M1583.79,1154.174a4.262,4.262,0,1,0,1.233-3.03,4.25,4.25,0,0,0-1.233,3.03Z" transform="translate(-685.915 -804.376)" fill="#808285" opacity="0.94"/>
      <path id="Path_698" data-name="Path 698" d="M1635.84,1063.184a4.256,4.256,0,1,0,4.25-4.295,4.256,4.256,0,0,0-4.25,4.295Z" transform="translate(-771.29 -771.62)" fill="#808285" opacity="0.83"/>
      <path id="Path_699" data-name="Path 699" d="M1531.72,1063.184a4.25,4.25,0,1,0,4.25-4.294A4.25,4.25,0,0,0,1531.72,1063.184Z" transform="translate(-600.52 -771.62)" fill="#808285" opacity="0.64"/>
      <path id="Path_700" data-name="Path 700" d="M1739.951,1002.584a4.262,4.262,0,1,0,4.25-4.294,4.262,4.262,0,0,0-4.25,4.294Z" transform="translate(-942.043 -749.804)" fill="#808285" opacity="0.89"/>
      <path id="Path_701" data-name="Path 701" d="M1792.041,1032.865a4.262,4.262,0,1,0,1.233-3.03A4.249,4.249,0,0,0,1792.041,1032.865Z" transform="translate(-1027.445 -760.704)" fill="#808285" opacity="0.85"/>
      <path id="Path_702" data-name="Path 702" d="M1687.9,1275.491a4.269,4.269,0,1,0,1.234-3.035A4.256,4.256,0,0,0,1687.9,1275.491Z" transform="translate(-856.668 -848.048)" fill="#808285" opacity="0.99"/>
      <path id="Path_703" data-name="Path 703" d="M1792.041,1457.444a4.269,4.269,0,1,0,1.234-3.028,4.249,4.249,0,0,0-1.234,3.028Z" transform="translate(-1027.445 -913.553)" fill="#808285" opacity="0.73"/>
      <path id="Path_704" data-name="Path 704" d="M1583.791,1336.131a4.262,4.262,0,1,0,1.23-3.034A4.249,4.249,0,0,0,1583.791,1336.131Z" transform="translate(-685.915 -869.878)" fill="#808285" opacity="0.99"/>
      <path id="Path_705" data-name="Path 705" d="M1739.951,1487.765a4.262,4.262,0,1,0,4.25-4.295,4.262,4.262,0,0,0-4.25,4.295Z" transform="translate(-942.043 -924.468)" fill="#808285" opacity="0.54"/>
      <ellipse id="Ellipse_1" data-name="Ellipse 1" cx="4.25" cy="4.288" rx="4.25" ry="4.288" transform="translate(897.875 54.362)" fill="#808285" opacity="0.78"/>
      <path id="Path_706" data-name="Path 706" d="M1844.08,1123.842a4.262,4.262,0,1,0,4.269-4.282,4.262,4.262,0,0,0-4.269,4.282Z" transform="translate(-1112.816 -793.461)" fill="#808285" opacity="0.53"/>
      <path id="Path_707" data-name="Path 707" d="M1739.95,1063.184a4.262,4.262,0,1,0,4.25-4.294A4.262,4.262,0,0,0,1739.95,1063.184Z" transform="translate(-942.043 -771.62)" fill="#808285" opacity="0.99"/>
      <path id="Path_708" data-name="Path 708" d="M1557.721,987.381a4.269,4.269,0,1,0,1.232-3.032A4.25,4.25,0,0,0,1557.721,987.381Z" transform="translate(-643.161 -744.328)" fill="#808285" opacity="0.63"/>
      <path id="Path_709" data-name="Path 709" d="M1609.8,1199.661a4.281,4.281,0,1,0,1.243-3.036A4.263,4.263,0,0,0,1609.8,1199.661Z" transform="translate(-728.597 -820.749)" fill="#808285" opacity="0.81"/>
      <path id="Path_710" data-name="Path 710" d="M1896.17,1275.491a4.269,4.269,0,1,0,1.232-3.032A4.25,4.25,0,0,0,1896.17,1275.491Z" transform="translate(-1198.219 -848.048)" fill="#808285" opacity="0.77"/>
      <path id="Path_711" data-name="Path 711" d="M2000.26,1336.131a4.262,4.262,0,1,0,4.256-4.3A4.262,4.262,0,0,0,2000.26,1336.131Z" transform="translate(-1368.952 -869.878)" fill="#808285" opacity="0.54"/>
      <path id="Path_712" data-name="Path 712" d="M2104.38,1275.491a4.275,4.275,0,1,0,1.241-3.037A4.262,4.262,0,0,0,2104.38,1275.491Z" transform="translate(-1539.708 -848.048)" fill="#808285" opacity="0.85"/>
      <path id="Path_713" data-name="Path 713" d="M2104.38,1154.174a4.276,4.276,0,1,0,1.243-3.033A4.263,4.263,0,0,0,2104.38,1154.174Z" transform="translate(-1539.708 -804.376)" fill="#808285" opacity="0.56"/>
      <path id="Path_714" data-name="Path 714" d="M2000.26,1093.512a4.262,4.262,0,1,0,4.256-4.282,4.262,4.262,0,0,0-4.256,4.282Z" transform="translate(-1368.951 -782.542)" fill="#808285" opacity="0.85"/>
      <path id="Path_715" data-name="Path 715" d="M1974.23,1442.284a4.276,4.276,0,1,0,1.243-3.033,4.263,4.263,0,0,0-1.243,3.033Z" transform="translate(-1326.262 -908.096)" fill="#808285" opacity="0.61"/>
      <path id="Path_716" data-name="Path 716" d="M2208.521,668.938a4.263,4.263,0,1,0,1.235-3.026,4.25,4.25,0,0,0-1.235,3.026Z" transform="translate(-1710.473 -629.693)" fill="#808285" opacity="0.58"/>
      <path id="Path_717" data-name="Path 717" d="M2208.521,1336.131a4.262,4.262,0,1,0,1.23-3.034,4.25,4.25,0,0,0-1.23,3.034Z" transform="translate(-1710.472 -869.878)" fill="#808285" opacity="0.77"/>
      <path id="Path_718" data-name="Path 718" d="M1792.041,1457.444a4.269,4.269,0,1,0,1.234-3.028,4.249,4.249,0,0,0-1.234,3.028Z" transform="translate(-1027.445 -913.553)" fill="#808285" opacity="0.57"/>
      <path id="Path_719" data-name="Path 719" d="M2182.48,1472.584a4.256,4.256,0,1,0,4.256-4.294,4.256,4.256,0,0,0-4.256,4.294Z" transform="translate(-1667.78 -919.004)" fill="#808285" opacity="0.91"/>
      <path id="Path_720" data-name="Path 720" d="M1766,1472.584a4.256,4.256,0,1,0,4.25-4.294,4.256,4.256,0,0,0-4.25,4.294Z" transform="translate(-984.752 -919.004)" fill="#808285" opacity="0.98"/>
      <path id="Path_721" data-name="Path 721" d="M1974.23,744.758a4.276,4.276,0,1,0,1.246-3.029,4.263,4.263,0,0,0-1.246,3.029Z" transform="translate(-1326.262 -656.988)" fill="#808285" opacity="0.9"/>
      <path id="Path_722" data-name="Path 722" d="M2000.26,941.881a4.262,4.262,0,1,0,4.256-4.282,4.263,4.263,0,0,0-4.256,4.282Z" transform="translate(-1368.951 -727.955)" fill="#808285" opacity="0.68"/>
      <path id="Path_723" data-name="Path 723" d="M2416.771,1275.491a4.263,4.263,0,1,0,1.23-3.034A4.25,4.25,0,0,0,2416.771,1275.491Z" transform="translate(-2052.003 -848.048)" fill="#808285" opacity="0.95"/>
      <path id="Path_724" data-name="Path 724" d="M2312.651,1275.491a4.268,4.268,0,1,0,1.232-3.032,4.25,4.25,0,0,0-1.232,3.032Z" transform="translate(-1881.246 -848.048)" fill="#808285" opacity="0.9"/>
      <path id="Path_725" data-name="Path 725" d="M2208.521,1214.821a4.262,4.262,0,1,0,1.23-3.034,4.25,4.25,0,0,0-1.23,3.034Z" transform="translate(-1710.472 -826.206)" fill="#808285" opacity="0.94"/>
      <path id="Path_726" data-name="Path 726" d="M2208.521,972.2a4.263,4.263,0,1,0,1.237-3.022,4.25,4.25,0,0,0-1.237,3.022Z" transform="translate(-1710.473 -738.87)" fill="#808285" opacity="0.57"/>
      <path id="Path_727" data-name="Path 727" d="M2234.53,987.381a4.275,4.275,0,1,0,1.239-3.035A4.263,4.263,0,0,0,2234.53,987.381Z" transform="translate(-1753.154 -744.328)" fill="#808285" opacity="0.72"/>
      <path id="Path_728" data-name="Path 728" d="M2625,850.9a4.269,4.269,0,1,0,1.234-3.028A4.256,4.256,0,0,0,2625,850.9Z" transform="translate(-2393.512 -695.199)" fill="#808285" opacity="0.79"/>
      <path id="Path_729" data-name="Path 729" d="M2520.9,911.581a4.25,4.25,0,1,0,4.25-4.3A4.249,4.249,0,0,0,2520.9,911.581Z" transform="translate(-2222.775 -717.04)" fill="#808285" opacity="0.89"/>
      <path id="Path_730" data-name="Path 730" d="M2364.7,1305.811a4.269,4.269,0,1,0,1.232-3.032A4.256,4.256,0,0,0,2364.7,1305.811Z" transform="translate(-1966.62 -858.963)" fill="#808285" opacity="0.54"/>
      <path id="Path_731" data-name="Path 731" d="M2520.9,1154.174a4.269,4.269,0,1,0,1.235-3.028A4.249,4.249,0,0,0,2520.9,1154.174Z" transform="translate(-2222.775 -804.376)" fill="#808285" opacity="0.83"/>
      <path id="Path_732" data-name="Path 732" d="M2416.771,1457.444a4.269,4.269,0,1,0,1.235-3.028A4.25,4.25,0,0,0,2416.771,1457.444Z" transform="translate(-2052.002 -913.553)" fill="#808285" opacity="0.55"/>
      <path id="Path_733" data-name="Path 733" d="M2208.521,1336.131a4.262,4.262,0,1,0,1.23-3.034,4.25,4.25,0,0,0-1.23,3.034Z" transform="translate(-1710.472 -869.878)" fill="#808285" opacity="0.74"/>
      <path id="Path_734" data-name="Path 734" d="M2520.88,1396.782a4.256,4.256,0,1,0,4.25-4.282A4.256,4.256,0,0,0,2520.88,1396.782Z" transform="translate(-2222.755 -891.719)" fill="#808285" opacity="0.57"/>
      <path id="Path_735" data-name="Path 735" d="M2312.651,1275.491a4.268,4.268,0,1,0,1.232-3.032,4.25,4.25,0,0,0-1.232,3.032Z" transform="translate(-1881.246 -848.048)" fill="#808285" opacity="0.7"/>
      <path id="Path_736" data-name="Path 736" d="M2677.081,1487.765a4.25,4.25,0,1,0,4.256-4.295A4.25,4.25,0,0,0,2677.081,1487.765Z" transform="translate(-2478.912 -924.468)" fill="#808285" opacity="0.95"/>
      <path id="Path_737" data-name="Path 737" d="M2625,1396.782a4.256,4.256,0,1,0,4.25-4.282A4.256,4.256,0,0,0,2625,1396.782Z" transform="translate(-2393.512 -891.719)" fill="#808285" opacity="0.99"/>
      <ellipse id="Ellipse_2" data-name="Ellipse 2" cx="4.25" cy="4.288" rx="4.25" ry="4.288" transform="translate(364.768 54.362)" fill="#808285" opacity="0.58"/>
      <path id="Path_738" data-name="Path 738" d="M2312.65,790.242a4.249,4.249,0,1,0,4.25-4.282A4.249,4.249,0,0,0,2312.65,790.242Z" transform="translate(-1881.245 -673.365)" fill="#808285" opacity="0.65"/>
      <path id="Path_739" data-name="Path 739" d="M2729.13,790.242a4.256,4.256,0,1,0,4.262-4.282A4.256,4.256,0,0,0,2729.13,790.242Z" transform="translate(-2564.285 -673.365)" fill="#808285" opacity="0.66"/>
      <path id="Path_740" data-name="Path 740" d="M2833.251,1093.512a4.262,4.262,0,1,0,1.237-3.022A4.249,4.249,0,0,0,2833.251,1093.512Z" transform="translate(-2735.03 -782.542)" fill="#808285" opacity="0.65"/>
      <path id="Path_741" data-name="Path 741" d="M2937.38,1032.864a4.263,4.263,0,1,0,1.233-3.03,4.25,4.25,0,0,0-1.233,3.03Z" transform="translate(-2905.803 -760.704)" fill="#808285" opacity="0.8"/>
      <path id="Path_742" data-name="Path 742" d="M2390.721,987.381a4.25,4.25,0,1,0,4.25-4.3,4.25,4.25,0,0,0-4.25,4.3Z" transform="translate(-2009.281 -744.328)" fill="#808285" opacity="0.87"/>
      <path id="Path_743" data-name="Path 743" d="M2416.771,941.882a4.25,4.25,0,1,0,4.25-4.282A4.25,4.25,0,0,0,2416.771,941.882Z" transform="translate(-2052.002 -727.955)" fill="#808285" opacity="0.88"/>
      <path id="Path_744" data-name="Path 744" d="M2390.72,1229.992a4.249,4.249,0,1,0,4.25-4.281A4.249,4.249,0,0,0,2390.72,1229.992Z" transform="translate(-2009.28 -831.675)" fill="#808285" opacity="0.74"/>
      <path id="Path_745" data-name="Path 745" d="M2416.771,1245.152a4.25,4.25,0,1,0,4.25-4.281A4.25,4.25,0,0,0,2416.771,1245.152Z" transform="translate(-2052.002 -837.133)" fill="#808285"/>
      <path id="Path_746" data-name="Path 746" d="M2442.8,1199.661a4.249,4.249,0,1,0,4.249-4.3,4.249,4.249,0,0,0-4.249,4.3Z" transform="translate(-2094.692 -820.749)" fill="#808285"/>
      <path id="Path_747" data-name="Path 747" d="M2390.721,1199.661a4.25,4.25,0,1,0,4.25-4.3,4.25,4.25,0,0,0-4.25,4.3Z" transform="translate(-2009.281 -820.749)" fill="#808285" opacity="0.6"/>
      <path id="Path_748" data-name="Path 748" d="M2833.25,1487.765a4.263,4.263,0,1,0,1.233-3.03A4.249,4.249,0,0,0,2833.25,1487.765Z" transform="translate(-2735.03 -924.468)" fill="#808285" opacity="0.5"/>
      <path id="Path_749" data-name="Path 749" d="M2833.25,1427.124a4.256,4.256,0,1,0,1.231-3.032,4.249,4.249,0,0,0-1.231,3.032Z" transform="translate(-2735.03 -902.638)" fill="#808285" opacity="0.87"/>
      <path id="Path_750" data-name="Path 750" d="M2651.05,987.381a4.25,4.25,0,1,0,4.25-4.3,4.25,4.25,0,0,0-4.25,4.3Z" transform="translate(-2436.221 -744.328)" fill="#808285" opacity="0.67"/>
      <path id="Path_751" data-name="Path 751" d="M2598.98,957.042a4.256,4.256,0,1,0,4.269-4.282,4.256,4.256,0,0,0-4.269,4.282Z" transform="translate(-2350.84 -733.413)" fill="#808285" opacity="0.94"/>
      <path id="Path_752" data-name="Path 752" d="M2729.13,911.581a4.256,4.256,0,1,0,4.262-4.3A4.256,4.256,0,0,0,2729.13,911.581Z" transform="translate(-2564.285 -717.04)" fill="#808285" opacity="0.83"/>
      <path id="Path_753" data-name="Path 753" d="M2625,850.9a4.269,4.269,0,1,0,1.234-3.028A4.256,4.256,0,0,0,2625,850.9Z" transform="translate(-2393.512 -695.199)" fill="#808285" opacity="0.88"/>
      <path id="Path_754" data-name="Path 754" d="M2520.9,911.581a4.25,4.25,0,1,0,4.25-4.3A4.249,4.249,0,0,0,2520.9,911.581Z" transform="translate(-2222.775 -717.04)" fill="#808285" opacity="0.72"/>
      <path id="Path_755" data-name="Path 755" d="M2937.38,1275.491a4.268,4.268,0,1,0,1.232-3.032A4.25,4.25,0,0,0,2937.38,1275.491Z" transform="translate(-2905.803 -848.048)" fill="#808285" opacity="0.85"/>
      <path id="Path_756" data-name="Path 756" d="M2937.38,1154.174a4.269,4.269,0,1,0,1.235-3.028A4.25,4.25,0,0,0,2937.38,1154.174Z" transform="translate(-2905.803 -804.376)" fill="#808285" opacity="0.72"/>
      <path id="Path_757" data-name="Path 757" d="M2989.267,1181.045a4.22,4.22,0,0,1,2.515-.845,4.3,4.3,0,1,1-2.515,7.75Z" transform="translate(-2989.267 -815.291)" fill="#808285" opacity="0.75"/>
      <path id="Path_758" data-name="Path 758" d="M2520.9,1396.782a4.249,4.249,0,1,0,4.25-4.282A4.249,4.249,0,0,0,2520.9,1396.782Z" transform="translate(-2222.775 -891.719)" fill="#808285" opacity="0.93"/>
      <path id="Path_759" data-name="Path 759" d="M2937.38,1396.782a4.25,4.25,0,1,0,4.25-4.282A4.249,4.249,0,0,0,2937.38,1396.782Z" transform="translate(-2905.802 -891.719)" fill="#808285" opacity="0.95"/>
      <path id="Path_760" data-name="Path 760" d="M2833.251,972.2a4.262,4.262,0,1,0,1.237-3.022A4.249,4.249,0,0,0,2833.251,972.2Z" transform="translate(-2735.03 -738.87)" fill="#808285" opacity="0.55"/>
      <path id="Path_761" data-name="Path 761" d="M2833.251,1214.821a4.263,4.263,0,1,0,1.23-3.034A4.249,4.249,0,0,0,2833.251,1214.821Z" transform="translate(-2735.03 -826.206)" fill="#808285" opacity="0.59"/>
    </g>
    <g id="Group_8" data-name="Group 8" transform="translate(901.766)">
      <path id="Path_762" data-name="Path 762" d="M10.848,0h1.427L.7,6.733V161.6l17.965,10.464v.826L.173,162.118l-.173-.1V6.323Z" transform="translate(999.571)" fill="#808285" opacity="0.85"/>
      <path id="Path_763" data-name="Path 763" d="M19.018,261.487l17.03-9.914v-19.84L19.037,221.82,2,231.753v19.84Zm16.3-10.33-16.3,9.5-16.307-9.5V232.175l16.307-9.5,16.3,9.5Z" transform="translate(980.906 -79.855)" fill="#808285" opacity="0.97"/>
      <path id="Path_764" data-name="Path 764" d="M11.4,0,21.9,6.118,32.4,0h1.427L21.9,6.944,9.98,0Z" transform="translate(978.02)" fill="#808285" opacity="0.72"/>
      <path id="Path_765" data-name="Path 765" d="M67,9.56l18.31,10.669v.826L67,10.386.71,49v77.222L67,164.83l18.31-10.662V155L67.174,165.56l-.179.1L.179,126.738l-.179-.1V48.581Z" transform="translate(932.928 -3.442)" fill="#808285" opacity="0.84"/>
      <path id="Path_766" data-name="Path 766" d="M199.175,286.94l66.989-39.04V169.82l-66.989-39.04-67,39.04V247.9ZM265.454,247.5l-66.278,38.618L132.89,247.5V170.274l66.285-38.611,66.278,38.611Z" transform="translate(667.474 -47.081)" fill="#808285" opacity="0.99"/>
      <path id="Path_767" data-name="Path 767" d="M199.175,286.94l66.989-39.04V169.82l-66.989-39.04-67,39.04V247.9ZM265.454,247.5l-66.278,38.618L132.89,247.5V170.274l66.285-38.611,66.278,38.611Z" transform="translate(667.474 -47.081)" fill="#808285" opacity="0.94"/>
      <path id="Path_768" data-name="Path 768" d="M219.634,0l10.509,6.118L240.639,0h1.427L230.143,6.944,218.22,0Z" transform="translate(636.506)" fill="#808285" opacity="0.98"/>
      <path id="Path_769" data-name="Path 769" d="M199.175,165.637l.173-.1,66.816-38.925V48.53L199.175,9.49l-67,39.04v78.08l.173.1ZM265.454,126.2l-66.278,38.6L132.89,126.2V48.972L199.175,10.36l66.278,38.611Z" transform="translate(667.474 -3.416)" fill="#808285" opacity="0.77"/>
      <path id="Path_770" data-name="Path 770" d="M219.634,0l10.509,6.118L240.639,0h1.427L230.143,6.944,218.22,0Z" transform="translate(636.506)" fill="#808285" opacity="0.63"/>
      <path id="Path_771" data-name="Path 771" d="M393.19,0V25.734l32.96,19.206,32.973-19.206V0h.71V26.15L426.15,45.766,392.48,26.15V0Z" transform="translate(307.213)" fill="#808285" opacity="0.67"/>
      <path id="Path_772" data-name="Path 772" d="M341.134,0V45.139l66.278,38.618L473.7,45.139V0h.7V45.555l-67,39.027L340.43,45.555V0Z" transform="translate(325.951)" fill="#808285" opacity="0.95"/>
      <path id="Path_773" data-name="Path 773" d="M435.531,261.487l17.011-9.914v-19.84l-17.011-9.914-17.011,9.914v19.84Zm16.3-10.33-16.3,9.5-16.307-9.5V232.175l16.307-9.5,16.3,9.5Z" transform="translate(297.838 -79.855)" fill="#808285" opacity="0.53"/>
      <path id="Path_774" data-name="Path 774" d="M199.175,165.637l.173-.1,66.816-38.925V48.53L199.175,9.49l-67,39.04v78.08l.173.1ZM265.454,126.2l-66.278,38.6L132.89,126.2V48.972L199.175,10.36l66.278,38.611Z" transform="translate(667.474 -3.416)" fill="#808285" opacity="0.52"/>
      <path id="Path_775" data-name="Path 775" d="M627.47,0V16.032l16.3,9.5,16.307-9.5V0h.71V16.448l-17.018,9.914L626.76,16.448V0Z" transform="translate(-43.682)" fill="#808285" opacity="0.9"/>
      <path id="Path_776" data-name="Path 776" d="M643.778,261.487l17.011-9.914v-19.84l-17.011-9.914-17.018,9.914v19.84Zm16.3-10.33-16.3,9.5-16.307-9.5V232.175l16.307-9.5,16.3,9.5Z" transform="translate(-43.682 -79.855)" fill="#808285" opacity="0.52"/>
      <path id="Path_777" data-name="Path 777" d="M369.926,442.249l.179-.1,133.453-77.741V208.713l-.179-.1L369.926,130.87l-.173.1L236.3,208.713V364.406l.166.109ZM502.847,363.99,369.926,441.43,237.01,363.99V209.11l132.915-77.44,132.922,77.44Z" transform="translate(363.444 -47.113)" fill="#808285" opacity="0.64"/>
      <path id="Path_778" data-name="Path 778" d="M407.419,165.637l.179-.1,66.81-38.925V48.53L407.419,9.49,340.43,48.53v78.08l.173.1ZM473.7,126.2l-66.285,38.6-66.285-38.6V48.972L407.419,10.36,473.7,48.972Z" transform="translate(325.951 -3.416)" fill="#808285" opacity="0.52"/>
      <path id="Path_779" data-name="Path 779" d="M634.432,269.988l33.67-19.616V211.146l-33.67-19.616-33.7,19.616v39.226ZM667.4,249.956l-32.966,19.2-32.96-19.2v-38.4l32.96-19.2,32.966,19.2Z" transform="translate(-34.336 -68.951)" fill="#808285" opacity="0.51"/>
      <path id="Path_780" data-name="Path 780" d="M757.62,0V45.139L823.9,83.757l66.285-38.618V0h.71V45.555l-67,39.027L757.083,45.664l-.173-.109V0Z" transform="translate(-357.083)" fill="#808285" opacity="0.58"/>
      <path id="Path_781" data-name="Path 781" d="M615.652,165.637l.179-.1,66.81-38.925V48.53L615.652,9.49,548.67,48.556v78.08l.179.1ZM681.931,126.2l-66.278,38.6-66.285-38.6V48.972L615.652,10.36l66.278,38.611Z" transform="translate(-15.556 -3.416)" fill="#808285" opacity="0.99"/>
      <path id="Path_782" data-name="Path 782" d="M419.224,0V16.032l16.3,9.5,16.307-9.5V0h.71V16.448l-17.018,9.914-17-9.914V0Z" transform="translate(297.838)" fill="#808285" opacity="0.98"/>
      <path id="Path_783" data-name="Path 783" d="M757.62,0V45.139L823.9,83.757l66.285-38.618V0h.71V45.555l-67,39.027L757.083,45.664l-.173-.109V0Z" transform="translate(-357.083)" fill="#808285" opacity="0.97"/>
      <path id="Path_784" data-name="Path 784" d="M407.419,286.94l66.989-39.04V169.82l-66.989-39.04L340.43,169.82V247.9ZM473.7,247.5l-66.285,38.618L341.134,247.5V170.274l66.285-38.611L473.7,170.274Z" transform="translate(325.951 -47.081)" fill="#808285" opacity="0.96"/>
      <path id="Path_785" data-name="Path 785" d="M407.419,286.94l66.989-39.04V169.82l-66.989-39.04L340.43,169.82V247.9ZM473.7,247.5l-66.285,38.618L341.134,247.5V170.274l66.285-38.611L473.7,170.274Z" transform="translate(325.951 -47.081)" fill="#808285" opacity="0.63"/>
      <path id="Path_786" data-name="Path 786" d="M634.432,633.918,668.1,614.3V575.07l-33.67-19.61-33.7,19.61V614.3ZM667.4,613.886l-32.966,19.2-32.96-19.2v-38.4l32.96-19.2,32.966,19.2Z" transform="translate(-34.336 -199.966)" fill="#808285" opacity="0.84"/>
      <path id="Path_787" data-name="Path 787" d="M615.665,650.87l66.989-39.04V533.75l-66.989-39.04-67,39.04v78.08Zm66.278-39.437-66.278,38.6-66.285-38.6V534.2l66.285-38.6,66.278,38.6Z" transform="translate(-15.569 -178.096)" fill="#808285" opacity="0.91"/>
      <path id="Path_788" data-name="Path 788" d="M549.38,0V45.139l66.278,38.618,66.285-38.618V0h.71V45.555l-67,39.027L548.67,45.555V0Z" transform="translate(-15.569)" fill="#808285" opacity="0.65"/>
      <path id="Path_789" data-name="Path 789" d="M844.374,0l10.5,6.118L865.379,0H866.8L854.877,6.944,842.96,0Z" transform="translate(-388.061)" fill="#808285" opacity="0.96"/>
      <path id="Path_790" data-name="Path 790" d="M786.412,442.249l.179-.1,133.453-77.741V208.713l-.179-.1L786.412,130.87l-.179.1L652.78,208.713V364.406l.179.109ZM919.334,363.99,786.412,441.43,653.49,363.99V209.11l132.922-77.44,132.922,77.44Z" transform="translate(-319.59 -47.113)" fill="#808285" opacity="0.95"/>
      <path id="Path_791" data-name="Path 791" d="M1050.893,269.988l33.67-19.616V211.146l-33.67-19.616-33.683,19.616v39.226Zm32.96-20.032-32.96,19.2-32.973-19.2v-38.4l32.973-19.2,32.96,19.2Z" transform="translate(-717.344 -68.951)" fill="#808285" opacity="0.81"/>
      <path id="Path_792" data-name="Path 792" d="M842.677,633.918,876.328,614.3V575.07l-33.67-19.61L809,575.07V614.3Zm32.96-20.032-32.96,19.2-32.96-19.2v-38.4l32.96-19.2,32.96,19.2Z" transform="translate(-375.854 -199.966)" fill="#808285" opacity="0.55"/>
      <path id="Path_793" data-name="Path 793" d="M1052.614,0l10.5,6.118L1073.619,0h1.421l-11.923,6.944L1051.2,0Z" transform="translate(-729.574)" fill="#808285" opacity="0.95"/>
      <path id="Path_794" data-name="Path 794" d="M1174.11,0V45.139l66.278,38.618,66.285-38.618V0h.71V45.555l-67,39.027L1173.4,45.555V0Z" transform="translate(-1040.126)" fill="#808285" opacity="0.88"/>
      <path id="Path_795" data-name="Path 795" d="M757.62,0V45.139L823.9,83.757l66.285-38.618V0h.71V45.555l-67,39.027L757.083,45.664l-.173-.109V0Z" transform="translate(-357.083)" fill="#808285" opacity="0.51"/>
      <path id="Path_796" data-name="Path 796" d="M873.305,0,861.74,6.733V161.6l132.922,77.434L1127.59,161.6V6.733L1116.019,0h1.414l10.688,6.221.173.1V162.016L994.835,239.757l-.173.1L861.209,162.118l-.179-.1V6.323L871.891,0Z" transform="translate(-661.12)" fill="#808285" opacity="0.85"/>
      <path id="Path_797" data-name="Path 797" d="M1268.5,261.487l17.011-9.914v-19.84L1268.5,221.82l-17.011,9.914v19.84Zm16.3-10.33-16.3,9.5-16.307-9.5V232.175l16.307-9.5,16.3,9.5Z" transform="translate(-1068.232 -79.855)" fill="#808285" opacity="0.61"/>
      <path id="Path_798" data-name="Path 798" d="M823.905,286.94l66.989-39.04V169.82l-66.989-39.04-.179.1L756.91,169.807v78.08l.166.154ZM890.2,247.5l-66.278,38.618L757.633,247.5V170.274l66.272-38.611L890.2,170.274Z" transform="translate(-357.083 -47.081)" fill="#808285" opacity="0.62"/>
      <path id="Path_799" data-name="Path 799" d="M994.638,442.249l.173-.1,133.472-77.741V208.713l-.173-.1L994.657,130.87l-.179.1L861,208.713V364.406l.186.109ZM1127.56,363.99,994.638,441.43,861.717,363.99V209.11l132.921-77.44,132.922,77.44Z" transform="translate(-661.089 -47.113)" fill="#808285" opacity="0.88"/>
      <path id="Path_800" data-name="Path 800" d="M1050.893,633.918l33.67-19.616V575.07l-33.67-19.61-33.683,19.61V614.3Zm32.96-20.032-32.96,19.2-32.973-19.2v-38.4l32.973-19.2,32.96,19.2Z" transform="translate(-717.344 -199.966)" fill="#808285" opacity="0.58"/>
      <path id="Path_801" data-name="Path 801" d="M823.905,529.567l.179-.1,66.81-38.925V412.46l-66.989-39.04-.179.1L756.91,412.441v78.08l.173.1ZM890.2,490.124l-66.291,38.611L757.62,490.124V412.9l66.285-38.611L890.2,412.9Z" transform="translate(-357.083 -134.431)" fill="#808285" opacity="0.54"/>
      <path id="Path_802" data-name="Path 802" d="M1382.344,0V45.139l66.285,38.618,66.285-38.618V0h.71V45.555l-67,39.027L1381.64,45.555V0Z" transform="translate(-1381.64)" fill="#808285" opacity="0.85"/>
      <path id="Path_803" data-name="Path 803" d="M1259.137,148.684l33.67-19.622V89.836l-33.67-19.616L1225.46,89.836v39.226Zm32.966-20.038-32.966,19.2-32.966-19.2v-38.4l32.966-19.2,32.966,19.2Z" transform="translate(-1058.868 -25.279)" fill="#808285" opacity="0.78"/>
      <path id="Path_804" data-name="Path 804" d="M1260.87,0l10.5,6.118L1281.875,0h1.414l-11.923,6.944L1259.45,0Z" transform="translate(-1071.104)" fill="#808285" opacity="0.62"/>
      <path id="Path_805" data-name="Path 805" d="M1434.417,0V25.734l32.96,19.206,32.96-19.206V0h.717V26.15l-33.677,19.616L1433.7,26.15V0Z" transform="translate(-1400.388)" fill="#808285" opacity="0.65"/>
      <path id="Path_806" data-name="Path 806" d="M1382.344,0V45.139l66.285,38.618,66.285-38.618V0h.71V45.555l-67,39.027L1381.64,45.555V0Z" transform="translate(-1381.64)" fill="#808285" opacity="0.61"/>
      <path id="Path_807" data-name="Path 807" d="M1032.145,286.94l66.989-39.04V169.82l-66.989-39.04-.179.1L965.15,169.807v78.08l.173.109Zm66.278-39.443-66.279,38.618L965.854,247.5V170.274l66.291-38.611,66.279,38.611Z" transform="translate(-698.596 -47.081)" fill="#808285" opacity="0.95"/>
      <path id="Path_808" data-name="Path 808" d="M1448.635,529.567l.179-.1,66.809-38.925V412.46l-66.989-39.04-67,39.04v78.08l.173.1Zm66.278-39.443-66.278,38.611-66.291-38.611V412.9l66.291-38.611,66.278,38.611Z" transform="translate(-1381.64 -134.431)" fill="#808285" opacity="0.63"/>
      <path id="Path_809" data-name="Path 809" d="M1032.145,529.567l.173-.1,66.816-38.925V412.46l-66.989-39.04-.179.1L965.15,412.441v78.08l.173.1Zm66.278-39.443-66.279,38.611-66.291-38.611V412.9l66.291-38.611,66.279,38.611Z" transform="translate(-698.596 -134.431)" fill="#808285" opacity="0.67"/>
      <path id="Path_810" data-name="Path 810" d="M21.97,280.734A4.262,4.262,0,1,0,23.2,277.7,4.25,4.25,0,0,0,21.97,280.734Z" transform="translate(973.703 -99.518)" fill="#808285" opacity="0.69"/>
      <path id="Path_811" data-name="Path 811" d="M126.08,189.761a4.256,4.256,0,1,0,4.25-4.3,4.256,4.256,0,0,0-4.25,4.3Z" transform="translate(802.95 -66.766)" fill="#808285" opacity="0.97"/>
      <path id="Path_812" data-name="Path 812" d="M230.2,7.788A4.256,4.256,0,1,0,234.456,3.5,4.256,4.256,0,0,0,230.2,7.788Z" transform="translate(632.193 -1.26)" fill="#808285" opacity="0.91"/>
      <path id="Path_813" data-name="Path 813" d="M230.2,250.408a4.262,4.262,0,1,0,1.237-3.028,4.256,4.256,0,0,0-1.237,3.028Z" transform="translate(632.193 -88.603)" fill="#808285" opacity="0.86"/>
      <path id="Path_814" data-name="Path 814" d="M386.38,38.121a4.275,4.275,0,1,0,1.243-3.04,4.256,4.256,0,0,0-1.243,3.04Z" transform="translate(376.058 -12.175)" fill="#808285" opacity="0.72"/>
      <path id="Path_815" data-name="Path 815" d="M490.51,38.121a4.275,4.275,0,1,0,1.239-3.035,4.256,4.256,0,0,0-1.239,3.035Z" transform="translate(205.285 -12.175)" fill="#808285" opacity="0.54"/>
      <path id="Path_816" data-name="Path 816" d="M334.34,68.448a4.25,4.25,0,1,0,4.25-4.288,4.25,4.25,0,0,0-4.25,4.288Z" transform="translate(461.417 -23.098)" fill="#808285" opacity="0.86"/>
      <path id="Path_817" data-name="Path 817" d="M438.44,280.734a4.269,4.269,0,1,0,1.234-3.028A4.256,4.256,0,0,0,438.44,280.734Z" transform="translate(290.68 -99.518)" fill="#808285" opacity="0.69"/>
      <path id="Path_818" data-name="Path 818" d="M230.2,250.408a4.262,4.262,0,1,0,1.237-3.028,4.256,4.256,0,0,0-1.237,3.028Z" transform="translate(632.193 -88.603)" fill="#808285" opacity="0.62"/>
      <path id="Path_819" data-name="Path 819" d="M334.32,189.761a4.256,4.256,0,1,0,4.25-4.3,4.256,4.256,0,0,0-4.25,4.3Z" transform="translate(461.436 -66.766)" fill="#808285" opacity="0.51"/>
      <path id="Path_820" data-name="Path 820" d="M646.7,38.121a4.269,4.269,0,1,0,1.232-3.032A4.256,4.256,0,0,0,646.7,38.121Z" transform="translate(-50.867 -12.175)" fill="#808285" opacity="0.87"/>
      <path id="Path_821" data-name="Path 821" d="M672.7,235.248a4.256,4.256,0,1,0,4.256-4.288A4.256,4.256,0,0,0,672.7,235.248Z" transform="translate(-93.507 -83.146)" fill="#808285" opacity="0.66"/>
      <path id="Path_822" data-name="Path 822" d="M438.44,614.338a4.256,4.256,0,1,0,4.25-4.288,4.256,4.256,0,0,0-4.25,4.288Z" transform="translate(290.68 -219.618)" fill="#808285" opacity="0.66"/>
      <path id="Path_823" data-name="Path 823" d="M646.7,493.034a4.269,4.269,0,1,0,1.234-3.028A4.256,4.256,0,0,0,646.7,493.034Z" transform="translate(-50.867 -175.946)" fill="#808285" opacity="0.95"/>
      <path id="Path_824" data-name="Path 824" d="M230.2,250.408a4.262,4.262,0,1,0,1.237-3.028,4.256,4.256,0,0,0-1.237,3.028Z" transform="translate(632.193 -88.603)" fill="#808285" opacity="0.64"/>
      <path id="Path_825" data-name="Path 825" d="M438.44,250.408a4.262,4.262,0,1,0,1.235-3.026,4.256,4.256,0,0,0-1.235,3.026Z" transform="translate(290.68 -88.603)" fill="#808285" opacity="0.52"/>
      <path id="Path_826" data-name="Path 826" d="M542.57,189.761a4.275,4.275,0,1,0,1.236-3.033,4.256,4.256,0,0,0-1.236,3.033Z" transform="translate(119.906 -66.766)" fill="#808285" opacity="0.76"/>
      <path id="Path_827" data-name="Path 827" d="M542.57,68.448a4.256,4.256,0,1,0,4.256-4.288,4.256,4.256,0,0,0-4.256,4.288Z" transform="translate(119.906 -23.098)" fill="#808285" opacity="0.62"/>
      <path id="Path_828" data-name="Path 828" d="M698.75,220.088A4.256,4.256,0,1,0,703,215.8,4.256,4.256,0,0,0,698.75,220.088Z" transform="translate(-136.229 -77.688)" fill="#808285" opacity="0.5"/>
      <path id="Path_829" data-name="Path 829" d="M959.07,68.448a4.25,4.25,0,1,0,4.25-4.288,4.25,4.25,0,0,0-4.25,4.288Z" transform="translate(-563.141 -23.098)" fill="#808285" opacity="0.91"/>
      <path id="Path_830" data-name="Path 830" d="M420.313,0a4.218,4.218,0,0,1-2.842,1.114A4.2,4.2,0,0,1,414.63,0Z" transform="translate(332.557)" fill="#808285" opacity="0.6"/>
      <path id="Path_831" data-name="Path 831" d="M854.93,129.1a4.269,4.269,0,1,0,1.237-3.031A4.256,4.256,0,0,0,854.93,129.1Z" transform="translate(-392.364 -44.932)" fill="#808285" opacity="0.6"/>
      <path id="Path_832" data-name="Path 832" d="M542.57,189.761a4.275,4.275,0,1,0,1.236-3.033,4.256,4.256,0,0,0-1.236,3.033Z" transform="translate(119.906 -66.766)" fill="#808285" opacity="0.66"/>
      <path id="Path_833" data-name="Path 833" d="M698.75,644.668A4.256,4.256,0,1,0,703,640.38,4.256,4.256,0,0,0,698.75,644.668Z" transform="translate(-136.229 -230.537)" fill="#808285" opacity="0.58"/>
      <path id="Path_834" data-name="Path 834" d="M646.7,553.678a4.256,4.256,0,1,0,4.25-4.288A4.256,4.256,0,0,0,646.7,553.678Z" transform="translate(-50.867 -197.78)" fill="#808285" opacity="0.93"/>
      <path id="Path_835" data-name="Path 835" d="M594.64,584.011a4.269,4.269,0,1,0,1.232-3.032,4.25,4.25,0,0,0-1.232,3.032Z" transform="translate(34.524 -208.696)" fill="#808285" opacity="0.63"/>
      <path id="Path_836" data-name="Path 836" d="M542.57,674.988a4.256,4.256,0,1,0,4.256-4.288A4.256,4.256,0,0,0,542.57,674.988Z" transform="translate(119.906 -241.452)" fill="#808285" opacity="0.69"/>
      <path id="Path_837" data-name="Path 837" d="M646.7,129.1a4.269,4.269,0,1,0,1.234-3.028A4.256,4.256,0,0,0,646.7,129.1Z" transform="translate(-50.867 -44.932)" fill="#808285" opacity="0.77"/>
      <path id="Path_838" data-name="Path 838" d="M750.81,68.448a4.256,4.256,0,1,0,4.256-4.288,4.256,4.256,0,0,0-4.256,4.288Z" transform="translate(-221.607 -23.098)" fill="#808285" opacity="0.84"/>
      <path id="Path_839" data-name="Path 839" d="M1115.24,280.734a4.256,4.256,0,1,0,4.256-4.294,4.256,4.256,0,0,0-4.256,4.294Z" transform="translate(-819.272 -99.518)" fill="#808285" opacity="0.99"/>
      <path id="Path_840" data-name="Path 840" d="M1115.24,220.088a4.256,4.256,0,1,0,4.256-4.288,4.256,4.256,0,0,0-4.256,4.288Z" transform="translate(-819.272 -77.688)" fill="#808285" opacity="0.96"/>
      <path id="Path_841" data-name="Path 841" d="M1375.54,68.448a4.256,4.256,0,1,0,4.256-4.288,4.256,4.256,0,0,0-4.256,4.288Z" transform="translate(-1246.164 -23.098)" fill="#808285" opacity="0.68"/>
      <path id="Path_842" data-name="Path 842" d="M750.81,68.448a4.256,4.256,0,1,0,4.25-4.288A4.256,4.256,0,0,0,750.81,68.448Z" transform="translate(-221.607 -23.098)" fill="#808285" opacity="0.91"/>
      <path id="Path_843" data-name="Path 843" d="M959.07,68.448a4.25,4.25,0,1,0,4.25-4.288,4.25,4.25,0,0,0-4.25,4.288Z" transform="translate(-563.141 -23.098)" fill="#808285" opacity="0.73"/>
      <path id="Path_844" data-name="Path 844" d="M854.93,250.408a4.262,4.262,0,1,0,1.237-3.028,4.256,4.256,0,0,0-1.237,3.028Z" transform="translate(-392.364 -88.603)" fill="#808285" opacity="0.52"/>
      <path id="Path_845" data-name="Path 845" d="M854.93,7.788A4.256,4.256,0,1,0,859.186,3.5a4.256,4.256,0,0,0-4.256,4.288Z" transform="translate(-392.364 -1.26)" fill="#808285" opacity="0.76"/>
      <path id="Path_846" data-name="Path 846" d="M1245.39,265.584a4.256,4.256,0,1,0,4.256-4.294A4.256,4.256,0,0,0,1245.39,265.584Z" transform="translate(-1032.718 -94.064)" fill="#808285" opacity="0.57"/>
      <path id="Path_847" data-name="Path 847" d="M1297.45,235.248a4.256,4.256,0,1,0,4.256-4.288,4.256,4.256,0,0,0-4.256,4.288Z" transform="translate(-1118.097 -83.146)" fill="#808285" opacity="0.66"/>
      <path id="Path_848" data-name="Path 848" d="M1271.42,220.088a4.256,4.256,0,1,0,4.256-4.288,4.256,4.256,0,0,0-4.256,4.288Z" transform="translate(-1075.407 -77.688)" fill="#808285" opacity="0.78"/>
      <path id="Path_849" data-name="Path 849" d="M1063.18,674.988a4.256,4.256,0,1,0,4.263-4.288,4.256,4.256,0,0,0-4.263,4.288Z" transform="translate(-733.894 -241.452)" fill="#808285" opacity="0.87"/>
      <path id="Path_850" data-name="Path 850" d="M959.07,432.371a4.25,4.25,0,1,0,4.25-4.3A4.25,4.25,0,0,0,959.07,432.371Z" transform="translate(-563.141 -154.105)" fill="#808285" opacity="0.94"/>
      <path id="Path_851" data-name="Path 851" d="M854.93,371.718a4.256,4.256,0,1,0,4.256-4.288A4.256,4.256,0,0,0,854.93,371.718Z" transform="translate(-392.364 -132.275)" fill="#808285" opacity="0.85"/>
      <path id="Path_852" data-name="Path 852" d="M1375.54,68.448a4.256,4.256,0,1,0,4.25-4.288A4.256,4.256,0,0,0,1375.54,68.448Z" transform="translate(-1246.164 -23.098)" fill="#808285" opacity="0.56"/>
      <path id="Path_853" data-name="Path 853" d="M1479.721,129.1a4.269,4.269,0,1,0,1.237-3.031,4.25,4.25,0,0,0-1.237,3.031Z" transform="translate(-1417.007 -44.932)" fill="#808285" opacity="0.86"/>
      <path id="Path_854" data-name="Path 854" d="M1271.421,189.761a4.275,4.275,0,1,0,1.236-3.033,4.256,4.256,0,0,0-1.236,3.033Z" transform="translate(-1075.408 -66.766)" fill="#808285" opacity="0.53"/>
      <path id="Path_855" data-name="Path 855" d="M1427.6,38.121a4.269,4.269,0,1,0,1.234-3.035A4.256,4.256,0,0,0,1427.6,38.121Z" transform="translate(-1331.543 -12.175)" fill="#808285" opacity="0.72"/>
      <path id="Path_856" data-name="Path 856" d="M1531.721,38.121a4.25,4.25,0,1,0,4.25-4.3A4.25,4.25,0,0,0,1531.721,38.121Z" transform="translate(-1502.287 -12.175)" fill="#808285" opacity="0.59"/>
      <path id="Path_857" data-name="Path 857" d="M959.07,311.064a4.25,4.25,0,1,0,4.25-4.294A4.25,4.25,0,0,0,959.07,311.064Z" transform="translate(-563.141 -110.437)" fill="#808285" opacity="0.89"/>
      <path id="Path_858" data-name="Path 858" d="M1167.31,311.064a4.263,4.263,0,1,0,1.233-3.03,4.25,4.25,0,0,0-1.233,3.03Z" transform="translate(-904.654 -110.437)" fill="#808285" opacity="0.59"/>
      <path id="Path_859" data-name="Path 859" d="M1479.72,371.718a4.25,4.25,0,1,0,4.256-4.288,4.25,4.25,0,0,0-4.256,4.288Z" transform="translate(-1417.007 -132.275)" fill="#808285" opacity="0.97"/>
      <path id="Path_860" data-name="Path 860" d="M1063.18,614.338a4.256,4.256,0,1,0,4.263-4.288,4.256,4.256,0,0,0-4.263,4.288Z" transform="translate(-733.894 -219.618)" fill="#808285" opacity="0.67"/>
      <path id="Path_861" data-name="Path 861" d="M1063.18,371.718a4.256,4.256,0,1,0,4.263-4.288,4.256,4.256,0,0,0-4.263,4.288Z" transform="translate(-733.894 -132.275)" fill="#808285" opacity="0.78"/>
    </g>
  </g>
</svg>
