<svg xmlns="http://www.w3.org/2000/svg" width="11.278" height="14.159" viewBox="0 0 11.278 14.159">
  <path id="user-icon" d="M69.6,73.153a3.522,3.522,0,1,0-4.56,0,5.646,5.646,0,0,0-3.359,5.156v.711A2.081,2.081,0,0,0,63.765,81.1h7.109a2.081,2.081,0,0,0,2.085-2.085v-.711A5.639,5.639,0,0,0,69.6,73.153Zm-4.458-2.667a2.181,2.181,0,1,1,2.178,2.178A2.181,2.181,0,0,1,65.142,70.485Zm6.491,8.528a.759.759,0,0,1-.759.759H63.765a.756.756,0,0,1-.756-.759V78.3a4.313,4.313,0,0,1,8.624,0Zm0,0" transform="translate(-61.68 -66.945)"/>
</svg>
