<svg id="user" xmlns="http://www.w3.org/2000/svg" width="35.542" height="37.182" viewBox="0 0 35.542 37.182">
  <g id="Group_5" data-name="Group 5" transform="translate(0 18.639)">
    <g id="Group_4" data-name="Group 4">
      <path id="Path_12" data-name="Path 12" d="M29.1,257.323a17.791,17.791,0,0,0-17.771,17.771.773.773,0,1,0,1.545,0,16.225,16.225,0,1,1,32.451,0,.773.773,0,1,0,1.545,0A17.79,17.79,0,0,0,29.1,257.323Z" transform="translate(-11.328 -257.323)" fill="#1d2228"/>
    </g>
  </g>
  <g id="Group_7" data-name="Group 7" transform="translate(9.272)">
    <g id="Group_6" data-name="Group 6">
      <path id="Path_13" data-name="Path 13" d="M147.827,0a8.5,8.5,0,1,0,8.5,8.5A8.509,8.509,0,0,0,147.827,0Zm0,15.453A6.954,6.954,0,1,1,154.781,8.5,6.962,6.962,0,0,1,147.827,15.453Z" transform="translate(-139.328)" fill="#1d2228"/>
    </g>
  </g>
</svg>
