<svg xmlns="http://www.w3.org/2000/svg" width="64" height="40" viewBox="0 0 64 40">
  <g id="visa" transform="translate(0.305 0.308)">
    <g id="visa-2" data-name="visa" transform="translate(0 0)">
      <rect id="Rectangle-1" width="64" height="40" rx="20" transform="translate(-0.305 -0.308)" fill="rgba(14,69,149,0)"/>
      <path id="Shape" d="M278.2,154.949l2.809-16.484H285.5l-2.811,16.484Z" transform="translate(-254.565 -127.131)" fill="#fff" fill-rule="evenodd"/>
      <path id="path13" d="M377.68,135.157a11.6,11.6,0,0,0-4.027-.692c-4.44,0-7.567,2.236-7.593,5.44-.025,2.369,2.233,3.69,3.937,4.478,1.749.808,2.337,1.323,2.328,2.045-.011,1.1-1.4,1.61-2.688,1.61a9.418,9.418,0,0,1-4.229-.865l-.579-.262-.631,3.69a14.225,14.225,0,0,0,5,.879c4.723,0,7.789-2.21,7.824-5.632.017-1.875-1.18-3.3-3.772-4.479-1.57-.763-2.532-1.271-2.522-2.044,0-.685.814-1.418,2.573-1.418a8.289,8.289,0,0,1,3.363.632l.4.19.609-3.573" transform="translate(-333.323 -123.468)" fill="#fff" fill-rule="evenodd"/>
      <path id="Path" d="M525.7,138.465h-3.472a2.236,2.236,0,0,0-2.353,1.367L513.2,154.939h4.718s.771-2.031.946-2.477l5.754.007c.134.577.547,2.47.547,2.47h4.169L525.7,138.465Zm-5.508,10.644c.371-.95,1.79-4.608,1.79-4.608-.026.044.369-.954.6-1.573l.3,1.421s.86,3.935,1.04,4.76h-3.73Z" transform="translate(-469.777 -127.131)" fill="#fff" fill-rule="evenodd"/>
      <path id="path16" d="M112.288,138.465l-4.4,11.241-.469-2.284a12.864,12.864,0,0,0-6.223-6.915l4.022,14.416,4.754-.005,7.074-16.452h-4.759" transform="translate(-92.469 -127.131)" fill="#fff" fill-rule="evenodd"/>
      <path id="path18" d="M52.5,138.465H45.255l-.057.343c5.637,1.364,9.366,4.662,10.914,8.624l-1.575-7.575a1.881,1.881,0,0,0-2.037-1.392" transform="translate(-41.184 -127.131)" fill="#f2ae14" fill-rule="evenodd"/>
    </g>
  </g>
</svg>
