<svg xmlns="http://www.w3.org/2000/svg" width="85.608" height="139.172" viewBox="0 0 85.608 139.172">
  <path id="woman-with-bund-and-glasses" d="M171.536,86.587,151.884,80.73A48.21,48.21,0,0,0,159.222,69.4c3.709-.75,7.208-4.2,8.845-8.9a15.111,15.111,0,0,0,.512-8.709,8.692,8.692,0,0,0-3.609-5.2,29.89,29.89,0,0,0,.6-5.778,30.353,30.353,0,0,0-14.906-26.121,11.55,11.55,0,0,0,.148-1.261c0-7.419-7-13.432-15.643-13.432s-15.643,6.013-15.643,13.432a11.009,11.009,0,0,0,.147,1.261,30.351,30.351,0,0,0-14.909,26.121,29.956,29.956,0,0,0,.6,5.78,8.673,8.673,0,0,0-3.609,5.2,15.072,15.072,0,0,0,.512,8.709c1.622,4.657,5.072,8.088,8.834,8.877a48.236,48.236,0,0,0,7.346,11.346L98.794,86.587A9.008,9.008,0,0,0,92.586,97.21l2.213,9.734a41.394,41.394,0,0,0,80.733,0l2.213-9.734A9.006,9.006,0,0,0,171.536,86.587ZM111.589,43.828a58.086,58.086,0,0,1,23.577-4.614,58.077,58.077,0,0,1,23.575,4.614c.143.728.222,1.48.309,2.231a10.88,10.88,0,0,0-3.785,3.217c-1.8-1.354-4.655-1.932-6.845-2.363-.648-.129-1.261-.249-1.8-.376a7.972,7.972,0,0,0-8.344,3.256,9.6,9.6,0,0,0-6.226,0,7.984,7.984,0,0,0-8.347-3.256c-.535.127-1.147.247-1.8.376-2.188.431-5.038,1.009-6.843,2.363a10.886,10.886,0,0,0-3.786-3.217C111.37,45.308,111.447,44.555,111.589,43.828Zm30.062,8.02c-.1-.1-.213-.163-.313-.254a4.31,4.31,0,0,1,3.437-1.743,4.369,4.369,0,0,1,1.025.122c.576.136,1.238.267,1.936.406,1.9.374,5.873,1.156,5.725,2.313-.607,4.807-7.507,6.312-9.7,5.777a4.37,4.37,0,0,1-3.29-3.637,1.74,1.74,0,0,0,1.179-.488A1.761,1.761,0,0,0,141.651,51.847Zm-12.973,2.5a1.742,1.742,0,0,0,1.179.49,4.365,4.365,0,0,1-3.288,3.635,4.964,4.964,0,0,1-1.1.107c-2.739,0-8.07-1.723-8.6-5.882-.148-1.159,3.82-1.941,5.728-2.315.7-.138,1.358-.27,1.934-.406a4.375,4.375,0,0,1,1.027-.122,4.308,4.308,0,0,1,3.437,1.746c-.1.089-.22.157-.315.252A1.765,1.765,0,0,0,128.679,54.344ZM114.857,66.259a2.48,2.48,0,0,0-2.249-1.414c-1.864,0-4.564-2.064-5.9-5.889A10.5,10.5,0,0,1,106.307,53a3.779,3.779,0,0,1,2.052-2.721,2.975,2.975,0,0,1,.539-.086,2.337,2.337,0,0,0,1.415-.678,9.356,9.356,0,0,1,3.18,4.156c1.109,5.8,7.56,8.437,11.973,8.437a8.4,8.4,0,0,0,1.93-.2,7.887,7.887,0,0,0,5.934-8.816,5.872,5.872,0,0,1,3.671,0,7.889,7.889,0,0,0,5.936,8.816,8.383,8.383,0,0,0,1.927.2c4.4,0,10.825-2.622,11.962-8.384a9.579,9.579,0,0,1,3.194-4.207,2.338,2.338,0,0,0,1.413.676,2.845,2.845,0,0,1,.544.088A3.786,3.786,0,0,1,164.027,53a10.5,10.5,0,0,1-.408,5.959c-1.331,3.823-4.032,5.886-5.941,5.886h0a2.3,2.3,0,0,0-2.2,1.414c-3.927,9.009-11.326,18.634-20.308,18.634S118.784,75.268,114.857,66.259Zm20.31,35.293A19.389,19.389,0,0,1,116.237,86.3l6.118-1.825c3.755,3.075,8.049,5.124,12.811,5.124s9.054-2.05,12.809-5.124l6.118,1.825A19.386,19.386,0,0,1,135.166,101.552Z" transform="translate(-92.361)" fill="#1d2228"/>
</svg>
